Lexend-Bold.ufo
<glyph name="exclam" format="2">
  <advance width="321.3333333333333"/>
  <unicode hex="0021"/>
  <outline>
    <contour>
      <point x="107.0" y="257.6666666666667" type="curve"/>
      <point x="213.66666666666666" y="257.6666666666667" type="line"/>
      <point x="231.00033333333332" y="374.55533333333335"/>
      <point x="249.66666666666666" y="513.778"/>
      <point x="249.66666666666666" y="633.3333333333334" type="curve" smooth="yes"/>
      <point x="249.66666666666666" y="713.3333333333334" type="line"/>
      <point x="71.0" y="713.3333333333334" type="line"/>
      <point x="71.0" y="633.3333333333334" type="line" smooth="yes"/>
      <point x="71.0" y="515.111"/>
      <point x="89.66633333333333" y="378.55566666666664"/>
    </contour>
    <contour>
      <point x="160.0" y="-11.0" type="curve" smooth="yes"/>
      <point x="212.889" y="-11.0"/>
      <point x="249.0" y="26.888666666666666"/>
      <point x="249.0" y="80.66666666666666" type="curve" smooth="yes"/>
      <point x="249.0" y="139.33333333333334"/>
      <point x="216.44466666666665" y="172.33333333333331"/>
      <point x="160.0" y="172.33333333333331" type="curve" smooth="yes"/>
      <point x="107.11099999999999" y="172.33333333333331"/>
      <point x="71.0" y="134.44466666666668"/>
      <point x="71.0" y="80.66666666666666" type="curve" smooth="yes"/>
      <point x="71.0" y="22.0"/>
      <point x="103.55533333333332" y="-11.0"/>
    </contour>
  </outline>
</glyph>
<glyph name="quotedbl" format="2">
  <advance width="466.8888888888889"/>
  <unicode hex="0022"/>
  <outline>
    <contour>
      <point x="158.8148148148148" y="437.18518518518516" type="line"/>
      <point x="252.5185185185185" y="437.18518518518516" type="line"/>
      <point x="335.9259259259259" y="700.0" type="line"/>
      <point x="179.4074074074074" y="700.0" type="line"/>
    </contour>
    <contour>
      <point x="151.11111111111111" y="437.18518518518516" type="line"/>
      <point x="244.8148148148148" y="437.18518518518516" type="line"/>
      <point x="327.7037037037037" y="700.0" type="line"/>
      <point x="172.22222222222223" y="700.0" type="line"/>
    </contour>
  </outline>
</glyph>
<glyph name="numbersign" format="2">
  <advance width="743.3333333333334"/>
  <unicode hex="0023"/>
  <outline>
    <contour>
      <point x="368.3333333333333" y="0.0" type="line"/>
      <point x="517.6666666666666" y="0.0" type="line"/>
      <point x="637.6666666666666" y="700.0" type="line"/>
      <point x="488.3333333333333" y="700.0" type="line"/>
    </contour>
    <contour>
      <point x="50.33333333333333" y="146.33333333333334" type="line"/>
      <point x="656.0" y="146.33333333333334" type="line"/>
      <point x="656.0" y="282.6666666666667" type="line"/>
      <point x="50.33333333333333" y="282.6666666666667" type="line"/>
    </contour>
    <contour>
      <point x="107.0" y="0.0" type="line"/>
      <point x="256.3333333333333" y="0.0" type="line"/>
      <point x="376.3333333333333" y="700.0" type="line"/>
      <point x="227.0" y="700.0" type="line"/>
    </contour>
    <contour>
      <point x="88.33333333333333" y="426.3333333333333" type="line"/>
      <point x="693.0" y="426.3333333333333" type="line"/>
      <point x="693.0" y="562.6666666666666" type="line"/>
      <point x="88.33333333333333" y="562.6666666666666" type="line"/>
    </contour>
  </outline>
</glyph>
<glyph name="dollar" format="2">
  <advance width="632.6666666666666"/>
  <unicode hex="0024"/>
  <outline>
    <contour>
      <point x="319.2962962962963" y="-10.0" type="curve" smooth="yes"/>
      <point x="477.9134074074074" y="-10.0"/>
      <point x="589.7037037037037" y="72.74107407407408"/>
      <point x="589.7037037037037" y="215.7037037037037" type="curve" smooth="yes"/>
      <point x="589.7037037037037" y="335.4566296296296"/>
      <point x="494.2595925925926" y="399.6911851851852"/>
      <point x="347.5925925925926" y="429.0740740740741" type="curve" smooth="yes"/>
      <point x="277.56807407407405" y="443.0245185185185"/>
      <point x="222.37037037037038" y="465.6051111111111"/>
      <point x="222.37037037037038" y="511.7037037037037" type="curve" smooth="yes"/>
      <point x="222.37037037037038" y="553.6292962962963"/>
      <point x="263.00033333333334" y="578.3333333333334"/>
      <point x="324.9259259259259" y="578.3333333333334" type="curve" smooth="yes"/>
      <point x="396.77777777777777" y="578.3333333333334"/>
      <point x="463.3703703703704" y="550.370037037037"/>
      <point x="514.9259259259259" y="494.6666666666667" type="curve"/>
      <point x="587.074074074074" y="605.2962962962963" type="line"/>
      <point x="520.506" y="680.1603333333334"/>
      <point x="433.67885185185185" y="714.8148148148148"/>
      <point x="321.18518518518516" y="714.8148148148148" type="curve" smooth="yes"/>
      <point x="181.33333333333334" y="714.8148148148148"/>
      <point x="60.925925925925924" y="628.7774444444444"/>
      <point x="60.925925925925924" y="503.8888888888889" type="curve" smooth="yes"/>
      <point x="60.925925925925924" y="386.01233333333334"/>
      <point x="134.61744444444446" y="316.64181481481484"/>
      <point x="286.962962962963" y="284.14814814814815" type="curve" smooth="yes"/>
      <point x="363.81481481481484" y="268.75325925925927"/>
      <point x="429.22222222222223" y="243.58007407407408"/>
      <point x="429.22222222222223" y="191.55555555555554" type="curve" smooth="yes"/>
      <point x="429.22222222222223" y="149.72822222222223"/>
      <point x="385.43225925925924" y="125.51851851851852"/>
      <point x="327.4074074074074" y="125.51851851851852" type="curve" smooth="yes"/>
      <point x="249.8575925925926" y="125.51851851851852"/>
      <point x="183.3948888888889" y="154.25959259259258"/>
      <point x="111.0" y="234.11111111111111" type="curve"/>
      <point x="31.703703703703706" y="111.55555555555556" type="line"/>
      <point x="98.22255555555556" y="32.44411111111111"/>
      <point x="190.33651851851852" y="-10.0"/>
    </contour>
    <contour>
      <point x="258.81481481481484" y="-91.0" type="line"/>
      <point x="361.1111111111111" y="-91.0" type="line"/>
      <point x="351.48148148148147" y="339.6296296296296" type="line"/>
      <point x="268.44444444444446" y="372.6296296296296" type="line"/>
    </contour>
    <contour>
      <point x="378.962962962963" y="338.6666666666667" type="line"/>
      <point x="388.5925925925926" y="786.8148148148148" type="line"/>
      <point x="286.2962962962963" y="786.8148148148148" type="line"/>
      <point x="295.9259259259259" y="371.6666666666667" type="line"/>
    </contour>
  </outline>
</glyph>
<glyph name="percent" format="2">
  <advance width="989.0"/>
  <unicode hex="0025"/>
  <outline>
    <contour>
      <point x="177.66666666666666" y="0.0" type="line"/>
      <point x="329.0" y="0.0" type="line"/>
      <point x="797.0" y="700.0" type="line"/>
      <point x="640.6666666666666" y="700.0" type="line"/>
    </contour>
    <contour>
      <point x="219.66666666666666" y="329.0" type="curve" smooth="yes"/>
      <point x="321.88866666666667" y="329.0"/>
      <point x="398.3333333333333" y="413.55566666666664"/>
      <point x="398.3333333333333" y="524.6666666666666" type="curve" smooth="yes"/>
      <point x="398.3333333333333" y="639.7776666666666"/>
      <point x="325.7776666666667" y="721.6666666666666"/>
      <point x="220.0" y="721.6666666666666" type="curve" smooth="yes"/>
      <point x="113.333" y="721.6666666666666"/>
      <point x="40.0" y="639.7776666666666"/>
      <point x="40.0" y="524.6666666666666" type="curve" smooth="yes"/>
      <point x="40.0" y="412.667"/>
      <point x="115.66633333333333" y="329.0"/>
    </contour>
    <contour>
      <point x="220.0" y="436.0" type="curve" smooth="yes"/>
      <point x="187.55533333333332" y="436.0"/>
      <point x="169.0" y="471.33366666666666"/>
      <point x="169.0" y="524.6666666666666" type="curve" smooth="yes"/>
      <point x="169.0" y="578.889"/>
      <point x="188.55566666666667" y="614.3333333333334"/>
      <point x="219.66666666666666" y="614.3333333333334" type="curve" smooth="yes"/>
      <point x="251.222" y="614.3333333333334"/>
      <point x="269.0" y="579.3336666666667"/>
      <point x="269.0" y="524.6666666666666" type="curve" smooth="yes"/>
      <point x="269.0" y="470.889"/>
      <point x="251.11100000000002" y="436.0"/>
    </contour>
    <contour>
      <point x="767.3333333333333" y="-9.666666666666666" type="curve" smooth="yes"/>
      <point x="869.5553333333332" y="-9.666666666666666"/>
      <point x="945.6666666666666" y="74.889"/>
      <point x="945.6666666666666" y="186.0" type="curve" smooth="yes"/>
      <point x="945.6666666666666" y="301.111"/>
      <point x="873.111" y="383.0"/>
      <point x="767.3333333333333" y="383.0" type="curve" smooth="yes"/>
      <point x="660.6663333333333" y="383.0"/>
      <point x="587.3333333333334" y="301.111"/>
      <point x="587.3333333333334" y="186.0" type="curve" smooth="yes"/>
      <point x="587.3333333333334" y="74.44466666666666"/>
      <point x="663.7776666666666" y="-9.666666666666666"/>
    </contour>
    <contour>
      <point x="767.3333333333333" y="97.0" type="curve" smooth="yes"/>
      <point x="734.8886666666666" y="97.0"/>
      <point x="716.3333333333333" y="132.667"/>
      <point x="716.3333333333333" y="186.0" type="curve" smooth="yes"/>
      <point x="716.3333333333333" y="240.667"/>
      <point x="735.778" y="275.6666666666667"/>
      <point x="767.3333333333333" y="275.6666666666667" type="curve" smooth="yes"/>
      <point x="798.4443333333334" y="275.6666666666667"/>
      <point x="816.6666666666666" y="240.22233333333332"/>
      <point x="816.6666666666666" y="186.0" type="curve" smooth="yes"/>
      <point x="816.6666666666666" y="132.667"/>
      <point x="798.4443333333334" y="97.0"/>
    </contour>
  </outline>
</glyph>
<glyph name="ampersand" format="2">
  <advance width="770.2962962962963"/>
  <unicode hex="0026"/>
  <outline>
    <contour>
      <point x="578.8518518518518" y="0.0" type="line"/>
      <point x="766.7777777777778" y="0.0" type="line"/>
      <point x="610.7777777777778" y="166.59259259259258" type="line"/>
      <point x="548.074074074074" y="224.59259259259258" type="line"/>
      <point x="463.0" y="317.48148148148147" type="line" smooth="yes"/>
      <point x="414.5307037037037" y="367.25925925925924"/>
      <point x="319.0" y="466.173"/>
      <point x="319.0" y="521.0370370370371" type="curve" smooth="yes"/>
      <point x="319.0" y="562.1726666666666"/>
      <point x="346.0865925925926" y="584.7407407407408"/>
      <point x="391.3703703703704" y="584.7407407407408" type="curve" smooth="yes"/>
      <point x="431.27177777777774" y="584.7407407407408"/>
      <point x="457.6051111111111" y="566.7404074074074"/>
      <point x="480.3703703703704" y="511.18518518518516" type="curve"/>
      <point x="599.2962962962963" y="582.3703703703703" type="line"/>
      <point x="572.6791851851852" y="661.6292962962963"/>
      <point x="485.3578518518519" y="714.8148148148148"/>
      <point x="387.037037037037" y="714.8148148148148" type="curve" smooth="yes"/>
      <point x="256.7162222222222" y="714.8148148148148"/>
      <point x="165.59259259259258" y="635.7902962962963"/>
      <point x="165.59259259259258" y="528.6296296296297" type="curve" smooth="yes"/>
      <point x="165.59259259259258" y="467.83966666666663"/>
      <point x="202.4814814814815" y="392.14814814814815"/>
      <point x="301.74074074074076" y="288.25925925925924" type="curve" smooth="yes"/>
      <point x="452.5925925925926" y="126.07407407407408" type="line"/>
      <point x="506.14814814814815" y="76.2962962962963" type="line"/>
    </contour>
    <contour>
      <point x="323.3333333333333" y="-10.0" type="curve" smooth="yes"/>
      <point x="516.9135925925925" y="-10.0"/>
      <point x="658.6047777777777" y="132.43192592592592"/>
      <point x="687.8888888888889" y="343.44444444444446" type="curve"/>
      <point x="547.7407407407408" y="343.44444444444446" type="line"/>
      <point x="532.7774444444444" y="205.76525925925927"/>
      <point x="448.19770370370367" y="113.88888888888889"/>
      <point x="340.44444444444446" y="113.88888888888889" type="curve" smooth="yes"/>
      <point x="250.56774074074076" y="113.88888888888889"/>
      <point x="198.0" y="158.88888888888889"/>
      <point x="198.0" y="229.40740740740742" type="curve" smooth="yes"/>
      <point x="198.0" y="289.25892592592595"/>
      <point x="236.74107407407405" y="327.4070740740741"/>
      <point x="312.44444444444446" y="344.14814814814815" type="curve"/>
      <point x="218.59259259259258" y="438.0" type="line"/>
      <point x="107.2344074074074" y="397.3088148148148"/>
      <point x="50.0" y="315.5678888888889"/>
      <point x="50.0" y="217.2962962962963" type="curve" smooth="yes"/>
      <point x="50.0" y="90.2344074074074"/>
      <point x="168.46896296296296" y="-10.0"/>
    </contour>
  </outline>
</glyph>
<glyph name="quotesingle" format="2">
  <advance width="244.0"/>
  <unicode hex="0027"/>
  <outline>
    <contour>
      <point x="43.25925925925926" y="437.18518518518516" type="line"/>
      <point x="136.96296296296296" y="437.18518518518516" type="line"/>
      <point x="220.37037037037038" y="700.0" type="line"/>
      <point x="63.851851851851855" y="700.0" type="line"/>
    </contour>
  </outline>
</glyph>
<glyph name="parenleft" format="2">
  <advance width="393.3333333333333"/>
  <unicode hex="0028"/>
  <outline>
    <contour>
      <point x="290.0" y="-186.0" type="curve"/>
      <point x="386.6666666666667" y="-97.33333333333334" type="line"/>
      <point x="265.77799999999996" y="-14.222333333333335"/>
      <point x="208.33333333333331" y="116.66666666666667"/>
      <point x="208.33333333333331" y="258.0" type="curve" smooth="yes"/>
      <point x="208.33333333333331" y="399.3333333333333"/>
      <point x="265.77799999999996" y="530.2223333333334"/>
      <point x="386.6666666666667" y="613.3333333333334" type="curve"/>
      <point x="291.0" y="702.0" type="line"/>
      <point x="128.333" y="600.667"/>
      <point x="40.0" y="443.333"/>
      <point x="40.0" y="258.0" type="curve" smooth="yes"/>
      <point x="40.0" y="71.333"/>
      <point x="127.333" y="-84.667"/>
    </contour>
  </outline>
</glyph>
<glyph name="parenright" format="2">
  <advance width="393.3333333333333"/>
  <unicode hex="0029"/>
  <outline>
    <contour>
      <point x="102.33333333333333" y="-186.0" type="line"/>
      <point x="265.3333333333333" y="-85.0"/>
      <point x="353.3333333333333" y="73.0"/>
      <point x="353.3333333333333" y="258.0" type="curve" smooth="yes"/>
      <point x="353.3333333333333" y="445.0"/>
      <point x="266.3333333333333" y="601.0"/>
      <point x="103.33333333333333" y="702.0" type="curve"/>
      <point x="6.666666666666668" y="613.3333333333334" type="line"/>
      <point x="127.33333333333334" y="530.3333333333334"/>
      <point x="185.0" y="399.3333333333333"/>
      <point x="185.0" y="258.0" type="curve" smooth="yes"/>
      <point x="185.0" y="116.66666666666667"/>
      <point x="127.33333333333334" y="-14.333333333333334"/>
      <point x="6.666666666666668" y="-97.33333333333334" type="curve"/>
    </contour>
  </outline>
</glyph>
<glyph name="asterisk" format="2">
  <advance width="449.0"/>
  <unicode hex="002A"/>
  <outline>
    <contour>
      <point x="167.0" y="349.3333333333333" type="line"/>
      <point x="288.0" y="349.3333333333333" type="line"/>
      <point x="271.3333333333333" y="488.3333333333333" type="line"/>
      <point x="255.0" y="489.0" type="line"/>
      <point x="375.6666666666667" y="398.3333333333333" type="line"/>
      <point x="432.0" y="494.3333333333333" type="line"/>
      <point x="291.3333333333333" y="548.0" type="line"/>
      <point x="291.3333333333333" y="537.6666666666666" type="line"/>
      <point x="433.66666666666663" y="600.0" type="line"/>
      <point x="377.3333333333333" y="697.6666666666666" type="line"/>
      <point x="253.0" y="600.3333333333334" type="line"/>
      <point x="270.3333333333333" y="594.3333333333334" type="line"/>
      <point x="286.0" y="741.3333333333334" type="line"/>
      <point x="165.0" y="741.3333333333334" type="line"/>
      <point x="182.33333333333334" y="597.6666666666666" type="line"/>
      <point x="204.0" y="599.6666666666666" type="line"/>
      <point x="72.0" y="698.3333333333334" type="line"/>
      <point x="15.333333333333334" y="601.0" type="line"/>
      <point x="154.0" y="539.0" type="line"/>
      <point x="154.66666666666666" y="548.0" type="line"/>
      <point x="16.0" y="494.0" type="line"/>
      <point x="72.33333333333333" y="397.6666666666667" type="line"/>
      <point x="201.33333333333334" y="485.0" type="line"/>
      <point x="182.33333333333334" y="488.3333333333333" type="line"/>
    </contour>
  </outline>
</glyph>
<glyph name="plus" format="2">
  <advance width="595.8148148148148"/>
  <unicode hex="002B"/>
  <outline>
    <contour>
      <point x="229.4814814814815" y="39.592592592592595" type="line"/>
      <point x="365.2962962962963" y="39.592592592592595" type="line"/>
      <point x="365.2962962962963" y="527.4074074074074" type="line"/>
      <point x="229.4814814814815" y="527.4074074074074" type="line"/>
    </contour>
    <contour>
      <point x="47.407407407407405" y="221.03703703703704" type="line"/>
      <point x="548.4074074074074" y="221.03703703703704" type="line"/>
      <point x="548.4074074074074" y="344.74074074074076" type="line"/>
      <point x="47.407407407407405" y="344.74074074074076" type="line"/>
    </contour>
  </outline>
</glyph>
<glyph name="comma" format="2">
  <advance width="290.3333333333333"/>
  <unicode hex="002C"/>
  <outline>
    <contour>
      <point x="84.0" y="-203.0" type="line"/>
      <point x="179.55533333333332" y="-174.55566666666667"/>
      <point x="248.33333333333334" y="-84.667"/>
      <point x="248.33333333333334" y="4.666666666666667" type="curve" smooth="yes"/>
      <point x="248.33333333333334" y="80.22233333333334"/>
      <point x="202.889" y="132.33333333333334"/>
      <point x="143.33333333333334" y="132.33333333333334" type="curve" smooth="yes"/>
      <point x="94.0" y="132.33333333333334"/>
      <point x="59.0" y="105.33333333333333"/>
      <point x="59.0" y="62.666666666666664" type="curve" smooth="yes"/>
      <point x="59.0" y="34.66666666666667"/>
      <point x="68.55566666666667" y="13.999666666666666"/>
      <point x="99.66666666666667" y="-8.666666666666666" type="curve" smooth="yes"/>
      <point x="123.66633333333333" y="-26.000333333333334"/>
      <point x="127.0" y="-38.888999999999996"/>
      <point x="127.0" y="-51.33333333333333" type="curve" smooth="yes"/>
      <point x="127.0" y="-77.55566666666667"/>
      <point x="91.33366666666667" y="-120.99966666666667"/>
      <point x="36.66666666666667" y="-145.0" type="curve"/>
    </contour>
  </outline>
</glyph>
<glyph name="hyphen" format="2">
  <advance width="439.25925925925924"/>
  <unicode hex="002D"/>
  <outline>
    <contour>
      <point x="51.55555555555556" y="217.1851851851852" type="line"/>
      <point x="387.7037037037037" y="217.1851851851852" type="line"/>
      <point x="387.7037037037037" y="356.74074074074076" type="line"/>
      <point x="51.55555555555556" y="356.74074074074076" type="line"/>
    </contour>
  </outline>
</glyph>
<glyph name="period" format="2">
  <advance width="261.3333333333333"/>
  <unicode hex="002E"/>
  <outline>
    <contour>
      <point x="130.66666666666666" y="-11.0" type="curve" smooth="yes"/>
      <point x="183.55566666666667" y="-11.0"/>
      <point x="219.66666666666666" y="26.888666666666666"/>
      <point x="219.66666666666666" y="80.66666666666666" type="curve" smooth="yes"/>
      <point x="219.66666666666666" y="139.33333333333334"/>
      <point x="187.11133333333333" y="172.33333333333331"/>
      <point x="130.66666666666666" y="172.33333333333331" type="curve" smooth="yes"/>
      <point x="77.77766666666666" y="172.33333333333331"/>
      <point x="41.666666666666664" y="134.44466666666668"/>
      <point x="41.666666666666664" y="80.66666666666666" type="curve" smooth="yes"/>
      <point x="41.666666666666664" y="22.0"/>
      <point x="74.222" y="-11.0"/>
    </contour>
  </outline>
</glyph>
<glyph name="slash" format="2">
  <advance width="601.0"/>
  <unicode hex="002F"/>
  <outline>
    <contour>
      <point x="6.0" y="-143.33333333333334" type="line"/>
      <point x="176.66666666666666" y="-143.33333333333334" type="line"/>
      <point x="591.6666666666666" y="700.0" type="line"/>
      <point x="422.6666666666667" y="700.0" type="line"/>
    </contour>
  </outline>
</glyph>
<glyph name="zero" format="2">
  <advance width="685.6666666666666"/>
  <unicode hex="0030"/>
  <outline>
    <contour>
      <point x="342.3333333333333" y="-10.0" type="curve" smooth="yes"/>
      <point x="536.1113333333334" y="-10.0"/>
      <point x="647.0" y="122.44433333333333"/>
      <point x="647.0" y="350.0" type="curve" smooth="yes"/>
      <point x="647.0" y="577.5556666666666"/>
      <point x="536.1113333333334" y="710.0"/>
      <point x="342.3333333333333" y="710.0" type="curve" smooth="yes"/>
      <point x="148.55533333333332" y="710.0"/>
      <point x="38.666666666666664" y="577.5556666666666"/>
      <point x="38.666666666666664" y="350.0" type="curve" smooth="yes"/>
      <point x="38.666666666666664" y="122.44433333333333"/>
      <point x="148.55533333333332" y="-10.0"/>
    </contour>
    <contour>
      <point x="342.3333333333333" y="141.33333333333331" type="curve" smooth="yes"/>
      <point x="257.44433333333336" y="141.33333333333331"/>
      <point x="209.33333333333331" y="216.22233333333332"/>
      <point x="209.33333333333331" y="350.0" type="curve" smooth="yes"/>
      <point x="209.33333333333331" y="488.2223333333333"/>
      <point x="257.44433333333336" y="565.3333333333334"/>
      <point x="342.3333333333333" y="565.3333333333334" type="curve" smooth="yes"/>
      <point x="427.2223333333333" y="565.3333333333334"/>
      <point x="475.3333333333333" y="488.2223333333333"/>
      <point x="475.3333333333333" y="350.0" type="curve" smooth="yes"/>
      <point x="475.3333333333333" y="216.22233333333332"/>
      <point x="427.2223333333333" y="141.33333333333331"/>
    </contour>
  </outline>
</glyph>
<glyph name="one" format="2">
  <advance width="571.3333333333334"/>
  <unicode hex="0031"/>
  <outline>
    <contour>
      <point x="210.33333333333334" y="49.0" type="line"/>
      <point x="386.0" y="49.0" type="line"/>
      <point x="386.0" y="710.0" type="line"/>
      <point x="267.3333333333333" y="710.0" type="line"/>
      <point x="66.33333333333334" y="613.3333333333334" type="line"/>
      <point x="95.33333333333334" y="452.6666666666667" type="line"/>
      <point x="247.33333333333334" y="522.3333333333334" type="line"/>
      <point x="210.33333333333334" y="617.0" type="line"/>
    </contour>
    <contour>
      <point x="79.33333333333334" y="0.0" type="line"/>
      <point x="520.0" y="0.0" type="line"/>
      <point x="520.0" y="157.33333333333331" type="line"/>
      <point x="79.33333333333334" y="157.33333333333331" type="line"/>
    </contour>
  </outline>
</glyph>
<glyph name="two" format="2">
  <advance width="548.0"/>
  <unicode hex="0032"/>
  <outline>
    <contour>
      <point x="64.5925925925926" y="0.0" type="line"/>
      <point x="535.2592592592592" y="0.0" type="line"/>
      <point x="535.2592592592592" y="142.51851851851853" type="line"/>
      <point x="186.44444444444446" y="142.51851851851853" type="line"/>
      <point x="206.44444444444446" y="74.0" type="line"/>
      <point x="365.44444444444446" y="247.0" type="line" smooth="yes"/>
      <point x="467.70255555555553" y="359.2470740740741"/>
      <point x="505.55555555555554" y="440.95062962962965"/>
      <point x="505.55555555555554" y="513.1481481481482" type="curve" smooth="yes"/>
      <point x="505.55555555555554" y="632.9506296296296"/>
      <point x="410.7902962962963" y="714.173"/>
      <point x="287.6296296296296" y="714.8148148148148" type="curve" smooth="yes"/>
      <point x="170.3948888888889" y="715.4566296296296"/>
      <point x="70.04937037037037" y="636.6666666666666"/>
      <point x="30.296296296296298" y="520.6666666666666" type="curve"/>
      <point x="148.92592592592592" y="455.18518518518516" type="line"/>
      <point x="179.3948888888889" y="528.2225555555556"/>
      <point x="223.5558888888889" y="566.6666666666666"/>
      <point x="271.25925925925924" y="566.6666666666666" type="curve" smooth="yes"/>
      <point x="325.30440740740744" y="566.6666666666666"/>
      <point x="353.6296296296296" y="536.8888888888889"/>
      <point x="353.6296296296296" y="494.0740740740741" type="curve" smooth="yes"/>
      <point x="353.6296296296296" y="440.8888888888889"/>
      <point x="282.21003703703707" y="357.8767037037037"/>
      <point x="236.92592592592592" y="308.0740740740741" type="curve" smooth="yes"/>
      <point x="31.111111111111114" y="82.0" type="line"/>
    </contour>
  </outline>
</glyph>
<glyph name="three" format="2">
  <advance width="581.0"/>
  <unicode hex="0033"/>
  <outline>
    <contour>
      <point x="281.3333333333333" y="-10.0" type="curve" smooth="yes"/>
      <point x="428.2470740740741" y="-10.0"/>
      <point x="543.5925925925926" y="93.24707407407408"/>
      <point x="543.5925925925926" y="231.8148148148148" type="curve" smooth="yes"/>
      <point x="543.5925925925926" y="355.71603703703704"/>
      <point x="440.13562962962965" y="452.6296296296296"/>
      <point x="317.6666666666667" y="452.6296296296296" type="curve" smooth="yes"/>
      <point x="295.8888888888889" y="452.6296296296296"/>
      <point x="267.00033333333334" y="446.96262962962965"/>
      <point x="256.3333333333333" y="441.6296296296296" type="curve"/>
      <point x="293.3703703703704" y="397.81481481481484" type="line"/>
      <point x="524.7777777777778" y="646.5185185185185" type="line"/>
      <point x="495.6296296296296" y="704.8148148148148" type="line"/>
      <point x="70.07407407407408" y="704.8148148148148" type="line"/>
      <point x="70.07407407407408" y="568.7037037037037" type="line"/>
      <point x="362.77777777777777" y="563.8888888888889" type="line"/>
      <point x="320.5925925925926" y="590.0740740740741" type="line"/>
      <point x="143.11111111111111" y="396.3703703703704" type="line"/>
      <point x="179.37037037037038" y="301.0" type="line"/>
      <point x="221.00881481481483" y="319.6966296296296"/>
      <point x="258.8396666666667" y="329.55555555555554"/>
      <point x="288.3333333333333" y="329.55555555555554" type="curve" smooth="yes"/>
      <point x="355.7497037037037" y="329.55555555555554"/>
      <point x="395.77777777777777" y="294.2098888888889"/>
      <point x="395.77777777777777" y="229.66666666666666" type="curve" smooth="yes"/>
      <point x="395.77777777777777" y="167.04937037037035"/>
      <point x="345.87655555555557" y="123.51851851851852"/>
      <point x="287.4074074074074" y="123.51851851851852" type="curve" smooth="yes"/>
      <point x="232.00033333333332" y="123.51851851851852"/>
      <point x="182.8641851851852" y="150.679"/>
      <point x="138.66666666666666" y="220.85185185185185" type="curve"/>
      <point x="22.40740740740741" y="146.66666666666666" type="line"/>
      <point x="90.90107407407407" y="31.65414814814815"/>
      <point x="170.46896296296296" y="-10.0"/>
    </contour>
  </outline>
</glyph>
<glyph name="four" format="2">
  <advance width="655.1481481481482"/>
  <unicode hex="0034"/>
  <outline>
    <contour>
      <point x="349.5925925925926" y="0.0" type="line"/>
      <point x="504.14814814814815" y="0.0" type="line"/>
      <point x="504.14814814814815" y="704.8148148148148" type="line"/>
      <point x="375.4074074074074" y="704.8148148148148" type="line"/>
      <point x="20.37037037037037" y="276.14814814814815" type="line"/>
      <point x="85.62962962962963" y="151.48148148148147" type="line"/>
      <point x="618.9259259259259" y="151.48148148148147" type="line"/>
      <point x="618.9259259259259" y="284.6666666666667" type="line"/>
      <point x="159.85185185185185" y="284.6666666666667" type="line"/>
      <point x="180.7037037037037" y="257.74074074074076" type="line"/>
      <point x="429.96296296296293" y="562.8148148148148" type="line"/>
      <point x="349.5925925925926" y="565.925925925926" type="line"/>
    </contour>
  </outline>
</glyph>
<glyph name="five" format="2">
  <advance width="591.5925925925926"/>
  <unicode hex="0035"/>
  <outline>
    <contour>
      <point x="278.18518518518516" y="-7.0" type="curve" smooth="yes"/>
      <point x="425.98766666666666" y="-7.0"/>
      <point x="538.8148148148148" y="99.333"/>
      <point x="538.8148148148148" y="238.0" type="curve" smooth="yes"/>
      <point x="538.8148148148148" y="377.16066666666666"/>
      <point x="439.60477777777777" y="475.22222222222223"/>
      <point x="307.1111111111111" y="475.22222222222223" type="curve" smooth="yes"/>
      <point x="246.0744074074074" y="475.22222222222223"/>
      <point x="176.6915185185185" y="449.0492222222222"/>
      <point x="141.92592592592592" y="418.77777777777777" type="curve"/>
      <point x="195.8148148148148" y="397.0" type="line"/>
      <point x="228.8148148148148" y="619.0" type="line"/>
      <point x="188.55555555555554" y="568.7037037037037" type="line"/>
      <point x="508.18518518518516" y="568.7037037037037" type="line"/>
      <point x="508.18518518518516" y="704.8148148148148" type="line"/>
      <point x="109.96296296296296" y="704.8148148148148" type="line"/>
      <point x="67.03703703703704" y="397.7037037037037" type="line"/>
      <point x="137.03703703703704" y="304.81481481481484" type="line"/>
      <point x="201.53085185185185" y="340.9135925925926"/>
      <point x="231.1977037037037" y="349.22222222222223"/>
      <point x="275.5925925925926" y="349.22222222222223" type="curve" smooth="yes"/>
      <point x="341.37003703703704" y="349.22222222222223"/>
      <point x="390.48148148148147" y="301.9010740740741"/>
      <point x="390.48148148148147" y="238.59259259259258" type="curve" smooth="yes"/>
      <point x="390.48148148148147" y="178.0"/>
      <point x="341.27177777777774" y="131.0"/>
      <point x="273.3703703703704" y="131.0" type="curve" smooth="yes"/>
      <point x="216.77744444444443" y="131.0"/>
      <point x="174.82733333333334" y="149.74107407407408"/>
      <point x="119.22222222222223" y="211.37037037037038" type="curve"/>
      <point x="32.74074074074074" y="116.44444444444444" type="line"/>
      <point x="88.49381481481481" y="36.49381481481481"/>
      <point x="174.62962962962962" y="-7.0"/>
    </contour>
  </outline>
</glyph>
<glyph name="six" format="2">
  <advance width="575.7777777777778"/>
  <unicode hex="0036"/>
  <outline>
    <contour>
      <point x="292.14814814814815" y="0.0" type="curve" smooth="yes"/>
      <point x="439.85185185185185" y="0.0"/>
      <point x="548.0" y="111.30881481481481"/>
      <point x="548.0" y="260.0" type="curve" smooth="yes"/>
      <point x="548.0" y="384.0"/>
      <point x="448.55555555555554" y="489.0"/>
      <point x="330.6296296296296" y="489.0" type="curve" smooth="yes"/>
      <point x="248.65433333333334" y="489.0"/>
      <point x="154.65433333333334" y="427.69137037037035"/>
      <point x="123.88888888888889" y="334.1111111111111" type="curve"/>
      <point x="154.62962962962962" y="260.0" type="line"/>
      <point x="182.66666666666666" y="337.6911851851852"/>
      <point x="211.62962962962962" y="404.75325925925927"/>
      <point x="264.8888888888889" y="491.48148148148147" type="curve" smooth="yes"/>
      <point x="396.55555555555554" y="701.0370370370371" type="line"/>
      <point x="392.55555555555554" y="711.0370370370371" type="line"/>
      <point x="243.74074074074073" y="711.0370370370371" type="line"/>
      <point x="146.96296296296296" y="548.3703703703703" type="line" smooth="yes"/>
      <point x="78.45696296296296" y="434.1236296296296"/>
      <point x="35.18518518518518" y="344.83966666666663"/>
      <point x="35.18518518518518" y="252.2962962962963" type="curve" smooth="yes"/>
      <point x="35.18518518518518" y="110.2715925925926"/>
      <point x="148.34566666666666" y="0.0"/>
    </contour>
    <contour>
      <point x="294.0740740740741" y="133.7037037037037" type="curve" smooth="yes"/>
      <point x="226.86437037037038" y="133.7037037037037"/>
      <point x="179.14814814814815" y="184.0618888888889"/>
      <point x="179.14814814814815" y="251.37037037037038" type="curve" smooth="yes"/>
      <point x="179.14814814814815" y="314.62996296296296"/>
      <point x="227.2097037037037" y="364.9259259259259"/>
      <point x="295.1111111111111" y="364.9259259259259" type="curve" smooth="yes"/>
      <point x="356.88855555555557" y="364.9259259259259"/>
      <point x="406.9259259259259" y="310.75325925925927"/>
      <point x="406.9259259259259" y="250.85185185185185" type="curve" smooth="yes"/>
      <point x="406.9259259259259" y="181.5181851851852"/>
      <point x="359.2097037037037" y="133.7037037037037"/>
    </contour>
  </outline>
</glyph>
<glyph name="seven" format="2">
  <advance width="554.6666666666666"/>
  <unicode hex="0037"/>
  <outline>
    <contour>
      <point x="80.0" y="0.0" type="line"/>
      <point x="258.6666666666667" y="0.0" type="line"/>
      <point x="519.6666666666666" y="623.6666666666666" type="line"/>
      <point x="503.6666666666667" y="706.6666666666666" type="line"/>
      <point x="43.333333333333336" y="706.6666666666666" type="line"/>
      <point x="43.333333333333336" y="550.6666666666666" type="line"/>
      <point x="411.3333333333333" y="550.6666666666666" type="line"/>
      <point x="358.0" y="638.6666666666666" type="line"/>
    </contour>
  </outline>
</glyph>
<glyph name="eight" format="2">
  <advance width="601.6666666666666"/>
  <unicode hex="0038"/>
  <outline>
    <contour>
      <point x="300.3333333333333" y="-3.0" type="curve" smooth="yes"/>
      <point x="447.44466666666665" y="-3.0"/>
      <point x="564.0" y="85.55566666666667"/>
      <point x="564.0" y="206.0" type="curve" smooth="yes"/>
      <point x="564.0" y="313.21866666666665"/>
      <point x="497.77799999999996" y="378.7393333333333"/>
      <point x="403.3333333333333" y="401.0" type="curve"/>
      <point x="413.0" y="361.3333333333333" type="line"/>
      <point x="495.26233333333334" y="394.76366666666667"/>
      <point x="539.3333333333334" y="449.363"/>
      <point x="539.3333333333334" y="522.3333333333334" type="curve" smooth="yes"/>
      <point x="539.3333333333334" y="632.9996666666666"/>
      <point x="432.333" y="713.3333333333334"/>
      <point x="300.3333333333333" y="713.3333333333334" type="curve" smooth="yes"/>
      <point x="168.33366666666666" y="713.3333333333334"/>
      <point x="61.333333333333336" y="632.9996666666666"/>
      <point x="61.333333333333336" y="522.3333333333334" type="curve" smooth="yes"/>
      <point x="61.333333333333336" y="449.363"/>
      <point x="110.067" y="391.267"/>
      <point x="186.66666666666666" y="361.3333333333333" type="curve"/>
      <point x="199.33333333333334" y="405.0" type="line"/>
      <point x="94.96266666666666" y="376.03166666666664"/>
      <point x="37.66666666666667" y="314.28166666666664"/>
      <point x="37.66666666666667" y="206.0" type="curve" smooth="yes"/>
      <point x="37.66666666666667" y="86.88866666666667"/>
      <point x="154.55566666666667" y="-3.0"/>
    </contour>
    <contour>
      <point x="300.3333333333333" y="136.33333333333331" type="curve" smooth="yes"/>
      <point x="248.33366666666666" y="136.33333333333331"/>
      <point x="207.33333333333331" y="171.33333333333334"/>
      <point x="207.33333333333331" y="218.0" type="curve" smooth="yes"/>
      <point x="207.33333333333331" y="266.44433333333336"/>
      <point x="248.33366666666666" y="302.0"/>
      <point x="300.3333333333333" y="302.0" type="curve" smooth="yes"/>
      <point x="354.55566666666664" y="302.0"/>
      <point x="393.6666666666667" y="266.44433333333336"/>
      <point x="393.6666666666667" y="218.0" type="curve" smooth="yes"/>
      <point x="393.6666666666667" y="170.00033333333334"/>
      <point x="353.667" y="136.33333333333331"/>
    </contour>
    <contour>
      <point x="300.3333333333333" y="442.6666666666667" type="curve" smooth="yes"/>
      <point x="253.222" y="442.6666666666667"/>
      <point x="219.0" y="472.2223333333333"/>
      <point x="219.0" y="514.0" type="curve" smooth="yes"/>
      <point x="219.0" y="555.7776666666666"/>
      <point x="253.222" y="587.3333333333334"/>
      <point x="300.3333333333333" y="587.3333333333334" type="curve" smooth="yes"/>
      <point x="347.44466666666665" y="587.3333333333334"/>
      <point x="381.6666666666667" y="555.7776666666666"/>
      <point x="381.6666666666667" y="514.0" type="curve" smooth="yes"/>
      <point x="381.6666666666667" y="472.2223333333333"/>
      <point x="347.44466666666665" y="442.6666666666667"/>
    </contour>
  </outline>
</glyph>
<glyph name="nine" format="2">
  <advance width="572.6666666666666"/>
  <unicode hex="0039"/>
  <outline>
    <contour>
      <point x="211.14814814814815" y="0.0" type="line"/>
      <point x="360.48148148148147" y="0.0" type="line"/>
      <point x="448.2962962962963" y="174.0" type="line" smooth="yes"/>
      <point x="510.7654444444444" y="300.56807407407405"/>
      <point x="544.8888888888889" y="384.6911851851852"/>
      <point x="544.8888888888889" y="475.1111111111111" type="curve" smooth="yes"/>
      <point x="544.8888888888889" y="607.0123333333333"/>
      <point x="429.5596296296296" y="715.8518518518518"/>
      <point x="288.44444444444446" y="715.8518518518518" type="curve" smooth="yes"/>
      <point x="141.25233333333333" y="715.8518518518518"/>
      <point x="30.0" y="604.3458518518519"/>
      <point x="30.0" y="459.1111111111111" type="curve" smooth="yes"/>
      <point x="30.0" y="337.8763703703704"/>
      <point x="126.333" y="233.37037037037038"/>
      <point x="241.0" y="233.37037037037038" type="curve" smooth="yes"/>
      <point x="321.37833333333333" y="233.37037037037038"/>
      <point x="420.74970370370374" y="296.7145555555556"/>
      <point x="449.44444444444446" y="388.25925925925924" type="curve"/>
      <point x="424.77777777777777" y="452.0" type="line"/>
      <point x="207.14814814814815" y="10.0" type="line"/>
    </contour>
    <contour>
      <point x="278.9259259259259" y="362.25925925925924" type="curve" smooth="yes"/>
      <point x="221.2484074074074" y="362.25925925925924"/>
      <point x="174.7037037037037" y="414.0125185185185"/>
      <point x="174.7037037037037" y="471.14814814814815" type="curve" smooth="yes"/>
      <point x="174.7037037037037" y="537.716037037037"/>
      <point x="218.999" y="583.1111111111111"/>
      <point x="279.96296296296293" y="583.1111111111111" type="curve" smooth="yes"/>
      <point x="344.6443703703704" y="583.1111111111111"/>
      <point x="389.8888888888889" y="535.1728518518519"/>
      <point x="389.8888888888889" y="470.6296296296296" type="curve" smooth="yes"/>
      <point x="389.8888888888889" y="410.1358148148148"/>
      <point x="343.6073333333333" y="362.25925925925924"/>
    </contour>
  </outline>
</glyph>
<glyph name="less" format="2">
  <advance width="524.9629629629629"/>
  <unicode hex="003C"/>
  <outline>
    <contour>
      <point x="426.4074074074074" y="-10.444444444444443" type="line"/>
      <point x="488.85185185185185" y="107.88888888888889" type="line"/>
      <point x="146.22222222222223" y="290.77777777777777" type="line"/>
      <point x="146.22222222222223" y="221.85185185185185" type="line"/>
      <point x="488.85185185185185" y="404.74074074074076" type="line"/>
      <point x="426.4074074074074" y="523.074074074074" type="line"/>
      <point x="42.77777777777778" y="303.55555555555554" type="line"/>
      <point x="42.77777777777778" y="209.07407407407408" type="line"/>
    </contour>
  </outline>
</glyph>
<glyph name="equal" format="2">
  <advance width="614.1481481481482"/>
  <unicode hex="003D"/>
  <outline>
    <contour>
      <point x="64.44444444444444" y="326.18518518518516" type="line"/>
      <point x="549.7037037037037" y="326.18518518518516" type="line"/>
      <point x="549.7037037037037" y="449.8888888888889" type="line"/>
      <point x="64.44444444444444" y="449.8888888888889" type="line"/>
    </contour>
    <contour>
      <point x="64.44444444444444" y="113.11111111111111" type="line"/>
      <point x="549.7037037037037" y="113.11111111111111" type="line"/>
      <point x="549.7037037037037" y="236.2962962962963" type="line"/>
      <point x="64.44444444444444" y="236.2962962962963" type="line"/>
    </contour>
  </outline>
</glyph>
<glyph name="greater" format="2">
  <advance width="526.0"/>
  <unicode hex="003E"/>
  <outline>
    <contour>
      <point x="103.66666666666667" y="-16.0" type="line"/>
      <point x="496.0" y="208.33333333333334" type="line"/>
      <point x="496.0" y="308.0" type="line"/>
      <point x="103.66666666666667" y="532.3333333333334" type="line"/>
      <point x="35.66666666666667" y="397.3333333333333" type="line"/>
      <point x="372.0" y="223.33333333333334" type="line"/>
      <point x="372.0" y="293.0" type="line"/>
      <point x="35.66666666666667" y="119.0" type="line"/>
    </contour>
  </outline>
</glyph>
<glyph name="question" format="2">
  <advance width="531.7037037037037"/>
  <unicode hex="003F"/>
  <outline>
    <contour>
      <point x="194.92592592592592" y="235.07407407407408" type="line"/>
      <point x="279.6296296296296" y="235.07407407407408" type="line"/>
      <point x="290.5922962962963" y="281.6131851851852" type="line"/>
      <point x="406.6391111111111" y="317.66755555555557"/>
      <point x="491.7037037037037" y="413.08933333333334"/>
      <point x="491.7037037037037" y="511.0" type="curve" smooth="yes"/>
      <point x="491.7037037037037" y="626.2100370370371"/>
      <point x="390.54303703703704" y="714.2962962962963"/>
      <point x="260.0740740740741" y="714.2962962962963" type="curve" smooth="yes"/>
      <point x="169.55522222222223" y="714.2962962962963"/>
      <point x="83.34566666666666" y="661.8518518518518"/>
      <point x="23.444444444444443" y="570.0" type="curve"/>
      <point x="127.33333333333333" y="474.74074074074076" type="line"/>
      <point x="164.61744444444446" y="544.6172962962963"/>
      <point x="210.86437037037038" y="574.925925925926"/>
      <point x="256.81481481481484" y="574.925925925926" type="curve" smooth="yes"/>
      <point x="305.39522222222223" y="574.925925925926"/>
      <point x="340.18518518518516" y="546.7162222222222"/>
      <point x="340.18518518518516" y="504.25925925925924" type="curve" smooth="yes"/>
      <point x="340.18518518518516" y="434.24674074074073"/>
      <point x="266.53103703703704" y="394.0495555555555"/>
      <point x="163.62962962962962" y="367.8888888888889" type="curve"/>
    </contour>
    <contour>
      <point x="158.96296296296296" y="76.03703703703704" type="curve" smooth="yes"/>
      <point x="158.96296296296296" y="20.333333333333332"/>
      <point x="189.41959259259258" y="-11.0"/>
      <point x="242.40740740740742" y="-11.0" type="curve" smooth="yes"/>
      <point x="292.0864074074074" y="-11.0"/>
      <point x="325.85185185185185" y="24.975148148148147"/>
      <point x="325.85185185185185" y="76.03703703703704" type="curve" smooth="yes"/>
      <point x="325.85185185185185" y="131.74074074074073"/>
      <point x="295.39522222222223" y="163.07407407407408"/>
      <point x="242.40740740740742" y="163.07407407407408" type="curve" smooth="yes"/>
      <point x="192.72840740740742" y="163.07407407407408"/>
      <point x="158.96296296296296" y="127.09892592592593"/>
    </contour>
  </outline>
</glyph>
<glyph name="at" format="2">
  <advance width="965.0"/>
  <unicode hex="0040"/>
  <outline>
    <contour>
      <point x="414.0" y="-162.0" type="curve" smooth="yes"/>
      <point x="494.0" y="-162.0"/>
      <point x="551.667" y="-149.0"/>
      <point x="669.0" y="-89.0" type="curve"/>
      <point x="632.0" y="-22.0" type="line"/>
      <point x="556.0" y="-63.0"/>
      <point x="511.0" y="-82.0"/>
      <point x="417.0" y="-82.0" type="curve" smooth="yes"/>
      <point x="229.0" y="-82.0"/>
      <point x="124.0" y="26.333"/>
      <point x="124.0" y="209.0" type="curve" smooth="yes"/>
      <point x="124.0" y="472.6741111111111"/>
      <point x="296.7262962962963" y="631.4444444444445"/>
      <point x="570.074074074074" y="631.4444444444445" type="curve" smooth="yes"/>
      <point x="740.6146296296296" y="631.4444444444445"/>
      <point x="842.0" y="541.2357777777778"/>
      <point x="842.0" y="391.0" type="curve" smooth="yes"/>
      <point x="842.0" y="258.8024814814815"/>
      <point x="784.3386296296296" y="146.62962962962962"/>
      <point x="709.6296296296297" y="146.62962962962962" type="curve" smooth="yes"/>
      <point x="686.2225555555556" y="146.62962962962962"/>
      <point x="665.4444444444445" y="160.2962962962963"/>
      <point x="671.4444444444445" y="193.4814814814815" type="curve" smooth="yes"/>
      <point x="729.1851851851852" y="508.7037037037037" type="line"/>
      <point x="592.074074074074" y="508.7037037037037" type="line"/>
      <point x="563.6666666666666" y="359.8888888888889" type="line"/>
      <point x="592.9629629629629" y="392.4074074074074" type="line"/>
      <point x="586.2954814814815" y="468.2693703703704"/>
      <point x="540.2959629629629" y="519.6296296296297"/>
      <point x="478.962962962963" y="519.6296296296297" type="curve" smooth="yes"/>
      <point x="340.81481481481484" y="519.6296296296297"/>
      <point x="237.07407407407408" y="365.81481481481484"/>
      <point x="237.07407407407408" y="237.0" type="curve" smooth="yes"/>
      <point x="237.07407407407408" y="126.43225925925925"/>
      <point x="304.03974074074074" y="50.18518518518518"/>
      <point x="394.7037037037037" y="50.18518518518518" type="curve" smooth="yes"/>
      <point x="474.7037037037037" y="50.18518518518518"/>
      <point x="537.3948888888889" y="104.76525925925925"/>
      <point x="568.7037037037037" y="202.0" type="curve"/>
      <point x="545.074074074074" y="222.0" type="line"/>
      <point x="543.5185185185185" y="198.0"/>
      <point x="539.925925925926" y="175.0"/>
      <point x="539.925925925926" y="153.07407407407408" type="curve" smooth="yes"/>
      <point x="539.5007777777778" y="91.26662962962962"/>
      <point x="593.3605555555556" y="50.18518518518518"/>
      <point x="669.0" y="50.18518518518518" type="curve" smooth="yes"/>
      <point x="813.0" y="50.18518518518518"/>
      <point x="925.0" y="212.09877777777777"/>
      <point x="925.0" y="396.0" type="curve" smooth="yes"/>
      <point x="925.0" y="582.667"/>
      <point x="788.0" y="710.0"/>
      <point x="576.0" y="710.0" type="curve" smooth="yes"/>
      <point x="279.0" y="710.0"/>
      <point x="40.0" y="519.0"/>
      <point x="40.0" y="206.0" type="curve" smooth="yes"/>
      <point x="40.0" y="-14.0"/>
      <point x="180.667" y="-162.0"/>
    </contour>
    <contour>
      <point x="433.5925925925926" y="165.03703703703704" type="curve" smooth="yes"/>
      <point x="401.1975185185185" y="165.03703703703704"/>
      <point x="380.96296296296293" y="193.52614814814814"/>
      <point x="380.96296296296293" y="240.1851851851852" type="curve" smooth="yes"/>
      <point x="380.96296296296293" y="327.7902962962963"/>
      <point x="432.3396666666667" y="410.0740740740741"/>
      <point x="497.8888888888889" y="410.0740740740741" type="curve" smooth="yes"/>
      <point x="540.0495555555556" y="410.0740740740741"/>
      <point x="561.5925925925926" y="383.8888888888889"/>
      <point x="561.5925925925926" y="342.48148148148147" type="curve" smooth="yes"/>
      <point x="561.5925925925926" y="327.9259259259259"/>
      <point x="559.0673333333333" y="312.84948148148146"/>
      <point x="555.5555555555555" y="293.22222222222223" type="curve" smooth="yes"/>
      <point x="544.1248888888889" y="224.02885185185187"/>
      <point x="487.89696296296296" y="165.03703703703704"/>
    </contour>
  </outline>
</glyph>
<glyph name="A" format="2">
  <advance width="693.3333333333334"/>
  <unicode hex="0041"/>
  <anchor x="346.6666666666667" y="0.0" name="bottom"/>
  <anchor x="645.6666666666666" y="0.0" name="ogonek"/>
  <anchor x="346.6666666666667" y="700.0" name="top"/>
  <outline>
    <contour>
      <point x="-5.0" y="0.0" type="line"/>
      <point x="171.66666666666666" y="0.0" type="line"/>
      <point x="299.3333333333333" y="343.33333333333337" type="line" smooth="yes"/>
      <point x="325.0" y="412.6666666666667"/>
      <point x="343.77799999999996" y="464.0"/>
      <point x="360.6666666666667" y="535.0" type="curve"/>
      <point x="330.3333333333333" y="534.6666666666666" type="line"/>
      <point x="344.5336666666667" y="471.26033333333334"/>
      <point x="367.0" y="406.3333333333333"/>
      <point x="389.3333333333333" y="344.6666666666667" type="curve" smooth="yes"/>
      <point x="517.3333333333334" y="0.0" type="line"/>
      <point x="698.3333333333334" y="0.0" type="line"/>
      <point x="422.6666666666667" y="700.0" type="line"/>
      <point x="272.6666666666667" y="700.0" type="line"/>
    </contour>
    <contour>
      <point x="128.33333333333334" y="127.33333333333334" type="line"/>
      <point x="559.6666666666666" y="127.33333333333334" type="line"/>
      <point x="506.3333333333333" y="260.0" type="line"/>
      <point x="183.66666666666666" y="260.0" type="line"/>
    </contour>
  </outline>
</glyph>
<glyph name="B" format="2">
  <advance width="697.3703703703703"/>
  <unicode hex="0042"/>
  <anchor x="349.18518518518516" y="0.0" name="bottom"/>
  <anchor x="349.18518518518516" y="700.0" name="top"/>
  <outline>
    <contour>
      <point x="89.33333333333333" y="0.0" type="line"/>
      <point x="405.77777777777777" y="0.0" type="line" smooth="yes"/>
      <point x="552.4447777777779" y="0.0"/>
      <point x="653.2222222222222" y="71.06174074074075"/>
      <point x="653.2222222222222" y="210.8148148148148" type="curve" smooth="yes"/>
      <point x="653.2222222222222" y="304.48148148148147"/>
      <point x="591.1851851851852" y="370.037037037037"/>
      <point x="499.14814814814815" y="391.51851851851853" type="curve"/>
      <point x="500.5925925925926" y="372.0" type="line"/>
      <point x="574.6296296296297" y="391.51851851851853"/>
      <point x="616.2222222222222" y="447.51851851851853"/>
      <point x="616.2222222222222" y="527.3703703703703" type="curve" smooth="yes"/>
      <point x="616.2222222222222" y="636.2595925925926"/>
      <point x="538.7902962962963" y="700.0"/>
      <point x="395.77777777777777" y="700.0" type="curve" smooth="yes"/>
      <point x="89.33333333333333" y="700.0" type="line"/>
    </contour>
    <contour>
      <point x="241.62962962962962" y="135.77777777777777" type="line"/>
      <point x="241.62962962962962" y="294.44444444444446" type="line"/>
      <point x="394.77777777777777" y="294.44444444444446" type="line" smooth="yes"/>
      <point x="456.85151851851856" y="294.44444444444446"/>
      <point x="495.0740740740741" y="266.65433333333334"/>
      <point x="495.0740740740741" y="218.11111111111111" type="curve" smooth="yes"/>
      <point x="495.0740740740741" y="164.92559259259258"/>
      <point x="459.92559259259264" y="135.77777777777777"/>
      <point x="399.77777777777777" y="135.77777777777777" type="curve" smooth="yes"/>
    </contour>
    <contour>
      <point x="241.62962962962962" y="417.7037037037037" type="line"/>
      <point x="241.62962962962962" y="564.2222222222222" type="line"/>
      <point x="367.6666666666667" y="564.2222222222222" type="line" smooth="yes"/>
      <point x="429.49399999999997" y="564.2222222222222"/>
      <point x="460.0740740740741" y="536.8396666666666"/>
      <point x="460.0740740740741" y="490.962962962963" type="curve" smooth="yes"/>
      <point x="460.0740740740741" y="446.5678888888889"/>
      <point x="428.43225925925924" y="417.7037037037037"/>
      <point x="374.85185185185185" y="417.7037037037037" type="curve" smooth="yes"/>
    </contour>
  </outline>
</glyph>
<glyph name="C" format="2">
  <advance width="696.3333333333334"/>
  <unicode hex="0043"/>
  <anchor x="400.6666666666667" y="0.0" name="bottom"/>
  <anchor x="414.0" y="700.0" name="top"/>
  <outline>
    <contour>
      <point x="410.0" y="-10.0" type="curve" smooth="yes"/>
      <point x="513.111" y="-10.0"/>
      <point x="621.7776666666666" y="31.111"/>
      <point x="672.0" y="86.66666666666667" type="curve"/>
      <point x="585.3333333333334" y="224.0" type="line"/>
      <point x="548.889" y="184.44433333333333"/>
      <point x="492.889" y="155.66666666666666"/>
      <point x="430.6666666666667" y="155.66666666666666" type="curve" smooth="yes"/>
      <point x="308.0" y="155.66666666666666"/>
      <point x="227.33333333333331" y="232.667"/>
      <point x="227.33333333333331" y="351.3333333333333" type="curve" smooth="yes"/>
      <point x="227.33333333333331" y="473.11133333333333"/>
      <point x="310.7776666666667" y="549.3333333333334"/>
      <point x="415.6666666666667" y="549.3333333333334" type="curve" smooth="yes"/>
      <point x="480.111" y="549.3333333333334"/>
      <point x="529.2223333333334" y="521.3336666666667"/>
      <point x="567.0" y="478.6666666666667" type="curve"/>
      <point x="677.0" y="604.3333333333334" type="line"/>
      <point x="614.3336666666667" y="675.889"/>
      <point x="515.6663333333333" y="715.3333333333334"/>
      <point x="417.0" y="715.3333333333334" type="curve" smooth="yes"/>
      <point x="200.55566666666667" y="715.3333333333334"/>
      <point x="42.666666666666664" y="562.222"/>
      <point x="42.666666666666664" y="353.3333333333333" type="curve" smooth="yes"/>
      <point x="42.666666666666664" y="140.44466666666668"/>
      <point x="194.889" y="-10.0"/>
    </contour>
  </outline>
</glyph>
<glyph name="D" format="2">
  <advance width="776.0"/>
  <unicode hex="0044"/>
  <anchor x="388.0" y="0.0" name="bottom"/>
  <anchor x="202.0" y="350.0" name="center"/>
  <anchor x="388.0" y="700.0" name="top"/>
  <outline>
    <contour>
      <point x="86.0" y="0.0" type="line"/>
      <point x="382.6666666666667" y="0.0" type="line" smooth="yes"/>
      <point x="590.2223333333334" y="0.0"/>
      <point x="733.3333333333334" y="144.22233333333332"/>
      <point x="733.3333333333334" y="350.0" type="curve" smooth="yes"/>
      <point x="733.3333333333334" y="555.3333333333334"/>
      <point x="589.778" y="700.0"/>
      <point x="382.6666666666667" y="700.0" type="curve" smooth="yes"/>
      <point x="86.0" y="700.0" type="line"/>
    </contour>
    <contour>
      <point x="266.0" y="119.66666666666666" type="line"/>
      <point x="266.0" y="578.3333333333334" type="line"/>
      <point x="237.33333333333331" y="542.6666666666666" type="line"/>
      <point x="377.6666666666667" y="542.6666666666666" type="line" smooth="yes"/>
      <point x="482.11133333333333" y="542.6666666666666"/>
      <point x="551.3333333333334" y="464.6666666666667"/>
      <point x="551.3333333333334" y="350.0" type="curve" smooth="yes"/>
      <point x="551.3333333333334" y="234.889"/>
      <point x="482.55566666666664" y="157.33333333333331"/>
      <point x="377.6666666666667" y="157.33333333333331" type="curve" smooth="yes"/>
      <point x="240.33333333333331" y="157.33333333333331" type="line"/>
    </contour>
  </outline>
</glyph>
<glyph name="E" format="2">
  <advance width="640.0"/>
  <unicode hex="0045"/>
  <anchor x="320.0" y="0.0" name="bottom"/>
  <anchor x="538.8518518518518" y="0.0" name="ogonek"/>
  <anchor x="320.0" y="700.0" name="top"/>
  <anchor x="20.0" y="700.0" name="topleft"/>
  <outline>
    <contour>
      <point x="89.33333333333333" y="0.0" type="line"/>
      <point x="578.4814814814815" y="0.0" type="line"/>
      <point x="578.4814814814815" y="138.1851851851852" type="line"/>
      <point x="245.0" y="138.1851851851852" type="line"/>
      <point x="245.0" y="561.8148148148148" type="line"/>
      <point x="569.8148148148148" y="561.8148148148148" type="line"/>
      <point x="569.8148148148148" y="700.0" type="line"/>
      <point x="89.33333333333333" y="700.0" type="line"/>
    </contour>
    <contour>
      <point x="164.33333333333334" y="290.14814814814815" type="line"/>
      <point x="523.4814814814815" y="290.14814814814815" type="line"/>
      <point x="523.4814814814815" y="423.037037037037" type="line"/>
      <point x="164.33333333333334" y="423.037037037037" type="line"/>
    </contour>
  </outline>
</glyph>
<glyph name="F" format="2">
  <advance width="615.4814814814815"/>
  <unicode hex="0046"/>
  <anchor x="307.74074074074076" y="0.0" name="bottom"/>
  <anchor x="307.74074074074076" y="700.0" name="top"/>
  <outline>
    <contour>
      <point x="89.33333333333333" y="0.0" type="line"/>
      <point x="249.33333333333331" y="0.0" type="line"/>
      <point x="249.33333333333331" y="700.0" type="line"/>
      <point x="89.33333333333333" y="700.0" type="line"/>
    </contour>
    <contour>
      <point x="163.8148148148148" y="272.962962962963" type="line"/>
      <point x="525.7777777777778" y="272.962962962963" type="line"/>
      <point x="525.7777777777778" y="408.74074074074076" type="line"/>
      <point x="163.8148148148148" y="408.74074074074076" type="line"/>
    </contour>
    <contour>
      <point x="163.8148148148148" y="557.4814814814815" type="line"/>
      <point x="566.925925925926" y="557.4814814814815" type="line"/>
      <point x="566.925925925926" y="700.0" type="line"/>
      <point x="163.8148148148148" y="700.0" type="line"/>
    </contour>
  </outline>
</glyph>
<glyph name="G" format="2">
  <advance width="779.0"/>
  <unicode hex="0047"/>
  <anchor x="389.74074074074076" y="0.0" name="bottom"/>
  <anchor x="389.74074074074076" y="700.0" name="top"/>
  <outline>
    <contour>
      <point x="412.44444444444446" y="-10.0" type="curve" smooth="yes"/>
      <point x="598.1294444444444" y="-10.0"/>
      <point x="737.4444444444445" y="117.06125925925926"/>
      <point x="737.4444444444445" y="299.0" type="curve" smooth="yes"/>
      <point x="737.4444444444445" y="317.667"/>
      <point x="735.8026296296297" y="364.7404074074074"/>
      <point x="732.4444444444445" y="387.4074074074074" type="curve"/>
      <point x="406.0740740740741" y="387.4074074074074" type="line"/>
      <point x="406.0740740740741" y="258.74074074074076" type="line"/>
      <point x="602.7407407407408" y="258.74074074074076" type="line"/>
      <point x="581.4814814814815" y="289.1111111111111" type="line"/>
      <point x="581.4814814814815" y="264.77777777777777" type="line" smooth="yes"/>
      <point x="581.4814814814815" y="190.4074074074074"/>
      <point x="511.95044444444443" y="133.03703703703704"/>
      <point x="424.5925925925926" y="133.03703703703704" type="curve" smooth="yes"/>
      <point x="303.210037037037" y="133.03703703703704"/>
      <point x="208.07407407407408" y="229.09892592592593"/>
      <point x="208.07407407407408" y="352.4074074074074" type="curve" smooth="yes"/>
      <point x="208.07407407407408" y="477.0987777777778"/>
      <point x="298.62929629629633" y="569.7037037037037"/>
      <point x="418.18518518518516" y="569.7037037037037" type="curve" smooth="yes"/>
      <point x="486.77811111111106" y="569.7037037037037"/>
      <point x="542.9629629629629" y="540.9996666666667"/>
      <point x="593.3333333333334" y="493.2962962962963" type="curve"/>
      <point x="691.2592592592592" y="596.6296296296297" type="line"/>
      <point x="634.7655925925926" y="664.0865925925926"/>
      <point x="533.3580370370371" y="712.7407407407408"/>
      <point x="419.6296296296296" y="712.7407407407408" type="curve" smooth="yes"/>
      <point x="200.86403703703704" y="712.7407407407408"/>
      <point x="44.148148148148145" y="558.8763703703704"/>
      <point x="44.148148148148145" y="352.4074074074074" type="curve" smooth="yes"/>
      <point x="44.148148148148145" y="145.24674074074073"/>
      <point x="191.11111111111111" y="-10.0"/>
    </contour>
  </outline>
</glyph>
<glyph name="H" format="2">
  <advance width="782.3333333333334"/>
  <unicode hex="0048"/>
  <anchor x="391.6666666666667" y="0.0" name="bottom"/>
  <anchor x="391.6666666666667" y="350.0" name="center"/>
  <anchor x="391.6666666666667" y="700.0" name="top"/>
  <anchor x="20.0" y="700.0" name="topleft"/>
  <outline>
    <contour>
      <point x="516.3333333333334" y="0.0" type="line"/>
      <point x="696.3333333333334" y="0.0" type="line"/>
      <point x="696.3333333333334" y="700.0" type="line"/>
      <point x="516.3333333333334" y="700.0" type="line"/>
    </contour>
    <contour>
      <point x="86.0" y="0.0" type="line"/>
      <point x="266.0" y="0.0" type="line"/>
      <point x="266.0" y="700.0" type="line"/>
      <point x="86.0" y="700.0" type="line"/>
    </contour>
    <contour>
      <point x="155.66666666666666" y="269.0" type="line"/>
      <point x="613.6666666666666" y="269.0" type="line"/>
      <point x="613.6666666666666" y="429.0" type="line"/>
      <point x="156.33333333333334" y="429.0" type="line"/>
    </contour>
  </outline>
</glyph>
<glyph name="I" format="2">
  <advance width="567.3333333333334"/>
  <unicode hex="0049"/>
  <anchor x="283.6666666666667" y="0.0" name="bottom"/>
  <anchor x="405.6666666666667" y="0.0" name="ogonek"/>
  <anchor x="283.6666666666667" y="700.0" name="top"/>
  <anchor x="20.0" y="700.0" name="topleft"/>
  <outline>
    <contour>
      <point x="74.0" y="0.0" type="line"/>
      <point x="493.3333333333333" y="0.0" type="line"/>
      <point x="493.3333333333333" y="150.0" type="line"/>
      <point x="373.66666666666663" y="150.0" type="line"/>
      <point x="373.66666666666663" y="550.0" type="line"/>
      <point x="493.3333333333333" y="550.0" type="line"/>
      <point x="493.3333333333333" y="700.0" type="line"/>
      <point x="74.0" y="700.0" type="line"/>
      <point x="74.0" y="550.0" type="line"/>
      <point x="193.66666666666666" y="550.0" type="line"/>
      <point x="193.66666666666666" y="150.0" type="line"/>
      <point x="74.0" y="150.0" type="line"/>
    </contour>
  </outline>
</glyph>
<glyph name="J" format="2">
  <advance width="661.2592592592592"/>
  <unicode hex="004A"/>
  <anchor x="330.6296296296296" y="0.0" name="bottom"/>
  <anchor x="409.14814814814815" y="700.0" name="top"/>
  <outline>
    <contour>
      <point x="260.3333333333333" y="-10.0" type="curve" smooth="yes"/>
      <point x="391.14848148148144" y="-10.0"/>
      <point x="488.81481481481484" y="78.62929629629629"/>
      <point x="488.81481481481484" y="213.0" type="curve" smooth="yes"/>
      <point x="488.81481481481484" y="559.5555555555555" type="line"/>
      <point x="596.8148148148148" y="559.5555555555555" type="line"/>
      <point x="596.8148148148148" y="700.0" type="line"/>
      <point x="204.1851851851852" y="700.0" type="line"/>
      <point x="204.1851851851852" y="559.5555555555555" type="line"/>
      <point x="332.6666666666667" y="559.5555555555555" type="line"/>
      <point x="332.6666666666667" y="231.1851851851852" type="line" smooth="yes"/>
      <point x="332.6666666666667" y="174.4938148148148"/>
      <point x="297.6666666666667" y="135.44444444444446"/>
      <point x="244.92592592592592" y="135.44444444444446" type="curve" smooth="yes"/>
      <point x="203.93844444444446" y="135.44444444444446"/>
      <point x="174.04937037037038" y="154.59225925925927"/>
      <point x="133.40740740740742" y="212.07407407407408" type="curve"/>
      <point x="40.851851851851855" y="116.03703703703704" type="line"/>
      <point x="82.0865925925926" y="38.111111111111114"/>
      <point x="158.75307407407408" y="-10.0"/>
    </contour>
  </outline>
</glyph>
<glyph name="K" format="2">
  <advance width="737.7777777777778"/>
  <unicode hex="004B"/>
  <anchor x="368.8888888888889" y="0.0" name="bottom"/>
  <anchor x="368.8888888888889" y="700.0" name="top"/>
  <outline>
    <contour>
      <point x="208.22222222222223" y="205.74074074074073" type="line"/>
      <point x="712.1851851851852" y="700.0" type="line"/>
      <point x="520.5925925925926" y="700.0" type="line"/>
      <point x="169.96296296296296" y="345.51851851851853" type="line"/>
    </contour>
    <contour>
      <point x="89.33333333333333" y="0.0" type="line"/>
      <point x="249.33333333333331" y="0.0" type="line"/>
      <point x="249.33333333333331" y="700.0" type="line"/>
      <point x="89.33333333333333" y="700.0" type="line"/>
    </contour>
    <contour>
      <point x="541.2962962962963" y="0.0" type="line"/>
      <point x="729.2592592592592" y="0.0" type="line"/>
      <point x="388.9259259259259" y="439.037037037037" type="line"/>
      <point x="280.03703703703707" y="345.0" type="line"/>
    </contour>
  </outline>
</glyph>
<glyph name="L" format="2">
  <advance width="607.1851851851852"/>
  <unicode hex="004C"/>
  <anchor x="303.85185185185185" y="0.0" name="bottom"/>
  <anchor x="171.2962962962963" y="350.0" name="center"/>
  <anchor x="170.8148148148148" y="700.0" name="top"/>
  <anchor x="329.5925925925926" y="700.0" name="topright"/>
  <outline>
    <contour>
      <point x="89.33333333333333" y="0.0" type="line"/>
      <point x="563.8518518518518" y="0.0" type="line"/>
      <point x="563.8518518518518" y="142.51851851851853" type="line"/>
      <point x="249.33333333333331" y="142.51851851851853" type="line"/>
      <point x="249.33333333333331" y="700.0" type="line"/>
      <point x="89.33333333333333" y="700.0" type="line"/>
    </contour>
  </outline>
</glyph>
<glyph name="M" format="2">
  <advance width="875.5555555555555"/>
  <unicode hex="004D"/>
  <anchor x="437.77777777777777" y="0.0" name="bottom"/>
  <anchor x="437.77777777777777" y="700.0" name="top"/>
  <outline>
    <contour>
      <point x="89.33333333333333" y="0.0" type="line"/>
      <point x="245.48148148148147" y="0.0" type="line"/>
      <point x="245.48148148148147" y="229.22222222222223" type="line" smooth="yes"/>
      <point x="245.48148148148147" y="358.55522222222226"/>
      <point x="240.14848148148147" y="444.8892222222222"/>
      <point x="225.48148148148147" y="534.2222222222222" type="curve"/>
      <point x="207.74074074074073" y="482.6296296296296" type="line"/>
      <point x="402.77777777777777" y="175.0" type="line"/>
      <point x="468.77777777777777" y="175.0" type="line"/>
      <point x="668.8888888888889" y="484.7037037037037" type="line"/>
      <point x="650.0740740740741" y="534.2222222222222" type="line"/>
      <point x="635.407074074074" y="439.55522222222226"/>
      <point x="630.0740740740741" y="349.22222222222223"/>
      <point x="630.0740740740741" y="229.22222222222223" type="curve" smooth="yes"/>
      <point x="630.0740740740741" y="0.0" type="line"/>
      <point x="786.2222222222222" y="0.0" type="line"/>
      <point x="786.2222222222222" y="700.0" type="line"/>
      <point x="647.7037037037037" y="700.0" type="line"/>
      <point x="389.7037037037037" y="286.0" type="line"/>
      <point x="488.85185185185185" y="285.0" type="line"/>
      <point x="233.85185185185185" y="700.0" type="line"/>
      <point x="89.33333333333333" y="700.0" type="line"/>
    </contour>
  </outline>
</glyph>
<glyph name="N" format="2">
  <advance width="809.0"/>
  <unicode hex="004E"/>
  <anchor x="405.0" y="0.0" name="bottom"/>
  <anchor x="405.0" y="700.0" name="top"/>
  <outline>
    <contour>
      <point x="86.0" y="0.0" type="line"/>
      <point x="260.6666666666667" y="0.0" type="line"/>
      <point x="260.6666666666667" y="224.33333333333334" type="line" smooth="yes"/>
      <point x="260.6666666666667" y="316.16766666666666"/>
      <point x="257.1983333333333" y="350.17900000000003"/>
      <point x="240.66666666666666" y="499.33333333333337" type="curve"/>
      <point x="183.0" y="510.6666666666667" type="line"/>
      <point x="560.0" y="0.0" type="line"/>
      <point x="723.0" y="0.0" type="line"/>
      <point x="723.0" y="700.0" type="line"/>
      <point x="548.3333333333334" y="700.0" type="line"/>
      <point x="548.3333333333334" y="536.6666666666666" type="line" smooth="yes"/>
      <point x="547.4446666666666" y="398.889"/>
      <point x="553.2223333333334" y="335.111"/>
      <point x="568.3333333333334" y="218.66666666666666" type="curve"/>
      <point x="604.3333333333334" y="212.33333333333331" type="line"/>
      <point x="247.0" y="700.0" type="line"/>
      <point x="86.0" y="700.0" type="line"/>
    </contour>
  </outline>
</glyph>
<glyph name="O" format="2">
  <advance width="816.6666666666666"/>
  <unicode hex="004F"/>
  <anchor x="408.3333333333333" y="0.0" name="bottom"/>
  <anchor x="408.3333333333333" y="350.0" name="center"/>
  <anchor x="688.3333333333334" y="6.666666666666666" name="ogonek"/>
  <anchor x="408.3333333333333" y="700.0" name="top"/>
  <anchor x="20.0" y="700.0" name="topleft"/>
  <anchor x="796.6666666666666" y="700.0" name="topright"/>
  <outline>
    <contour>
      <point x="408.3333333333333" y="-10.0" type="curve" smooth="yes"/>
      <point x="620.7776666666666" y="-10.0"/>
      <point x="774.0" y="143.55566666666667"/>
      <point x="774.0" y="353.3333333333333" type="curve" smooth="yes"/>
      <point x="774.0" y="563.111"/>
      <point x="620.7776666666666" y="716.6666666666666"/>
      <point x="408.3333333333333" y="716.6666666666666" type="curve" smooth="yes"/>
      <point x="195.889" y="716.6666666666666"/>
      <point x="42.666666666666664" y="563.5556666666666"/>
      <point x="42.666666666666664" y="353.3333333333333" type="curve" smooth="yes"/>
      <point x="42.666666666666664" y="143.111"/>
      <point x="195.889" y="-10.0"/>
    </contour>
    <contour>
      <point x="408.3333333333333" y="158.33333333333331" type="curve" smooth="yes"/>
      <point x="302.55533333333335" y="158.33333333333331"/>
      <point x="226.0" y="240.0"/>
      <point x="226.0" y="353.3333333333333" type="curve" smooth="yes"/>
      <point x="226.0" y="466.6666666666667"/>
      <point x="302.55533333333335" y="548.3333333333334"/>
      <point x="408.3333333333333" y="548.3333333333334" type="curve" smooth="yes"/>
      <point x="513.667" y="548.3333333333334"/>
      <point x="590.6666666666666" y="466.2223333333333"/>
      <point x="590.6666666666666" y="353.3333333333333" type="curve" smooth="yes"/>
      <point x="590.6666666666666" y="240.44433333333333"/>
      <point x="513.667" y="158.33333333333331"/>
    </contour>
  </outline>
</glyph>
<glyph name="P" format="2">
  <advance width="657.5925925925926"/>
  <unicode hex="0050"/>
  <anchor x="329.037037037037" y="0.0" name="bottom"/>
  <anchor x="329.037037037037" y="700.0" name="top"/>
  <outline>
    <contour>
      <point x="89.33333333333333" y="0.0" type="line"/>
      <point x="249.33333333333331" y="0.0" type="line"/>
      <point x="249.33333333333331" y="239.11111111111111" type="line"/>
      <point x="388.77777777777777" y="239.11111111111111" type="line" smooth="yes"/>
      <point x="516.8763703703704" y="239.11111111111111"/>
      <point x="615.0" y="340.1232962962963"/>
      <point x="615.0" y="472.962962962963" type="curve" smooth="yes"/>
      <point x="615.0" y="602.5925925925926"/>
      <point x="516.8763703703704" y="700.0"/>
      <point x="388.77777777777777" y="700.0" type="curve" smooth="yes"/>
      <point x="89.33333333333333" y="700.0" type="line"/>
    </contour>
    <contour>
      <point x="247.4074074074074" y="381.6296296296296" type="line"/>
      <point x="247.4074074074074" y="557.4814814814815" type="line"/>
      <point x="368.48148148148147" y="557.4814814814815" type="line" smooth="yes"/>
      <point x="414.75307407407405" y="557.4814814814815"/>
      <point x="451.0740740740741" y="522.7404074074074"/>
      <point x="451.0740740740741" y="471.03703703703707" type="curve" smooth="yes"/>
      <point x="451.0740740740741" y="419.33366666666666"/>
      <point x="414.75307407407405" y="381.6296296296296"/>
      <point x="368.48148148148147" y="381.6296296296296" type="curve" smooth="yes"/>
    </contour>
  </outline>
</glyph>
<glyph name="Q" format="2">
  <advance width="816.6666666666666"/>
  <unicode hex="0051"/>
  <anchor x="408.3333333333333" y="0.0" name="bottom"/>
  <anchor x="408.3333333333333" y="700.0" name="top"/>
  <anchor x="408.3333333333333" y="350.0" name="center"/>
  <anchor x="688.3333333333334" y="6.666666666666666" name="ogonek"/>
  <anchor x="20.0" y="700.0" name="topleft"/>
  <anchor x="796.6666666666666" y="700.0" name="topright"/>
  <outline>
    <contour>
      <point x="615.6666666666666" y="-110.0" type="line"/>
      <point x="743.0" y="-15.333333333333336" type="line"/>
      <point x="477.6666666666667" y="346.6666666666667" type="line"/>
      <point x="347.3333333333333" y="255.0" type="line"/>
    </contour>
    <component base="O"/>
  </outline>
</glyph>
<glyph name="R" format="2">
  <advance width="703.0"/>
  <unicode hex="0052"/>
  <anchor x="352.0" y="0.0" name="bottom"/>
  <anchor x="335.3333333333333" y="700.0" name="top"/>
  <outline>
    <contour>
      <point x="86.0" y="0.0" type="line"/>
      <point x="256.6666666666667" y="0.0" type="line"/>
      <point x="256.6666666666667" y="243.0" type="line"/>
      <point x="404.0" y="243.0" type="line" smooth="yes"/>
      <point x="542.2223333333334" y="243.0"/>
      <point x="645.0" y="341.889"/>
      <point x="645.0" y="477.0" type="curve" smooth="yes"/>
      <point x="645.0" y="605.4443333333334"/>
      <point x="541.778" y="700.0"/>
      <point x="404.0" y="700.0" type="curve" smooth="yes"/>
      <point x="86.0" y="700.0" type="line"/>
    </contour>
    <contour>
      <point x="469.3333333333333" y="0.0" type="line"/>
      <point x="673.6666666666666" y="-0.33333333333333337" type="line"/>
      <point x="475.6666666666667" y="341.0" type="line"/>
      <point x="291.3333333333333" y="316.0" type="line"/>
    </contour>
    <contour>
      <point x="256.6666666666667" y="377.6666666666667" type="line"/>
      <point x="256.6666666666667" y="552.0" type="line"/>
      <point x="372.6666666666667" y="552.0" type="line" smooth="yes"/>
      <point x="433.111" y="552.0"/>
      <point x="468.3333333333333" y="518.4443333333334"/>
      <point x="468.3333333333333" y="466.0" type="curve" smooth="yes"/>
      <point x="468.3333333333333" y="413.111"/>
      <point x="437.111" y="377.6666666666667"/>
      <point x="384.6666666666667" y="377.6666666666667" type="curve" smooth="yes"/>
    </contour>
  </outline>
</glyph>
<glyph name="S" format="2">
  <advance width="635.3333333333334"/>
  <unicode hex="0053"/>
  <anchor x="338.0" y="0.0" name="bottom"/>
  <anchor x="331.3333333333333" y="700.0" name="top"/>
  <outline>
    <contour>
      <point x="321.3333333333333" y="-10.0" type="curve" smooth="yes"/>
      <point x="480.44433333333336" y="-10.0"/>
      <point x="597.6666666666666" y="72.00033333333333"/>
      <point x="597.6666666666666" y="218.66666666666666" type="curve" smooth="yes"/>
      <point x="597.6666666666666" y="347.55533333333335"/>
      <point x="498.33366666666666" y="409.44433333333336"/>
      <point x="351.6666666666667" y="438.3333333333333" type="curve" smooth="yes"/>
      <point x="295.2223333333333" y="449.44433333333336"/>
      <point x="233.66666666666666" y="467.889"/>
      <point x="233.66666666666666" y="509.6666666666667" type="curve" smooth="yes"/>
      <point x="233.66666666666666" y="545.6663333333333"/>
      <point x="269.49766666666665" y="565.0"/>
      <point x="325.6666666666667" y="565.0" type="curve" smooth="yes"/>
      <point x="381.7046666666667" y="565.0"/>
      <point x="435.25333333333333" y="540.615"/>
      <point x="477.6666666666667" y="490.6666666666667" type="curve"/>
      <point x="587.0" y="596.3333333333334" type="line"/>
      <point x="536.7776666666666" y="671.0"/>
      <point x="460.22200000000004" y="716.6666666666666"/>
      <point x="319.3333333333333" y="716.6666666666666" type="curve" smooth="yes"/>
      <point x="178.0" y="716.6666666666666"/>
      <point x="51.66666666666667" y="629.333"/>
      <point x="51.66666666666667" y="500.0" type="curve" smooth="yes"/>
      <point x="51.66666666666667" y="380.889"/>
      <point x="126.778" y="311.88866666666667"/>
      <point x="282.3333333333333" y="277.6666666666667" type="curve" smooth="yes"/>
      <point x="345.6666666666667" y="264.55566666666664"/>
      <point x="417.0" y="244.44433333333333"/>
      <point x="417.0" y="196.0" type="curve" smooth="yes"/>
      <point x="417.0" y="158.98366666666666"/>
      <point x="379.44466666666665" y="140.33333333333331"/>
      <point x="328.3333333333333" y="140.33333333333331" type="curve" smooth="yes"/>
      <point x="258.111" y="140.33333333333331"/>
      <point x="189.55566666666667" y="163.667"/>
      <point x="123.33333333333333" y="251.66666666666666" type="curve"/>
      <point x="15.333333333333336" y="130.0" type="line"/>
      <point x="84.22233333333334" y="41.99966666666666"/>
      <point x="177.333" y="-10.0"/>
    </contour>
  </outline>
</glyph>
<glyph name="T" format="2">
  <advance width="642.4444444444445"/>
  <unicode hex="0054"/>
  <anchor x="321.22222222222223" y="0.0" name="bottom"/>
  <anchor x="321.22222222222223" y="350.0" name="center"/>
  <anchor x="321.22222222222223" y="700.0" name="top"/>
  <outline>
    <contour>
      <point x="238.22222222222223" y="0.0" type="line"/>
      <point x="398.22222222222223" y="0.0" type="line"/>
      <point x="398.22222222222223" y="557.4814814814815" type="line"/>
      <point x="609.8518518518518" y="557.4814814814815" type="line"/>
      <point x="609.8518518518518" y="700.0" type="line"/>
      <point x="32.592592592592595" y="700.0" type="line"/>
      <point x="32.592592592592595" y="557.4814814814815" type="line"/>
      <point x="238.22222222222223" y="557.4814814814815" type="line"/>
    </contour>
  </outline>
</glyph>
<glyph name="U" format="2">
  <advance width="761.1851851851852"/>
  <unicode hex="0055"/>
  <anchor x="380.5925925925926" y="0.0" name="bottom"/>
  <anchor x="561.6666666666666" y="0.0" name="ogonek"/>
  <anchor x="380.5925925925926" y="700.0" name="top"/>
  <anchor x="741.1851851851852" y="700.0" name="topright"/>
  <outline>
    <contour>
      <point x="380.5925925925926" y="-6.0" type="curve" smooth="yes"/>
      <point x="552.2469259259259" y="-6.0"/>
      <point x="677.0370370370371" y="109.69118518518519"/>
      <point x="677.0370370370371" y="269.0" type="curve" smooth="yes"/>
      <point x="677.0370370370371" y="700.5185185185185" type="line"/>
      <point x="521.0740740740741" y="700.5185185185185" type="line"/>
      <point x="521.0740740740741" y="278.0" type="line" smooth="yes"/>
      <point x="521.0740740740741" y="197.20988888888888"/>
      <point x="460.0492222222222" y="136.51851851851853"/>
      <point x="380.5925925925926" y="136.51851851851853" type="curve" smooth="yes"/>
      <point x="305.1848518518519" y="136.51851851851853"/>
      <point x="245.11111111111111" y="197.20988888888888"/>
      <point x="245.11111111111111" y="278.0" type="curve" smooth="yes"/>
      <point x="245.11111111111111" y="700.5185185185185" type="line"/>
      <point x="84.14814814814815" y="700.5185185185185" type="line"/>
      <point x="84.14814814814815" y="269.0" type="line" smooth="yes"/>
      <point x="84.14814814814815" y="109.69118518518519"/>
      <point x="208.93825925925927" y="-6.0"/>
    </contour>
  </outline>
</glyph>
<glyph name="V" format="2">
  <advance width="712.5925925925926"/>
  <unicode hex="0056"/>
  <anchor x="356.55555555555554" y="0.0" name="bottom"/>
  <anchor x="356.55555555555554" y="700.0" name="top"/>
  <outline>
    <contour>
      <point x="287.14814814814815" y="0.0" type="line"/>
      <point x="423.44444444444446" y="0.0" type="line"/>
      <point x="704.9629629629629" y="700.0" type="line"/>
      <point x="539.0" y="700.0" type="line"/>
      <point x="404.7037037037037" y="332.2962962962963" type="line" smooth="yes"/>
      <point x="374.7284074074074" y="251.70337037037038"/>
      <point x="362.24674074074073" y="214.37037037037038"/>
      <point x="345.7037037037037" y="149.03703703703704" type="curve"/>
      <point x="376.037037037037" y="149.55555555555554" type="line"/>
      <point x="359.4441111111111" y="214.1977037037037"/>
      <point x="347.2841111111111" y="249.6292962962963"/>
      <point x="315.9259259259259" y="332.2962962962963" type="curve" smooth="yes"/>
      <point x="175.4074074074074" y="700.0" type="line"/>
      <point x="7.62962962962963" y="700.0" type="line"/>
    </contour>
  </outline>
</glyph>
<glyph name="W" format="2">
  <advance width="993.1111111111111"/>
  <unicode hex="0057"/>
  <anchor x="496.55555555555554" y="0.0" name="bottom"/>
  <anchor x="496.55555555555554" y="700.0" name="top"/>
  <outline>
    <contour>
      <point x="219.07407407407408" y="0.0" type="line"/>
      <point x="343.5925925925926" y="0.0" type="line"/>
      <point x="500.8888888888889" y="406.55555555555554" type="line"/>
      <point x="483.22222222222223" y="408.6296296296296" type="line"/>
      <point x="652.3333333333334" y="0.0" type="line"/>
      <point x="773.074074074074" y="0.0" type="line"/>
      <point x="985.4814814814815" y="700.0" type="line"/>
      <point x="824.7037037037037" y="700.0" type="line"/>
      <point x="716.2592592592592" y="322.2962962962963" type="line" smooth="yes"/>
      <point x="691.9878148148148" y="236.86403703703704"/>
      <point x="697.7777777777778" y="217.28411111111112"/>
      <point x="688.9629629629629" y="151.48148148148147" type="curve"/>
      <point x="709.6666666666666" y="155.11111111111111" type="line"/>
      <point x="702.4074074074074" y="207.11111111111111"/>
      <point x="692.8888888888889" y="257.3333333333333"/>
      <point x="669.0370370370371" y="321.25925925925924" type="curve" smooth="yes"/>
      <point x="563.8888888888889" y="604.0370370370371" type="line"/>
      <point x="434.14814814814815" y="604.0370370370371" type="line"/>
      <point x="326.9259259259259" y="321.25925925925924" type="line" smooth="yes"/>
      <point x="309.1972592592593" y="271.1784074074074"/>
      <point x="304.2814074074074" y="229.30848148148146"/>
      <point x="289.1111111111111" y="150.44444444444446" type="curve"/>
      <point x="311.85185185185185" y="149.92592592592592" type="line"/>
      <point x="308.22222222222223" y="183.97514814814815"/>
      <point x="298.789962962963" y="258.1232962962963"/>
      <point x="280.74074074074076" y="320.74074074074076" type="curve" smooth="yes"/>
      <point x="171.25925925925927" y="700.0" type="line"/>
      <point x="7.62962962962963" y="700.0" type="line"/>
    </contour>
  </outline>
</glyph>
<glyph name="X" format="2">
  <advance width="701.3703703703703"/>
  <unicode hex="0058"/>
  <anchor x="351.18518518518516" y="0.0" name="bottom"/>
  <anchor x="351.18518518518516" y="700.0" name="top"/>
  <outline>
    <contour>
      <point x="502.81481481481484" y="0.0" type="line"/>
      <point x="698.5555555555555" y="0.0" type="line"/>
      <point x="415.55555555555554" y="390.0" type="line"/>
      <point x="203.55555555555554" y="700.0" type="line"/>
      <point x="7.814814814814817" y="700.0" type="line"/>
      <point x="285.81481481481484" y="314.0" type="line"/>
    </contour>
    <contour>
      <point x="2.8148148148148167" y="0.0" type="line"/>
      <point x="188.55555555555554" y="0.0" type="line"/>
      <point x="395.55555555555554" y="302.0" type="line"/>
      <point x="269.81481481481484" y="381.0" type="line"/>
    </contour>
    <contour>
      <point x="431.55555555555554" y="325.0" type="line"/>
      <point x="688.5555555555555" y="700.0" type="line"/>
      <point x="502.81481481481484" y="700.0" type="line"/>
      <point x="306.81481481481484" y="401.0" type="line"/>
    </contour>
  </outline>
</glyph>
<glyph name="Y" format="2">
  <advance width="693.3333333333334"/>
  <unicode hex="0059"/>
  <anchor x="346.6666666666667" y="0.0" name="bottom"/>
  <anchor x="346.6666666666667" y="700.0" name="top"/>
  <anchor x="20.0" y="700.0" name="topleft"/>
  <outline>
    <contour>
      <point x="266.0" y="0.0" type="line"/>
      <point x="447.3333333333333" y="0.0" type="line"/>
      <point x="447.3333333333333" y="357.0" type="line"/>
      <point x="432.3333333333333" y="289.0" type="line"/>
      <point x="703.3333333333334" y="700.0" type="line"/>
      <point x="506.0" y="700.0" type="line"/>
      <point x="311.0" y="393.0" type="line"/>
      <point x="409.3333333333333" y="390.0" type="line"/>
      <point x="193.33333333333331" y="700.0" type="line"/>
      <point x="-10.0" y="700.0" type="line"/>
      <point x="273.0" y="300.0" type="line"/>
      <point x="266.0" y="349.0" type="line"/>
    </contour>
  </outline>
</glyph>
<glyph name="Z" format="2">
  <advance width="679.2222222222222"/>
  <unicode hex="005A"/>
  <anchor x="340.1111111111111" y="0.0" name="bottom"/>
  <anchor x="340.1111111111111" y="350.0" name="center"/>
  <anchor x="340.1111111111111" y="700.0" name="top"/>
  <outline>
    <contour>
      <point x="60.0" y="0.0" type="line"/>
      <point x="621.8148148148148" y="0.0" type="line"/>
      <point x="621.8148148148148" y="141.55555555555554" type="line"/>
      <point x="180.0" y="141.55555555555554" type="line"/>
      <point x="233.07407407407408" y="87.0" type="line"/>
      <point x="610.8148148148148" y="593.1111111111111" type="line"/>
      <point x="610.8148148148148" y="700.0" type="line"/>
      <point x="86.0" y="700.0" type="line"/>
      <point x="86.0" y="552.6666666666666" type="line"/>
      <point x="491.81481481481484" y="552.6666666666666" type="line"/>
      <point x="439.74074074074076" y="613.0" type="line"/>
      <point x="60.0" y="107.88888888888889" type="line"/>
    </contour>
  </outline>
</glyph>
<glyph name="bracketleft" format="2">
  <advance width="416.96296296296293"/>
  <unicode hex="005B"/>
  <outline>
    <contour>
      <point x="80.0" y="-190.0" type="line"/>
      <point x="370.7037037037037" y="-190.0" type="line"/>
      <point x="370.7037037037037" y="-62.370370370370374" type="line"/>
      <point x="214.03703703703704" y="-62.370370370370374" type="line"/>
      <point x="224.03703703703704" y="-74.37037037037038" type="line"/>
      <point x="224.03703703703704" y="580.3703703703703" type="line"/>
      <point x="218.03703703703704" y="572.3703703703703" type="line"/>
      <point x="370.7037037037037" y="572.3703703703703" type="line"/>
      <point x="370.7037037037037" y="700.0" type="line"/>
      <point x="80.0" y="700.0" type="line"/>
    </contour>
  </outline>
</glyph>
<glyph name="backslash" format="2">
  <advance width="579.6296296296297"/>
  <unicode hex="005C"/>
  <outline>
    <contour>
      <point x="422.8888888888889" y="-107.0" type="line"/>
      <point x="574.4444444444445" y="-107.0" type="line"/>
      <point x="174.44444444444446" y="700.0" type="line"/>
      <point x="24.88888888888889" y="700.0" type="line"/>
    </contour>
  </outline>
</glyph>
<glyph name="bracketright" format="2">
  <advance width="422.3333333333333"/>
  <unicode hex="005D"/>
  <outline>
    <contour>
      <point x="38.66666666666667" y="-190.0" type="line"/>
      <point x="342.3333333333333" y="-190.0" type="line"/>
      <point x="342.3333333333333" y="700.0" type="line"/>
      <point x="38.66666666666667" y="700.0" type="line"/>
      <point x="38.66666666666667" y="553.6666666666666" type="line"/>
      <point x="188.66666666666669" y="553.6666666666666" type="line"/>
      <point x="178.66666666666669" y="565.6666666666666" type="line"/>
      <point x="178.66666666666669" y="-51.66666666666667" type="line"/>
      <point x="184.66666666666669" y="-43.66666666666667" type="line"/>
      <point x="38.66666666666667" y="-43.66666666666667" type="line"/>
    </contour>
  </outline>
</glyph>
<glyph name="asciicircum" format="2">
  <advance width="594.3333333333334"/>
  <unicode hex="005E"/>
  <outline>
    <contour>
      <point x="9.666666666666668" y="360.0" type="line"/>
      <point x="176.0" y="360.0" type="line"/>
      <point x="345.0" y="648.0" type="line"/>
      <point x="251.0" y="646.3333333333334" type="line"/>
      <point x="416.0" y="360.0" type="line"/>
      <point x="585.0" y="360.0" type="line"/>
      <point x="364.0" y="733.6666666666666" type="line"/>
      <point x="230.66666666666666" y="733.6666666666666" type="line"/>
    </contour>
  </outline>
</glyph>
<glyph name="underscore" format="2">
  <advance width="687.1111111111111"/>
  <unicode hex="005F"/>
  <outline>
    <contour>
      <point x="41.925925925925924" y="-186.96296296296296" type="line"/>
      <point x="645.1851851851852" y="-186.96296296296296" type="line"/>
      <point x="645.1851851851852" y="-64.66666666666667" type="line"/>
      <point x="41.925925925925924" y="-64.66666666666667" type="line"/>
    </contour>
  </outline>
</glyph>
<glyph name="a" format="2">
  <advance width="663.6666666666666"/>
  <unicode hex="0061"/>
  <anchor x="332.3333333333333" y="0.0" name="bottom"/>
  <anchor x="556.3333333333334" y="0.0" name="ogonek"/>
  <anchor x="332.3333333333333" y="531.6666666666666" name="top"/>
  <outline>
    <contour>
      <point x="265.3333333333333" y="-9.333333333333334" type="curve" smooth="yes"/>
      <point x="363.111" y="-9.333333333333334"/>
      <point x="436.3333333333333" y="53.111333333333334"/>
      <point x="460.3333333333333" y="128.66666666666666" type="curve"/>
      <point x="422.3333333333333" y="129.0" type="line"/>
      <point x="422.3333333333333" y="0.0" type="line"/>
      <point x="593.0" y="0.0" type="line"/>
      <point x="593.0" y="531.6666666666666" type="line"/>
      <point x="425.6666666666667" y="531.6666666666666" type="line"/>
      <point x="425.6666666666667" y="407.6666666666667" type="line"/>
      <point x="460.6666666666667" y="404.3333333333333" type="line"/>
      <point x="436.22200000000004" y="480.7776666666667"/>
      <point x="370.55533333333335" y="542.6666666666666"/>
      <point x="269.6666666666667" y="542.6666666666666" type="curve" smooth="yes"/>
      <point x="131.44433333333333" y="542.6666666666666"/>
      <point x="32.666666666666664" y="428.889"/>
      <point x="32.666666666666664" y="266.6666666666667" type="curve" smooth="yes"/>
      <point x="32.666666666666664" y="107.11133333333333"/>
      <point x="132.889" y="-9.333333333333334"/>
    </contour>
    <contour>
      <point x="313.0" y="132.33333333333331" type="curve" smooth="yes"/>
      <point x="244.1113333333333" y="132.33333333333331"/>
      <point x="200.33333333333331" y="184.0"/>
      <point x="200.33333333333331" y="266.6666666666667" type="curve" smooth="yes"/>
      <point x="200.33333333333331" y="348.889"/>
      <point x="244.1113333333333" y="401.0"/>
      <point x="313.0" y="401.0" type="curve" smooth="yes"/>
      <point x="383.2223333333333" y="401.0"/>
      <point x="427.0" y="348.889"/>
      <point x="427.0" y="266.6666666666667" type="curve" smooth="yes"/>
      <point x="427.0" y="184.0"/>
      <point x="383.2223333333333" y="132.33333333333331"/>
    </contour>
  </outline>
</glyph>
<glyph name="b" format="2">
  <advance width="653.5925925925926"/>
  <unicode hex="0062"/>
  <anchor x="327.037037037037" y="0.0" name="bottom"/>
  <anchor x="327.037037037037" y="740.0" name="top"/>
  <outline>
    <contour>
      <point x="383.14814814814815" y="-10.481481481481481" type="curve" smooth="yes"/>
      <point x="518.6051111111111" y="-10.481481481481481"/>
      <point x="618.4074074074074" y="104.9014074074074"/>
      <point x="618.4074074074074" y="265.44444444444446" type="curve" smooth="yes"/>
      <point x="618.4074074074074" y="425.39507407407405"/>
      <point x="517.717888888889" y="540.8148148148148"/>
      <point x="379.18518518518516" y="540.8148148148148" type="curve" smooth="yes"/>
      <point x="291.28396296296296" y="540.8148148148148"/>
      <point x="207.27144444444446" y="482.34551851851853"/>
      <point x="192.7037037037037" y="415.9259259259259" type="curve"/>
      <point x="222.66666666666666" y="404.51851851851853" type="line"/>
      <point x="222.66666666666666" y="740.0" type="line"/>
      <point x="71.03703703703704" y="740.0" type="line"/>
      <point x="71.03703703703704" y="1.5555555555555556" type="line"/>
      <point x="212.55555555555554" y="1.5555555555555556" type="line"/>
      <point x="220.25925925925927" y="124.74074074074075" type="line"/>
      <point x="187.03703703703704" y="113.14814814814815" type="line"/>
      <point x="201.06174074074073" y="47.9632962962963"/>
      <point x="287.93811111111114" y="-10.481481481481481"/>
    </contour>
    <contour>
      <point x="344.96296296296293" y="117.7037037037037" type="curve" smooth="yes"/>
      <point x="268.321" y="117.7037037037037"/>
      <point x="217.66666666666666" y="176.85185185185185"/>
      <point x="217.66666666666666" y="265.44444444444446" type="curve" smooth="yes"/>
      <point x="217.66666666666666" y="353.3458518518518"/>
      <point x="268.321" y="412.14814814814815"/>
      <point x="344.96296296296293" y="412.14814814814815" type="curve" smooth="yes"/>
      <point x="420.96262962962965" y="412.14814814814815"/>
      <point x="471.25925925925924" y="353.3458518518518"/>
      <point x="471.25925925925924" y="265.44444444444446" type="curve" smooth="yes"/>
      <point x="471.25925925925924" y="176.85185185185185"/>
      <point x="420.27144444444446" y="117.7037037037037"/>
    </contour>
  </outline>
</glyph>
<glyph name="c" format="2">
  <advance width="543.6666666666666"/>
  <unicode hex="0063"/>
  <anchor x="272.3333333333333" y="0.0" name="bottom"/>
  <anchor x="272.3333333333333" y="529.8148148148148" name="top"/>
  <outline>
    <contour>
      <point x="302.7037037037037" y="-10.0" type="curve" smooth="yes"/>
      <point x="393.17266666666666" y="-10.0"/>
      <point x="479.5308518518519" y="26.901074074074074"/>
      <point x="525.4074074074074" y="84.33333333333333" type="curve"/>
      <point x="443.3703703703704" y="183.7037037037037" type="line"/>
      <point x="410.333" y="144.54337037037038"/>
      <point x="368.4811481481482" y="122.0"/>
      <point x="317.0740740740741" y="122.0" type="curve" smooth="yes"/>
      <point x="239.19737037037038" y="122.0"/>
      <point x="182.2962962962963" y="184.45696296296296"/>
      <point x="182.2962962962963" y="265.8888888888889" type="curve" smooth="yes"/>
      <point x="182.2962962962963" y="348.65433333333334"/>
      <point x="237.88888888888889" y="409.2962962962963"/>
      <point x="316.55555555555554" y="409.2962962962963" type="curve" smooth="yes"/>
      <point x="367.27144444444446" y="409.2962962962963"/>
      <point x="415.86403703703706" y="381.3088148148148"/>
      <point x="443.3703703703704" y="345.55555555555554" type="curve"/>
      <point x="525.8888888888889" y="444.44444444444446" type="line"/>
      <point x="480.7529259259259" y="505.2837777777778"/>
      <point x="397.3208148148148" y="540.8148148148148"/>
      <point x="302.7037037037037" y="540.8148148148148" type="curve" smooth="yes"/>
      <point x="149.0247037037037" y="540.8148148148148"/>
      <point x="35.18518518518518" y="423.28396296296296"/>
      <point x="35.18518518518518" y="265.4074074074074" type="curve" smooth="yes"/>
      <point x="35.18518518518518" y="107.53085185185185"/>
      <point x="149.0247037037037" y="-10.0"/>
    </contour>
  </outline>
</glyph>
<glyph name="d" format="2">
  <advance width="650.8518518518518"/>
  <unicode hex="0064"/>
  <anchor x="325.6666666666667" y="0.0" name="bottom"/>
  <anchor x="483.14814814814815" y="634.0" name="center"/>
  <anchor x="325.6666666666667" y="740.0" name="top"/>
  <anchor x="615.6666666666666" y="740.0" name="topright"/>
  <outline>
    <contour>
      <point x="275.1111111111111" y="-10.481481481481481" type="curve" smooth="yes"/>
      <point x="373.0864074074074" y="-10.481481481481481"/>
      <point x="460.13596296296294" y="51.41974074074074"/>
      <point x="466.55555555555554" y="117.29629629629629" type="curve"/>
      <point x="436.44444444444446" y="121.62962962962963" type="line"/>
      <point x="444.14814814814815" y="0.0" type="line"/>
      <point x="585.6666666666666" y="0.0" type="line"/>
      <point x="585.6666666666666" y="740.0" type="line"/>
      <point x="434.03703703703707" y="740.0" type="line"/>
      <point x="434.03703703703707" y="396.22222222222223" type="line"/>
      <point x="471.25925925925924" y="404.0" type="line"/>
      <point x="462.9137407407407" y="475.25892592592595"/>
      <point x="374.2345555555556" y="540.8148148148148"/>
      <point x="275.962962962963" y="540.8148148148148" type="curve" smooth="yes"/>
      <point x="137.1977037037037" y="540.8148148148148"/>
      <point x="35.18518518518518" y="424.1848518518519"/>
      <point x="35.18518518518518" y="264.9259259259259" type="curve" smooth="yes"/>
      <point x="35.18518518518518" y="104.38288888888889"/>
      <point x="136.88888888888889" y="-10.481481481481481"/>
    </contour>
    <contour>
      <point x="311.74074074074076" y="115.11111111111111" type="curve" smooth="yes"/>
      <point x="235.74107407407405" y="115.11111111111111"/>
      <point x="185.44444444444446" y="174.95044444444443"/>
      <point x="185.44444444444446" y="264.9259259259259" type="curve" smooth="yes"/>
      <point x="185.44444444444446" y="354.9014074074074"/>
      <point x="235.74107407407405" y="414.74074074074076"/>
      <point x="311.74074074074076" y="414.74074074074076" type="curve" smooth="yes"/>
      <point x="388.3827037037037" y="414.74074074074076"/>
      <point x="438.51851851851853" y="354.9014074074074"/>
      <point x="438.51851851851853" y="264.9259259259259" type="curve" smooth="yes"/>
      <point x="438.51851851851853" y="174.95044444444443"/>
      <point x="388.3827037037037" y="115.11111111111111"/>
    </contour>
  </outline>
</glyph>
<glyph name="e" format="2">
  <advance width="586.0"/>
  <unicode hex="0065"/>
  <anchor x="293.0" y="0.0" name="bottom"/>
  <anchor x="512.4814814814815" y="4.814814814814815" name="ogonek"/>
  <anchor x="293.0" y="529.8148148148148" name="top"/>
  <outline>
    <contour>
      <point x="322.77777777777777" y="-10.0" type="curve" smooth="yes"/>
      <point x="395.8402222222222" y="-10.0"/>
      <point x="471.3955925925926" y="15.889148148148148"/>
      <point x="532.6666666666666" y="68.11111111111111" type="curve"/>
      <point x="460.9259259259259" y="169.03703703703704" type="line"/>
      <point x="418.55555555555554" y="134.6172962962963"/>
      <point x="385.25925925925924" y="122.51851851851852"/>
      <point x="339.037037037037" y="122.51851851851852" type="curve" smooth="yes"/>
      <point x="238.0247037037037" y="122.51851851851852"/>
      <point x="177.14814814814815" y="182.27177777777777"/>
      <point x="177.14814814814815" y="273.6296296296296" type="curve" smooth="yes"/>
      <point x="177.14814814814815" y="363.3084814814815"/>
      <point x="222.30848148148146" y="413.5925925925926"/>
      <point x="306.55555555555554" y="413.5925925925926" type="curve" smooth="yes"/>
      <point x="364.2841111111111" y="413.5925925925926"/>
      <point x="408.6541481481482" y="375.64196296296296"/>
      <point x="412.1111111111111" y="323.14814814814815" type="curve"/>
      <point x="412.1111111111111" y="302.037037037037" type="line"/>
      <point x="429.03703703703707" y="320.48148148148147" type="line"/>
      <point x="105.51851851851852" y="320.48148148148147" type="line"/>
      <point x="128.5185185185185" y="232.22222222222223" type="line"/>
      <point x="552.7037037037037" y="232.22222222222223" type="line"/>
      <point x="553.7037037037037" y="275.25925925925924" type="line" smooth="yes"/>
      <point x="555.2592592592592" y="429.16033333333337"/>
      <point x="450.9010740740741" y="540.6421481481482"/>
      <point x="304.6296296296296" y="541.3333333333334" type="curve" smooth="yes"/>
      <point x="147.9878148148148" y="540.6421481481482"/>
      <point x="35.18518518518518" y="425.7033703703704"/>
      <point x="35.18518518518518" y="262.2962962962963" type="curve" smooth="yes"/>
      <point x="35.18518518518518" y="103.72855555555556"/>
      <point x="148.55522222222223" y="-10.0"/>
    </contour>
  </outline>
</glyph>
<glyph name="f" format="2">
  <advance width="393.0"/>
  <unicode hex="0066"/>
  <anchor x="197.0" y="0.0" name="bottom"/>
  <anchor x="197.0" y="740.0" name="top"/>
  <outline>
    <contour>
      <point x="100.33333333333334" y="0.0" type="line"/>
      <point x="117.66633333333334" y="0.0"/>
      <point x="146.00033333333334" y="0.0"/>
      <point x="185.33333333333334" y="0.0" type="curve" smooth="yes"/>
      <point x="270.3333333333333" y="0.0" type="line"/>
      <point x="270.3333333333333" y="536.6666666666666" type="line" smooth="yes"/>
      <point x="270.3333333333333" y="572.667"/>
      <point x="285.44433333333336" y="591.0"/>
      <point x="321.0" y="591.0" type="curve" smooth="yes"/>
      <point x="333.44433333333336" y="591.0"/>
      <point x="349.667" y="586.0"/>
      <point x="367.0" y="578.0" type="curve"/>
      <point x="414.0" y="701.0" type="line"/>
      <point x="378.889" y="726.7776666666666"/>
      <point x="335.0003333333333" y="743.0"/>
      <point x="284.3333333333333" y="743.0" type="curve" smooth="yes"/>
      <point x="173.66666666666666" y="743.0"/>
      <point x="100.33333333333334" y="658.4443333333334"/>
      <point x="100.33333333333334" y="552.6666666666666" type="curve" smooth="yes"/>
    </contour>
    <contour>
      <point x="23.666666666666668" y="377.6666666666667" type="line"/>
      <point x="377.0" y="377.6666666666667" type="line"/>
      <point x="377.0" y="516.0" type="line"/>
      <point x="23.666666666666668" y="516.0" type="line"/>
    </contour>
  </outline>
</glyph>
<glyph name="g" format="2">
  <advance width="665.8518518518518"/>
  <unicode hex="0067"/>
  <anchor x="333.18518518518516" y="-230.0" name="bottom"/>
  <anchor x="333.18518518518516" y="529.8148148148148" name="top"/>
  <outline>
    <contour>
      <point x="312.77777777777777" y="-230.0" type="curve" smooth="yes"/>
      <point x="489.76559259259255" y="-230.0"/>
      <point x="597.2222222222222" y="-131.45696296296296"/>
      <point x="597.2222222222222" y="41.62962962962963" type="curve" smooth="yes"/>
      <point x="597.2222222222222" y="529.8148148148148" type="line"/>
      <point x="453.2962962962963" y="529.8148148148148" type="line"/>
      <point x="448.0" y="409.22222222222223" type="line"/>
      <point x="479.14814814814815" y="417.7037037037037" type="line"/>
      <point x="467.8892222222222" y="479.4321111111111"/>
      <point x="381.704037037037" y="540.8148148148148"/>
      <point x="283.03703703703707" y="540.8148148148148" type="curve" smooth="yes"/>
      <point x="140.8641851851852" y="540.8148148148148"/>
      <point x="35.18518518518518" y="426.59225925925927"/>
      <point x="35.18518518518518" y="267.3333333333333" type="curve" smooth="yes"/>
      <point x="35.18518518518518" y="110.64214814814815"/>
      <point x="141.51885185185185" y="2.0370370370370363"/>
      <point x="287.0" y="2.0370370370370363" type="curve" smooth="yes"/>
      <point x="375.5929259259259" y="2.0370370370370363"/>
      <point x="460.4199259259259" y="57.64214814814815"/>
      <point x="472.962962962963" y="122.18518518518519" type="curve"/>
      <point x="445.5925925925926" y="127.74074074074073" type="line"/>
      <point x="445.5925925925926" y="36.85185185185185" type="line" smooth="yes"/>
      <point x="445.5925925925926" y="-57.9272962962963"/>
      <point x="397.0737407407408" y="-103.33333333333334"/>
      <point x="295.44444444444446" y="-103.33333333333334" type="curve" smooth="yes"/>
      <point x="236.13562962962962" y="-103.33333333333334"/>
      <point x="179.1851851851852" y="-85.0865925925926"/>
      <point x="137.25925925925927" y="-55.70370370370371" type="curve"/>
      <point x="84.33333333333334" y="-162.66666666666666" type="line"/>
      <point x="136.72822222222223" y="-202.5678888888889"/>
      <point x="227.83933333333334" y="-230.0"/>
    </contour>
    <contour>
      <point x="317.25925925925924" y="121.11111111111111" type="curve" smooth="yes"/>
      <point x="237.95077777777777" y="121.11111111111111"/>
      <point x="185.44444444444446" y="179.11077777777777"/>
      <point x="185.44444444444446" y="266.3703703703704" type="curve" smooth="yes"/>
      <point x="185.44444444444446" y="353.62996296296296"/>
      <point x="237.95077777777777" y="412.6296296296296"/>
      <point x="317.25925925925924" y="412.6296296296296" type="curve" smooth="yes"/>
      <point x="397.25892592592595" y="412.6296296296296"/>
      <point x="450.0740740740741" y="354.32114814814815"/>
      <point x="450.0740740740741" y="266.3703703703704" type="curve" smooth="yes"/>
      <point x="450.0740740740741" y="178.41959259259258"/>
      <point x="397.95062962962965" y="121.11111111111111"/>
    </contour>
  </outline>
</glyph>
<glyph name="i" format="2">
  <advance width="326.0"/>
  <unicode hex="0069"/>
  <anchor x="163.0" y="0.0" name="bottom"/>
  <anchor x="235.33333333333331" y="0.0" name="ogonek"/>
  <anchor x="163.0" y="743.3333333333334" name="top"/>
  <outline>
    <contour>
      <point x="78.33333333333333" y="0.0" type="line"/>
      <point x="248.0" y="0.0" type="line"/>
      <point x="248.0" y="531.6666666666666" type="line"/>
      <point x="78.33333333333333" y="531.6666666666666" type="line"/>
    </contour>
    <contour>
      <point x="163.0" y="635.0" type="curve" smooth="yes"/>
      <point x="224.66666666666666" y="635.0"/>
      <point x="262.6666666666667" y="670.3333333333334"/>
      <point x="262.6666666666667" y="720.6666666666666" type="curve" smooth="yes"/>
      <point x="262.6666666666667" y="775.0"/>
      <point x="225.66666666666666" y="806.3333333333334"/>
      <point x="163.0" y="806.3333333333334" type="curve" smooth="yes"/>
      <point x="101.33333333333333" y="806.3333333333334"/>
      <point x="63.333333333333336" y="771.0"/>
      <point x="63.333333333333336" y="720.6666666666666" type="curve" smooth="yes"/>
      <point x="63.333333333333336" y="666.3333333333334"/>
      <point x="100.33333333333333" y="635.0"/>
    </contour>
  </outline>
</glyph>
<glyph name="k" format="2">
  <advance width="635.3333333333334"/>
  <unicode hex="006B"/>
  <anchor x="317.6666666666667" y="0.0" name="bottom"/>
  <anchor x="317.6666666666667" y="740.0" name="top"/>
  <outline>
    <contour>
      <point x="234.66666666666666" y="154.66666666666666" type="line"/>
      <point x="637.0" y="531.6666666666666" type="line"/>
      <point x="414.6666666666667" y="531.6666666666666" type="line"/>
      <point x="166.33333333333334" y="276.0" type="line"/>
    </contour>
    <contour>
      <point x="70.66666666666667" y="0.0" type="line"/>
      <point x="240.33333333333331" y="0.0" type="line"/>
      <point x="240.33333333333331" y="740.0" type="line"/>
      <point x="70.66666666666667" y="740.0" type="line"/>
    </contour>
    <contour>
      <point x="431.3333333333333" y="0.0" type="line"/>
      <point x="630.0" y="0.0" type="line"/>
      <point x="365.66666666666663" y="334.6666666666667" type="line"/>
      <point x="246.66666666666666" y="244.33333333333334" type="line"/>
    </contour>
  </outline>
</glyph>
<glyph name="l" format="2">
  <advance width="295.2962962962963"/>
  <unicode hex="006C"/>
  <anchor x="148.14814814814815" y="0.0" name="bottom"/>
  <anchor x="148.14814814814815" y="370.0" name="center"/>
  <anchor x="148.14814814814815" y="740.0" name="top"/>
  <anchor x="255.44444444444446" y="740.0" name="topright"/>
  <outline>
    <contour>
      <point x="72.07407407407408" y="0.0" type="line"/>
      <point x="223.22222222222223" y="0.0" type="line"/>
      <point x="223.22222222222223" y="740.0" type="line"/>
      <point x="72.07407407407408" y="740.0" type="line"/>
    </contour>
  </outline>
</glyph>
<glyph name="m" format="2">
  <advance width="955.6666666666666"/>
  <unicode hex="006D"/>
  <anchor x="478.3333333333333" y="0.0" name="bottom"/>
  <anchor x="478.3333333333333" y="529.8148148148148" name="top"/>
  <outline>
    <contour>
      <point x="70.0" y="0.0" type="line"/>
      <point x="221.66666666666666" y="0.0" type="line"/>
      <point x="221.66666666666666" y="316.962962962963" type="line" smooth="yes"/>
      <point x="221.66666666666666" y="370.24674074074073"/>
      <point x="264.3948888888889" y="411.0740740740741"/>
      <point x="322.3703703703704" y="411.0740740740741" type="curve" smooth="yes"/>
      <point x="374.9135925925926" y="411.0740740740741"/>
      <point x="404.6666666666667" y="376.0125185185185"/>
      <point x="404.6666666666667" y="311.962962962963" type="curve" smooth="yes"/>
      <point x="404.6666666666667" y="0.0" type="line"/>
      <point x="556.3333333333334" y="0.0" type="line"/>
      <point x="556.3333333333334" y="315.9259259259259" type="line" smooth="yes"/>
      <point x="556.3333333333334" y="369.9014074074074"/>
      <point x="598.8888888888889" y="411.0740740740741"/>
      <point x="657.5555555555555" y="411.0740740740741" type="curve" smooth="yes"/>
      <point x="712.8640370370371" y="411.0740740740741"/>
      <point x="740.8888888888889" y="378.43192592592595"/>
      <point x="740.8888888888889" y="310.9259259259259" type="curve" smooth="yes"/>
      <point x="740.8888888888889" y="0.0" type="line"/>
      <point x="892.5555555555555" y="0.0" type="line"/>
      <point x="892.5555555555555" y="322.22222222222223" type="line" smooth="yes"/>
      <point x="892.5555555555555" y="465.03737037037035"/>
      <point x="829.431925925926" y="539.7777777777778"/>
      <point x="708.8888888888889" y="539.7777777777778" type="curve" smooth="yes"/>
      <point x="636.1977037037037" y="539.7777777777778"/>
      <point x="565.1726666666666" y="502.3578518518519"/>
      <point x="523.0" y="433.96296296296293" type="curve" smooth="yes"/>
      <point x="514.5555555555555" y="418.4074074074074" type="line"/>
      <point x="537.7777777777778" y="415.85185185185185" type="line"/>
      <point x="503.65448148148147" y="505.1848518518519"/>
      <point x="453.2595925925926" y="539.7777777777778"/>
      <point x="372.22222222222223" y="539.7777777777778" type="curve" smooth="yes"/>
      <point x="301.75307407407405" y="539.7777777777778"/>
      <point x="237.9137407407407" y="497.6171111111111"/>
      <point x="197.37037037037038" y="428.9259259259259" type="curve"/>
      <point x="218.2962962962963" y="431.2962962962963" type="line"/>
      <point x="214.44444444444446" y="529.8148148148148" type="line"/>
      <point x="70.0" y="529.8148148148148" type="line"/>
    </contour>
  </outline>
</glyph>
<glyph name="n" format="2">
  <advance width="628.7037037037037"/>
  <unicode hex="006E"/>
  <anchor x="314.85185185185185" y="0.0" name="bottom"/>
  <anchor x="314.85185185185185" y="529.8148148148148" name="top"/>
  <outline>
    <contour>
      <point x="71.03703703703704" y="0.0" type="line"/>
      <point x="88.37003703703704" y="0.0"/>
      <point x="113.56188888888889" y="0.0"/>
      <point x="146.61111111111111" y="0.0" type="curve" smooth="yes"/>
      <point x="222.1851851851852" y="0.0" type="line"/>
      <point x="222.1851851851852" y="318.0" type="line" smooth="yes"/>
      <point x="222.1851851851852" y="371.2837777777778"/>
      <point x="266.43192592592595" y="412.6296296296296"/>
      <point x="326.48148148148147" y="412.6296296296296" type="curve" smooth="yes"/>
      <point x="383.8151481481481" y="414.7037037037037"/>
      <point x="413.4074074074074" y="381.19770370370367"/>
      <point x="413.4074074074074" y="313.0" type="curve" smooth="yes"/>
      <point x="413.4074074074074" y="0.0" type="line"/>
      <point x="564.5555555555555" y="0.0" type="line"/>
      <point x="564.5555555555555" y="324.81481481481484" type="line" smooth="yes"/>
      <point x="564.5555555555555" y="466.93825925925927"/>
      <point x="501.18518518518516" y="540.8148148148148"/>
      <point x="381.18518518518516" y="540.8148148148148" type="curve" smooth="yes"/>
      <point x="293.97514814814815" y="540.8148148148148"/>
      <point x="210.38255555555554" y="482.3578518518519"/>
      <point x="189.74074074074073" y="409.81481481481484" type="curve"/>
      <point x="219.77777777777777" y="421.81481481481484" type="line"/>
      <point x="214.96296296296296" y="529.8148148148148" type="line"/>
      <point x="71.03703703703704" y="529.8148148148148" type="line"/>
    </contour>
  </outline>
</glyph>
<glyph name="o" format="2">
  <advance width="636.6666666666666"/>
  <unicode hex="006F"/>
  <anchor x="318.5925925925926" y="0.0" name="bottom"/>
  <anchor x="318.5925925925926" y="265.4074074074074" name="center"/>
  <anchor x="486.51851851851853" y="0.0" name="ogonek"/>
  <anchor x="318.5925925925926" y="529.8148148148148" name="top"/>
  <anchor x="616.6666666666666" y="529.8148148148148" name="topright"/>
  <outline>
    <contour>
      <point x="319.0740740740741" y="-10.0" type="curve" smooth="yes"/>
      <point x="481.34551851851853" y="-10.0"/>
      <point x="601.4814814814815" y="106.14848148148148"/>
      <point x="601.4814814814815" y="265.4074074074074" type="curve" smooth="yes"/>
      <point x="601.4814814814815" y="424.66633333333334"/>
      <point x="481.34551851851853" y="540.8148148148148"/>
      <point x="319.0740740740741" y="540.8148148148148" type="curve" smooth="yes"/>
      <point x="155.46914814814815" y="540.8148148148148"/>
      <point x="35.18518518518518" y="424.66633333333334"/>
      <point x="35.18518518518518" y="265.4074074074074" type="curve" smooth="yes"/>
      <point x="35.18518518518518" y="106.14848148148148"/>
      <point x="155.46914814814815" y="-10.0"/>
    </contour>
    <contour>
      <point x="319.0740740740741" y="120.59259259259258" type="curve" smooth="yes"/>
      <point x="243.0245185185185" y="120.59259259259258"/>
      <point x="187.64214814814815" y="181.99966666666666"/>
      <point x="188.33333333333331" y="265.4074074074074" type="curve" smooth="yes"/>
      <point x="187.64214814814815" y="349.45696296296296"/>
      <point x="243.0245185185185" y="410.7037037037037"/>
      <point x="319.0740740740741" y="410.7037037037037" type="curve" smooth="yes"/>
      <point x="394.4818148148148" y="410.7037037037037"/>
      <point x="449.02451851851856" y="350.14814814814815"/>
      <point x="448.3333333333333" y="265.4074074074074" type="curve" smooth="yes"/>
      <point x="449.02451851851856" y="181.99966666666666"/>
      <point x="394.4818148148148" y="120.59259259259258"/>
    </contour>
  </outline>
</glyph>
<glyph name="p" format="2">
  <advance width="663.0"/>
  <unicode hex="0070"/>
  <anchor x="332.0" y="0.0" name="bottom"/>
  <anchor x="332.0" y="531.6666666666666" name="top"/>
  <outline>
    <contour>
      <point x="70.66666666666667" y="-220.0" type="line"/>
      <point x="241.33333333333331" y="-220.0" type="line"/>
      <point x="241.33333333333331" y="131.0" type="line"/>
      <point x="202.66666666666666" y="117.0" type="line"/>
      <point x="219.111" y="47.667"/>
      <point x="302.55533333333335" y="-9.0"/>
      <point x="393.6666666666667" y="-9.0" type="curve" smooth="yes"/>
      <point x="530.5556666666666" y="-9.0"/>
      <point x="629.6666666666666" y="106.778"/>
      <point x="629.6666666666666" y="266.3333333333333" type="curve" smooth="yes"/>
      <point x="629.6666666666666" y="428.111"/>
      <point x="531.111" y="542.0"/>
      <point x="396.0" y="542.0" type="curve" smooth="yes"/>
      <point x="301.7776666666667" y="542.0"/>
      <point x="218.22199999999998" y="488.22200000000004"/>
      <point x="205.33333333333331" y="422.0" type="curve"/>
      <point x="238.0" y="413.0" type="line"/>
      <point x="230.66666666666666" y="531.6666666666666" type="line"/>
      <point x="70.66666666666667" y="531.6666666666666" type="line"/>
    </contour>
    <contour>
      <point x="350.6666666666667" y="132.66666666666666" type="curve" smooth="yes"/>
      <point x="280.44433333333336" y="132.66666666666666"/>
      <point x="236.33333333333331" y="184.55566666666667"/>
      <point x="236.33333333333331" y="266.3333333333333" type="curve" smooth="yes"/>
      <point x="236.33333333333331" y="348.55566666666664"/>
      <point x="280.44433333333336" y="400.3333333333333"/>
      <point x="350.6666666666667" y="400.3333333333333" type="curve" smooth="yes"/>
      <point x="419.9996666666667" y="400.3333333333333"/>
      <point x="464.0" y="348.111"/>
      <point x="464.0" y="266.3333333333333" type="curve" smooth="yes"/>
      <point x="464.0" y="184.55566666666667"/>
      <point x="419.55533333333335" y="132.66666666666666"/>
    </contour>
  </outline>
</glyph>
<glyph name="q" format="2">
  <advance width="662.6666666666666"/>
  <unicode hex="0071"/>
  <anchor x="331.6666666666667" y="0.0" name="bottom"/>
  <anchor x="331.6666666666667" y="531.6666666666666" name="top"/>
  <outline>
    <contour>
      <point x="421.6666666666667" y="-220.0" type="line"/>
      <point x="592.0" y="-220.0" type="line"/>
      <point x="592.0" y="532.0" type="line"/>
      <point x="432.3333333333333" y="532.0" type="line"/>
      <point x="425.0" y="407.6666666666667" type="line"/>
      <point x="462.3333333333333" y="414.3333333333333" type="line"/>
      <point x="453.44466666666665" y="483.22200000000004"/>
      <point x="367.0003333333333" y="542.6666666666666"/>
      <point x="267.0" y="542.6666666666666" type="curve" smooth="yes"/>
      <point x="132.33333333333334" y="542.6666666666666"/>
      <point x="33.333333333333336" y="428.111"/>
      <point x="33.333333333333336" y="266.3333333333333" type="curve" smooth="yes"/>
      <point x="33.333333333333336" y="106.33366666666667"/>
      <point x="133.55566666666667" y="-9.333333333333334"/>
      <point x="271.3333333333333" y="-9.333333333333334" type="curve" smooth="yes"/>
      <point x="362.44466666666665" y="-9.333333333333334"/>
      <point x="446.77799999999996" y="49.889"/>
      <point x="458.3333333333333" y="119.66666666666667" type="curve"/>
      <point x="421.6666666666667" y="129.0" type="line"/>
    </contour>
    <contour>
      <point x="312.3333333333333" y="132.33333333333331" type="curve" smooth="yes"/>
      <point x="243.00033333333332" y="132.33333333333331"/>
      <point x="199.0" y="184.111"/>
      <point x="199.0" y="266.3333333333333" type="curve" smooth="yes"/>
      <point x="199.0" y="348.55566666666664"/>
      <point x="243.00033333333332" y="401.3333333333333"/>
      <point x="312.3333333333333" y="401.3333333333333" type="curve" smooth="yes"/>
      <point x="382.55566666666664" y="401.3333333333333"/>
      <point x="426.3333333333333" y="349.0"/>
      <point x="426.3333333333333" y="266.3333333333333" type="curve" smooth="yes"/>
      <point x="426.3333333333333" y="183.66666666666666"/>
      <point x="382.55566666666664" y="132.33333333333331"/>
    </contour>
  </outline>
</glyph>
<glyph name="r" format="2">
  <advance width="463.0"/>
  <unicode hex="0072"/>
  <anchor x="150.66666666666666" y="0.0" name="bottom"/>
  <anchor x="265.3333333333333" y="531.6666666666666" name="top"/>
  <outline>
    <contour>
      <point x="70.66666666666667" y="0.0" type="line"/>
      <point x="240.66666666666666" y="0.0" type="line"/>
      <point x="240.66666666666666" y="262.0" type="line" smooth="yes"/>
      <point x="240.66666666666666" y="322.0"/>
      <point x="279.44466666666665" y="362.6666666666667"/>
      <point x="336.3333333333333" y="362.6666666666667" type="curve" smooth="yes"/>
      <point x="364.7776666666667" y="362.6666666666667"/>
      <point x="392.44466666666665" y="354.44433333333336"/>
      <point x="406.6666666666667" y="346.0" type="curve"/>
      <point x="453.0" y="533.3333333333334" type="line"/>
      <point x="435.6666666666667" y="538.6663333333333"/>
      <point x="414.2223333333333" y="542.6666666666666"/>
      <point x="390.6666666666667" y="542.6666666666666" type="curve" smooth="yes"/>
      <point x="305.7776666666667" y="542.6666666666666"/>
      <point x="229.77766666666668" y="476.6666666666667"/>
      <point x="205.33333333333331" y="390.0" type="curve"/>
      <point x="238.66666666666666" y="358.0" type="line"/>
      <point x="230.66666666666666" y="531.6666666666666" type="line"/>
      <point x="70.66666666666667" y="531.6666666666666" type="line"/>
    </contour>
  </outline>
</glyph>
<glyph name="s" format="2">
  <advance width="497.6666666666667"/>
  <unicode hex="0073"/>
  <anchor x="252.33333333333334" y="0.0" name="bottom"/>
  <anchor x="249.33333333333334" y="531.6666666666666" name="top"/>
  <outline>
    <contour>
      <point x="251.0" y="-10.0" type="curve" smooth="yes"/>
      <point x="381.2223333333333" y="-10.0"/>
      <point x="477.0" y="64.889"/>
      <point x="477.0" y="168.0" type="curve" smooth="yes"/>
      <point x="477.0" y="202.33333333333334"/>
      <point x="466.3333333333333" y="230.66666666666666"/>
      <point x="445.0" y="254.0" type="curve" smooth="yes"/>
      <point x="417.6666666666667" y="283.3333333333333"/>
      <point x="372.3333333333333" y="305.0"/>
      <point x="310.3333333333333" y="322.0" type="curve" smooth="yes"/>
      <point x="258.2676666666666" y="336.46366666666665"/>
      <point x="230.66666666666666" y="346.2223333333333"/>
      <point x="218.0" y="353.3333333333333" type="curve" smooth="yes"/>
      <point x="203.33333333333331" y="361.7776666666667"/>
      <point x="196.889" y="372.6666666666667"/>
      <point x="196.66666666666666" y="386.0" type="curve" smooth="yes"/>
      <point x="196.66666666666666" y="409.9996666666667"/>
      <point x="215.55566666666667" y="423.6666666666667"/>
      <point x="254.0" y="423.6666666666667" type="curve" smooth="yes"/>
      <point x="294.889" y="423.6666666666667"/>
      <point x="349.889" y="395.889"/>
      <point x="385.0" y="364.3333333333333" type="curve"/>
      <point x="473.3333333333333" y="462.6666666666667" type="line"/>
      <point x="417.333" y="512.0"/>
      <point x="338.7776666666667" y="542.6666666666666"/>
      <point x="249.0" y="542.6666666666666" type="curve" smooth="yes"/>
      <point x="136.55566666666667" y="542.6666666666666"/>
      <point x="33.66666666666667" y="477.7273333333333"/>
      <point x="33.66666666666667" y="376.3333333333333" type="curve" smooth="yes"/>
      <point x="33.66666666666667" y="333.0"/>
      <point x="49.333333333333336" y="298.3333333333333"/>
      <point x="77.33333333333333" y="270.6666666666667" type="curve" smooth="yes"/>
      <point x="107.0" y="242.0"/>
      <point x="152.33333333333334" y="220.33333333333334"/>
      <point x="212.66666666666666" y="205.0" type="curve" smooth="yes"/>
      <point x="257.111" y="193.44466666666668"/>
      <point x="285.111" y="184.389"/>
      <point x="296.6666666666667" y="177.83333333333334" type="curve" smooth="yes"/>
      <point x="308.2223333333333" y="171.27766666666668"/>
      <point x="314.0" y="161.77766666666668"/>
      <point x="314.0" y="149.33333333333334" type="curve" smooth="yes"/>
      <point x="314.0" y="125.77766666666666"/>
      <point x="294.2223333333333" y="111.0"/>
      <point x="260.0" y="111.0" type="curve" smooth="yes"/>
      <point x="215.32066666666665" y="111.0"/>
      <point x="157.33333333333334" y="128.77766666666668"/>
      <point x="116.0" y="169.66666666666666" type="curve"/>
      <point x="14.0" y="82.33333333333333" type="line"/>
      <point x="61.887" y="26.506666666666668"/>
      <point x="144.72" y="-10.0"/>
    </contour>
  </outline>
</glyph>
<glyph name="t" format="2">
  <advance width="396.037037037037"/>
  <unicode hex="0074"/>
  <anchor x="198.25925925925927" y="0.0" name="bottom"/>
  <anchor x="198.25925925925927" y="265.4074074074074" name="center"/>
  <anchor x="198.25925925925927" y="529.8148148148148" name="top"/>
  <anchor x="286.3333333333333" y="822.1481481481482" name="topright"/>
  <outline>
    <contour>
      <point x="118.22222222222223" y="0.0" type="line"/>
      <point x="269.3703703703704" y="0.0" type="line"/>
      <point x="269.3703703703704" y="664.2962962962963" type="line"/>
      <point x="118.22222222222223" y="664.2962962962963" type="line"/>
    </contour>
    <contour>
      <point x="21.74074074074074" y="396.1111111111111" type="line"/>
      <point x="375.0" y="396.1111111111111" type="line"/>
      <point x="375.0" y="529.8148148148148" type="line"/>
      <point x="21.74074074074074" y="529.8148148148148" type="line"/>
    </contour>
  </outline>
</glyph>
<glyph name="u" format="2">
  <advance width="635.8148148148148"/>
  <unicode hex="0075"/>
  <anchor x="318.4074074074074" y="0.0" name="bottom"/>
  <anchor x="544.5555555555555" y="0.0" name="ogonek"/>
  <anchor x="318.4074074074074" y="529.8148148148148" name="top"/>
  <anchor x="615.8148148148148" y="529.8148148148148" name="topright"/>
  <outline>
    <contour>
      <point x="252.62962962962962" y="-10.481481481481481" type="curve" smooth="yes"/>
      <point x="341.3208148148148" y="-10.481481481481481"/>
      <point x="419.9878148148148" y="45.72822222222222"/>
      <point x="442.7037037037037" y="121.03703703703704" type="curve"/>
      <point x="415.0740740740741" y="109.03703703703704" type="line"/>
      <point x="420.85185185185185" y="0.0" type="line"/>
      <point x="563.8148148148148" y="0.0" type="line"/>
      <point x="563.8148148148148" y="529.8148148148148" type="line"/>
      <point x="412.6666666666667" y="529.8148148148148" type="line"/>
      <point x="412.6666666666667" y="212.85185185185185" type="line" smooth="yes"/>
      <point x="412.6666666666667" y="156.11111111111111"/>
      <point x="370.14814814814815" y="115.62962962962962"/>
      <point x="311.48148148148147" y="115.62962962962962" type="curve" smooth="yes"/>
      <point x="252.12362962962962" y="115.62962962962962"/>
      <point x="217.37037037037038" y="156.74074074074073"/>
      <point x="217.37037037037038" y="225.62962962962962" type="curve" smooth="yes"/>
      <point x="217.37037037037038" y="529.8148148148148" type="line"/>
      <point x="66.22222222222223" y="529.8148148148148" type="line"/>
      <point x="66.22222222222223" y="202.92592592592592" type="line" smooth="yes"/>
      <point x="66.22222222222223" y="69.09877777777778"/>
      <point x="136.13596296296296" y="-10.481481481481481"/>
    </contour>
  </outline>
</glyph>
<glyph name="v" format="2">
  <advance width="599.9629629629629"/>
  <unicode hex="0076"/>
  <anchor x="300.48148148148147" y="0.0" name="bottom"/>
  <anchor x="300.48148148148147" y="529.8148148148148" name="top"/>
  <outline>
    <contour>
      <point x="235.8148148148148" y="0.0" type="line"/>
      <point x="353.14814814814815" y="0.0" type="line"/>
      <point x="586.1481481481482" y="529.8148148148148" type="line"/>
      <point x="422.3703703703704" y="529.8148148148148" type="line"/>
      <point x="280.74074074074076" y="129.25925925925927" type="line"/>
      <point x="316.5925925925926" y="133.92592592592592" type="line"/>
      <point x="180.1851851851852" y="529.8148148148148" type="line"/>
      <point x="13.814814814814815" y="529.8148148148148" type="line"/>
    </contour>
  </outline>
</glyph>
<glyph name="w" format="2">
  <advance width="828.4074074074074"/>
  <unicode hex="0077"/>
  <anchor x="414.44444444444446" y="0.0" name="bottom"/>
  <anchor x="414.44444444444446" y="529.8148148148148" name="top"/>
  <outline>
    <contour>
      <point x="189.44444444444446" y="0.0" type="line"/>
      <point x="299.8888888888889" y="0.0" type="line"/>
      <point x="417.5925925925926" y="291.03703703703707" type="line"/>
      <point x="403.74074074074076" y="292.5925925925926" type="line"/>
      <point x="523.7407407407408" y="0.0" type="line"/>
      <point x="634.7037037037037" y="0.0" type="line"/>
      <point x="814.5925925925926" y="529.8148148148148" type="line"/>
      <point x="656.6666666666666" y="529.8148148148148" type="line"/>
      <point x="553.1851851851852" y="177.74074074074073" type="line"/>
      <point x="576.8148148148148" y="180.22222222222223" type="line"/>
      <point x="457.037037037037" y="455.48148148148147" type="line"/>
      <point x="368.0740740740741" y="455.48148148148147" type="line"/>
      <point x="253.62962962962962" y="180.74074074074073" type="line"/>
      <point x="275.18518518518516" y="177.77777777777777" type="line"/>
      <point x="171.74074074074073" y="530.3333333333334" type="line"/>
      <point x="13.814814814814815" y="529.8148148148148" type="line"/>
    </contour>
  </outline>
</glyph>
<glyph name="x" format="2">
  <advance width="613.3333333333334"/>
  <unicode hex="0078"/>
  <anchor x="307.0" y="0.0" name="bottom"/>
  <anchor x="307.0" y="531.6666666666666" name="top"/>
  <outline>
    <contour>
      <point x="394.3333333333333" y="0.0" type="line"/>
      <point x="595.0" y="0.0" type="line"/>
      <point x="389.0" y="291.0" type="line"/>
      <point x="326.0" y="377.66666666666663" type="line"/>
      <point x="226.33333333333331" y="531.6666666666666" type="line"/>
      <point x="24.333333333333332" y="531.6666666666666" type="line"/>
      <point x="232.0" y="244.66666666666666" type="line"/>
      <point x="290.3333333333333" y="163.0" type="line"/>
    </contour>
    <contour>
      <point x="18.666666666666668" y="0.0" type="line"/>
      <point x="218.0" y="0.0" type="line"/>
      <point x="324.0" y="195.0" type="line"/>
      <point x="233.66666666666666" y="302.6666666666667" type="line"/>
    </contour>
    <contour>
      <point x="374.3333333333333" y="227.33333333333334" type="line"/>
      <point x="585.6666666666666" y="531.6666666666666" type="line"/>
      <point x="386.3333333333333" y="531.6666666666666" type="line"/>
      <point x="285.3333333333333" y="334.6666666666667" type="line"/>
    </contour>
  </outline>
</glyph>
<glyph name="y" format="2">
  <advance width="613.7407407407408"/>
  <unicode hex="0079"/>
  <anchor x="307.3703703703704" y="0.0" name="bottom"/>
  <anchor x="307.3703703703704" y="529.8148148148148" name="top"/>
  <outline>
    <contour>
      <point x="141.22222222222223" y="-230.0" type="line"/>
      <point x="293.14814814814815" y="-230.0" type="line"/>
      <point x="384.55555555555554" y="0.0" type="line"/>
      <point x="608.7407407407408" y="529.8148148148148" type="line"/>
      <point x="436.6666666666667" y="529.8148148148148" type="line"/>
      <point x="331.9259259259259" y="233.62962962962962" type="line" smooth="yes"/>
      <point x="320.0" y="199.37037037037038"/>
      <point x="309.51851851851853" y="168.96296296296296"/>
      <point x="301.9259259259259" y="147.22222222222223" type="curve"/>
      <point x="325.037037037037" y="159.0" type="line"/>
      <point x="318.51851851851853" y="186.44444444444446"/>
      <point x="307.51851851851853" y="218.92592592592592"/>
      <point x="296.7037037037037" y="243.96296296296296" type="curve" smooth="yes"/>
      <point x="176.03703703703704" y="529.8148148148148" type="line"/>
      <point x="5.0" y="529.8148148148148" type="line"/>
      <point x="261.7037037037037" y="-33.77777777777778" type="line"/>
      <point x="260.22222222222223" y="48.22222222222222" type="line"/>
    </contour>
  </outline>
</glyph>
<glyph name="z" format="2">
  <advance width="539.3703703703703"/>
  <unicode hex="007A"/>
  <anchor x="269.9259259259259" y="0.0" name="bottom"/>
  <anchor x="269.9259259259259" y="265.4074074074074" name="center"/>
  <anchor x="269.9259259259259" y="529.8148148148148" name="top"/>
  <outline>
    <contour>
      <point x="50.0" y="0.0" type="line"/>
      <point x="489.0740740740741" y="0.0" type="line"/>
      <point x="489.0740740740741" y="123.18518518518519" type="line"/>
      <point x="210.14814814814815" y="123.18518518518519" type="line"/>
      <point x="214.14814814814815" y="84.0" type="line"/>
      <point x="481.14814814814815" y="436.18518518518516" type="line"/>
      <point x="481.14814814814815" y="529.8148148148148" type="line"/>
      <point x="50.0" y="529.8148148148148" type="line"/>
      <point x="50.0" y="406.6296296296296" type="line"/>
      <point x="330.6296296296296" y="406.6296296296296" type="line"/>
      <point x="330.6296296296296" y="452.81481481481484" type="line"/>
      <point x="50.0" y="90.81481481481481" type="line"/>
    </contour>
  </outline>
</glyph>
<glyph name="braceleft" format="2">
  <advance width="429.0"/>
  <unicode hex="007B"/>
  <outline>
    <contour>
      <point x="363.0" y="-206.66666666666666" type="curve"/>
      <point x="401.0" y="-77.66666666666667" type="line"/>
      <point x="332.34566666666666" y="-54.63366666666667"/>
      <point x="312.3333333333333" y="-41.86233333333333"/>
      <point x="312.3333333333333" y="20.333333333333332" type="curve" smooth="yes"/>
      <point x="314.3333333333333" y="102.0" type="line" smooth="yes"/>
      <point x="314.3333333333333" y="178.0"/>
      <point x="267.44466666666665" y="230.66633333333334"/>
      <point x="160.33333333333334" y="258.6666666666667" type="curve"/>
      <point x="160.66666666666666" y="242.33333333333334" type="line"/>
      <point x="267.33366666666666" y="267.6666666666667"/>
      <point x="314.3333333333333" y="320.667"/>
      <point x="314.3333333333333" y="398.0" type="curve" smooth="yes"/>
      <point x="312.3333333333333" y="479.6666666666667" type="line" smooth="yes"/>
      <point x="312.3333333333333" y="547.595"/>
      <point x="332.7656666666667" y="561.7366666666667"/>
      <point x="401.0" y="584.3333333333334" type="curve"/>
      <point x="363.0" y="706.6666666666666" type="line"/>
      <point x="223.49133333333333" y="676.61"/>
      <point x="159.33333333333334" y="616.333"/>
      <point x="159.33333333333334" y="507.0" type="curve" smooth="yes"/>
      <point x="160.33333333333334" y="412.0" type="line" smooth="yes"/>
      <point x="160.33333333333334" y="345.7776666666667"/>
      <point x="133.001" y="318.63166666666666"/>
      <point x="79.66666666666667" y="317.3333333333333" type="curve" smooth="yes"/>
      <point x="38.0" y="317.3333333333333" type="line"/>
      <point x="38.0" y="182.66666666666666" type="line"/>
      <point x="77.66666666666667" y="182.66666666666666" type="line" smooth="yes"/>
      <point x="131.03566666666666" y="181.36700000000002"/>
      <point x="160.33333333333334" y="152.889"/>
      <point x="160.33333333333334" y="88.0" type="curve" smooth="yes"/>
      <point x="159.33333333333334" y="-7.0" type="line" smooth="yes"/>
      <point x="159.33333333333334" y="-120.333"/>
      <point x="224.82833333333332" y="-178.85433333333333"/>
    </contour>
  </outline>
</glyph>
<glyph name="bar" format="2">
  <advance width="332.3333333333333"/>
  <unicode hex="007C"/>
  <outline>
    <contour>
      <point x="85.66666666666666" y="-193.0" type="line"/>
      <point x="246.66666666666666" y="-193.0" type="line"/>
      <point x="246.66666666666666" y="740.0" type="line"/>
      <point x="85.66666666666666" y="740.0" type="line"/>
    </contour>
  </outline>
</glyph>
<glyph name="braceright" format="2">
  <advance width="429.0"/>
  <unicode hex="007D"/>
  <outline>
    <contour>
      <point x="66.0" y="-206.66666666666666" type="line"/>
      <point x="205.33333333333334" y="-176.66666666666666"/>
      <point x="269.6666666666667" y="-116.0"/>
      <point x="269.6666666666667" y="-7.0" type="curve" smooth="yes"/>
      <point x="268.6666666666667" y="88.0" type="line" smooth="yes"/>
      <point x="268.6666666666667" y="154.33333333333334"/>
      <point x="295.6666666666667" y="181.66666666666666"/>
      <point x="349.3333333333333" y="182.66666666666666" type="curve" smooth="yes"/>
      <point x="391.0" y="182.66666666666666" type="line"/>
      <point x="391.0" y="317.3333333333333" type="line"/>
      <point x="351.3333333333333" y="317.3333333333333" type="line" smooth="yes"/>
      <point x="297.6666666666667" y="318.3333333333333"/>
      <point x="268.6666666666667" y="347.0"/>
      <point x="268.6666666666667" y="412.0" type="curve" smooth="yes"/>
      <point x="269.6666666666667" y="507.0" type="line" smooth="yes"/>
      <point x="269.6666666666667" y="620.0"/>
      <point x="204.33333333333334" y="679.0"/>
      <point x="66.0" y="706.6666666666666" type="curve"/>
      <point x="28.0" y="577.6666666666666" type="line"/>
      <point x="97.0" y="554.6666666666666"/>
      <point x="116.66666666666667" y="542.0"/>
      <point x="116.66666666666667" y="479.6666666666667" type="curve" smooth="yes"/>
      <point x="114.66666666666667" y="398.0" type="line" smooth="yes"/>
      <point x="114.66666666666667" y="322.0"/>
      <point x="161.33333333333334" y="269.6666666666667"/>
      <point x="268.6666666666667" y="241.33333333333334" type="curve"/>
      <point x="268.3333333333333" y="257.6666666666667" type="line"/>
      <point x="161.33333333333334" y="232.33333333333334"/>
      <point x="114.66666666666667" y="179.0"/>
      <point x="114.66666666666667" y="102.0" type="curve" smooth="yes"/>
      <point x="116.66666666666667" y="20.333333333333332" type="line" smooth="yes"/>
      <point x="116.66666666666667" y="-48.0"/>
      <point x="96.33333333333333" y="-61.66666666666667"/>
      <point x="28.0" y="-84.33333333333334" type="curve"/>
    </contour>
  </outline>
</glyph>
<glyph name="asciitilde" format="2">
  <advance width="566.0"/>
  <unicode hex="007E"/>
  <outline>
    <contour>
      <point x="387.3333333333333" y="198.33333333333334" type="curve" smooth="yes"/>
      <point x="483.33366666666666" y="198.33333333333334"/>
      <point x="532.6666666666666" y="267.8353333333333"/>
      <point x="532.6666666666666" y="400.6666666666667" type="curve"/>
      <point x="411.3333333333333" y="401.6666666666667" type="line"/>
      <point x="414.0003333333333" y="367.44466666666665"/>
      <point x="396.7776666666667" y="341.0"/>
      <point x="374.3333333333333" y="341.0" type="curve" smooth="yes"/>
      <point x="352.6666666666667" y="341.0"/>
      <point x="321.0" y="356.111"/>
      <point x="296.3333333333333" y="366.3333333333333" type="curve" smooth="yes"/>
      <point x="266.3333333333333" y="379.0"/>
      <point x="221.0" y="398.3333333333333"/>
      <point x="187.33333333333334" y="398.3333333333333" type="curve" smooth="yes"/>
      <point x="80.13833333333334" y="398.3333333333333"/>
      <point x="30.666666666666668" y="324.33366666666666"/>
      <point x="30.666666666666668" y="191.0" type="curve"/>
      <point x="152.0" y="191.0" type="line"/>
      <point x="152.0" y="232.77766666666668"/>
      <point x="165.93666666666667" y="255.0"/>
      <point x="191.66666666666666" y="255.0" type="curve" smooth="yes"/>
      <point x="211.0" y="255.0"/>
      <point x="246.77766666666668" y="241.11100000000002"/>
      <point x="277.0" y="228.0" type="curve" smooth="yes"/>
      <point x="311.3333333333333" y="213.0"/>
      <point x="353.0" y="198.33333333333334"/>
    </contour>
  </outline>
</glyph>
<glyph name="cent" format="2">
  <advance width="567.0"/>
  <unicode hex="00A2"/>
  <outline>
    <contour>
      <point x="325.6666666666667" y="78.0" type="curve" smooth="yes"/>
      <point x="418.111" y="78.0"/>
      <point x="504.2223333333334" y="112.55533333333334"/>
      <point x="551.3333333333334" y="169.0" type="curve"/>
      <point x="459.6666666666667" y="279.6666666666667" type="line"/>
      <point x="430.333" y="245.44466666666665"/>
      <point x="391.9996666666667" y="225.0"/>
      <point x="341.3333333333333" y="225.0" type="curve" smooth="yes"/>
      <point x="264.44466666666665" y="225.0"/>
      <point x="212.66666666666666" y="281.2223333333333"/>
      <point x="212.66666666666666" y="355.0" type="curve" smooth="yes"/>
      <point x="212.66666666666666" y="430.111"/>
      <point x="264.55533333333335" y="484.3333333333333"/>
      <point x="341.0" y="484.3333333333333" type="curve" smooth="yes"/>
      <point x="391.22200000000004" y="484.3333333333333"/>
      <point x="433.88866666666667" y="459.55566666666664"/>
      <point x="459.6666666666667" y="428.0" type="curve"/>
      <point x="552.0" y="538.0" type="line"/>
      <point x="504.88866666666667" y="597.111"/>
      <point x="420.7776666666667" y="630.6666666666666"/>
      <point x="325.6666666666667" y="630.6666666666666" type="curve" smooth="yes"/>
      <point x="165.22233333333332" y="630.6666666666666"/>
      <point x="46.666666666666664" y="513.4443333333334"/>
      <point x="46.666666666666664" y="354.3333333333333" type="curve" smooth="yes"/>
      <point x="46.666666666666664" y="195.22233333333332"/>
      <point x="165.22233333333332" y="78.0"/>
    </contour>
    <contour>
      <point x="269.0" y="0.0" type="line"/>
      <point x="392.6666666666667" y="0.0" type="line"/>
      <point x="392.6666666666667" y="107.0" type="line"/>
      <point x="368.3333333333333" y="143.66666666666666" type="line"/>
      <point x="368.3333333333333" y="557.3333333333334" type="line"/>
      <point x="392.6666666666667" y="605.0" type="line"/>
      <point x="392.6666666666667" y="706.6666666666666" type="line"/>
      <point x="269.0" y="706.6666666666666" type="line"/>
      <point x="269.0" y="606.0" type="line"/>
      <point x="298.0" y="554.3333333333334" type="line"/>
      <point x="298.0" y="145.66666666666666" type="line"/>
      <point x="269.0" y="108.0" type="line"/>
    </contour>
  </outline>
</glyph>
<glyph name="sterling" format="2">
  <advance width="633.5925925925926"/>
  <unicode hex="00A3"/>
  <outline>
    <contour>
      <point x="187.37037037037038" y="53.0" type="line"/>
      <point x="271.5181851851852" y="115.46896296296296"/>
      <point x="302.9259259259259" y="166.56774074074073"/>
      <point x="302.9259259259259" y="227.85185185185185" type="curve" smooth="yes"/>
      <point x="302.9259259259259" y="261.43225925925924"/>
      <point x="289.2962962962963" y="307.86403703703706"/>
      <point x="274.85185185185185" y="353.0" type="curve" smooth="yes"/>
      <point x="262.3333333333333" y="392.0"/>
      <point x="247.7037037037037" y="435.3703703703704"/>
      <point x="247.7037037037037" y="476.3703703703704" type="curve" smooth="yes"/>
      <point x="247.7037037037037" y="535.6788518518518"/>
      <point x="289.72822222222226" y="578.4814814814815"/>
      <point x="349.6296296296296" y="578.4814814814815" type="curve" smooth="yes"/>
      <point x="387.3088148148148" y="578.4814814814815"/>
      <point x="417.1107777777778" y="565.5307037037037"/>
      <point x="440.0740740740741" y="536.7407407407408" type="curve"/>
      <point x="553.074074074074" y="625.0" type="line"/>
      <point x="520.4811481481481" y="681.543037037037"/>
      <point x="448.2715925925926" y="714.8148148148148"/>
      <point x="354.44444444444446" y="714.8148148148148" type="curve" smooth="yes"/>
      <point x="205.5558888888889" y="714.8148148148148"/>
      <point x="109.18518518518519" y="624.8765555555556"/>
      <point x="109.18518518518519" y="487.0" type="curve" smooth="yes"/>
      <point x="109.18518518518519" y="455.0"/>
      <point x="114.18518518518519" y="426.667"/>
      <point x="138.1851851851852" y="352.0" type="curve" smooth="yes"/>
      <point x="157.7902962962963" y="292.86403703703706"/>
      <point x="175.0" y="234.3208148148148"/>
      <point x="175.0" y="196.66666666666666" type="curve" smooth="yes"/>
      <point x="175.0" y="148.8024814814815"/>
      <point x="148.12344444444443" y="93.85185185185185"/>
      <point x="112.37037037037037" y="74.0" type="curve"/>
    </contour>
    <contour>
      <point x="444.74074074074076" y="-21.0" type="curve" smooth="yes"/>
      <point x="501.4691481481481" y="-21.0"/>
      <point x="570.1728518518519" y="0.6299629629629628"/>
      <point x="616.0" y="41.81481481481482" type="curve"/>
      <point x="546.6666666666666" y="140.51851851851853" type="line"/>
      <point x="507.3578518518519" y="116.51851851851852"/>
      <point x="469.71603703703704" y="105.51851851851852"/>
      <point x="438.96296296296293" y="105.51851851851852" type="curve" smooth="yes"/>
      <point x="402.74074074074076" y="105.51851851851852"/>
      <point x="368.74074074074076" y="117.51851851851852"/>
      <point x="340.74074074074076" y="127.51851851851852" type="curve" smooth="yes"/>
      <point x="283.56807407407405" y="147.51851851851853"/>
      <point x="258.9134074074074" y="152.51851851851853"/>
      <point x="218.8148148148148" y="152.51851851851853" type="curve" smooth="yes"/>
      <point x="149.29596296296296" y="152.51851851851853"/>
      <point x="80.07407407407408" y="131.50633333333332"/>
      <point x="22.296296296296298" y="96.29629629629629" type="curve"/>
      <point x="76.74074074074073" y="-10.814814814814815" type="line"/>
      <point x="125.9134074074074" y="11.592592592592592"/>
      <point x="173.09859259259258" y="26.0"/>
      <point x="216.88888888888889" y="26.0" type="curve" smooth="yes"/>
      <point x="252.07407407407408" y="26.0"/>
      <point x="293.74074074074076" y="12.0"/>
      <point x="319.74074074074076" y="4.0" type="curve" smooth="yes"/>
      <point x="348.74074074074076" y="-5.0"/>
      <point x="400.74074074074076" y="-21.0"/>
    </contour>
    <contour>
      <point x="44.0" y="306.6296296296296" type="line"/>
      <point x="466.44444444444446" y="306.6296296296296" type="line"/>
      <point x="466.44444444444446" y="398.85185185185185" type="line"/>
      <point x="44.0" y="398.85185185185185" type="line"/>
    </contour>
  </outline>
</glyph>
<glyph name="currency" format="2">
  <advance width="558.6666666666666"/>
  <unicode hex="00A4"/>
  <outline>
    <contour>
      <point x="281.4074074074074" y="111.4074074074074" type="curve" smooth="yes"/>
      <point x="396.7654444444444" y="111.4074074074074"/>
      <point x="483.96296296296293" y="194.61744444444446"/>
      <point x="483.96296296296293" y="304.8888888888889" type="curve" smooth="yes"/>
      <point x="483.96296296296293" y="414.4691481481481"/>
      <point x="396.0737407407408" y="498.3703703703704"/>
      <point x="281.4074074074074" y="498.3703703703704" type="curve" smooth="yes"/>
      <point x="165.40707407407407" y="498.3703703703704"/>
      <point x="77.88888888888889" y="415.16033333333337"/>
      <point x="77.88888888888889" y="304.8888888888889" type="curve" smooth="yes"/>
      <point x="77.88888888888889" y="194.61744444444446"/>
      <point x="165.40707407407407" y="111.4074074074074"/>
    </contour>
    <contour>
      <point x="130.44444444444446" y="63.70370370370371" type="line"/>
      <point x="216.66666666666666" y="152.51851851851853" type="line"/>
      <point x="123.51851851851852" y="249.03703703703704" type="line"/>
      <point x="35.851851851851855" y="158.25925925925927" type="line"/>
    </contour>
    <contour>
      <point x="118.14814814814815" y="368.6296296296296" type="line"/>
      <point x="214.14814814814815" y="460.77777777777777" type="line"/>
      <point x="125.77777777777777" y="546.0370370370371" type="line"/>
      <point x="31.703703703703706" y="451.962962962963" type="line"/>
    </contour>
    <contour>
      <point x="281.4074074074074" y="224.44444444444446" type="curve" smooth="yes"/>
      <point x="238.54337037037038" y="224.44444444444446"/>
      <point x="207.11111111111111" y="257.9754814814815"/>
      <point x="207.11111111111111" y="304.8888888888889" type="curve" smooth="yes"/>
      <point x="207.11111111111111" y="352.4441111111111"/>
      <point x="238.54337037037038" y="386.3333333333333"/>
      <point x="281.4074074074074" y="386.3333333333333" type="curve" smooth="yes"/>
      <point x="324.96262962962965" y="386.3333333333333"/>
      <point x="355.25925925925924" y="352.4441111111111"/>
      <point x="355.25925925925924" y="304.8888888888889" type="curve" smooth="yes"/>
      <point x="355.25925925925924" y="257.9754814814815"/>
      <point x="324.96262962962965" y="224.44444444444446"/>
    </contour>
    <contour>
      <point x="433.77777777777777" y="67.85185185185185" type="line"/>
      <point x="527.8518518518518" y="162.40740740740742" type="line"/>
      <point x="437.0740740740741" y="249.59259259259258" type="line"/>
      <point x="344.44444444444446" y="154.07407407407408" type="line"/>
    </contour>
    <contour>
      <point x="436.85185185185185" y="362.0" type="line"/>
      <point x="528.8888888888889" y="456.6296296296296" type="line"/>
      <point x="434.2962962962963" y="550.7037037037037" type="line"/>
      <point x="342.77777777777777" y="455.5925925925926" type="line"/>
    </contour>
  </outline>
</glyph>
<glyph name="yen" format="2">
  <advance width="693.3333333333334"/>
  <unicode hex="00A5"/>
  <outline>
    <contour>
      <point x="266.0" y="0.0" type="line"/>
      <point x="447.3333333333333" y="0.0" type="line"/>
      <point x="447.3333333333333" y="357.0" type="line"/>
      <point x="432.3333333333333" y="289.0" type="line"/>
      <point x="703.3333333333334" y="700.0" type="line"/>
      <point x="506.0" y="700.0" type="line"/>
      <point x="311.0" y="393.0" type="line"/>
      <point x="409.3333333333333" y="390.0" type="line"/>
      <point x="193.33333333333331" y="700.0" type="line"/>
      <point x="-10.0" y="700.0" type="line"/>
      <point x="273.0" y="300.0" type="line"/>
      <point x="266.0" y="349.0" type="line"/>
    </contour>
    <contour>
      <point x="141.33333333333334" y="128.66666666666666" type="line"/>
      <point x="580.0" y="128.0" type="line"/>
      <point x="580.0" y="196.66666666666666" type="line"/>
      <point x="141.33333333333334" y="197.33333333333334" type="line"/>
    </contour>
    <contour>
      <point x="141.33333333333334" y="248.66666666666666" type="line"/>
      <point x="580.0" y="248.0" type="line"/>
      <point x="580.0" y="316.6666666666667" type="line"/>
      <point x="141.33333333333334" y="317.3333333333333" type="line"/>
    </contour>
  </outline>
</glyph>
<glyph name="brokenbar" format="2">
  <advance width="310.25925925925924"/>
  <unicode hex="00A6"/>
  <outline>
    <contour>
      <point x="82.55555555555556" y="-202.0" type="line"/>
      <point x="227.7037037037037" y="-202.0" type="line"/>
      <point x="227.7037037037037" y="193.1851851851852" type="line"/>
      <point x="82.55555555555556" y="193.1851851851852" type="line"/>
    </contour>
    <contour>
      <point x="82.55555555555556" y="345.81481481481484" type="line"/>
      <point x="227.7037037037037" y="345.81481481481484" type="line"/>
      <point x="227.7037037037037" y="740.0" type="line"/>
      <point x="82.55555555555556" y="740.0" type="line"/>
    </contour>
  </outline>
</glyph>
<glyph name="section" format="2">
  <advance width="579.0"/>
  <unicode hex="00A7"/>
  <outline>
    <contour>
      <point x="352.3333333333333" y="132.66666666666666" type="line"/>
      <point x="471.3333333333333" y="141.33333333333334"/>
      <point x="543.0" y="198.33333333333334"/>
      <point x="545.0" y="284.6666666666667" type="curve" smooth="yes"/>
      <point x="546.3333333333334" y="358.6666666666667"/>
      <point x="498.6666666666667" y="411.0"/>
      <point x="402.6666666666667" y="448.3333333333333" type="curve" smooth="yes"/>
      <point x="319.0" y="480.6666666666667" type="line" smooth="yes"/>
      <point x="274.3333333333333" y="497.3333333333333"/>
      <point x="240.0" y="515.0"/>
      <point x="240.0" y="546.3333333333334" type="curve" smooth="yes"/>
      <point x="240.0" y="573.4443333333334"/>
      <point x="264.6666666666667" y="593.0"/>
      <point x="309.3333333333333" y="593.0" type="curve" smooth="yes"/>
      <point x="348.2223333333333" y="593.0"/>
      <point x="394.7776666666667" y="579.3333333333334"/>
      <point x="449.0" y="533.3333333333334" type="curve"/>
      <point x="536.0" y="627.3333333333334" type="line"/>
      <point x="488.889" y="681.3333333333334"/>
      <point x="409.889" y="717.0"/>
      <point x="310.3333333333333" y="717.0" type="curve" smooth="yes"/>
      <point x="147.33333333333334" y="717.0"/>
      <point x="78.0" y="638.889"/>
      <point x="78.0" y="548.6666666666666" type="curve" smooth="yes"/>
      <point x="78.0" y="442.3333333333333"/>
      <point x="158.66666666666669" y="392.6666666666667"/>
      <point x="251.33333333333334" y="353.0" type="curve" smooth="yes"/>
      <point x="329.0" y="325.0" type="line" smooth="yes"/>
      <point x="368.0" y="309.6666666666667"/>
      <point x="385.0" y="296.2223333333333"/>
      <point x="385.0" y="272.6666666666667" type="curve" smooth="yes"/>
      <point x="385.0" y="243.66666666666666"/>
      <point x="361.0" y="221.33333333333334"/>
      <point x="307.6666666666667" y="216.0" type="curve"/>
    </contour>
    <contour>
      <point x="270.0" y="-143.33333333333334" type="curve" smooth="yes"/>
      <point x="434.3333333333333" y="-143.33333333333334"/>
      <point x="503.3333333333333" y="-65.66666666666667"/>
      <point x="503.3333333333333" y="32.333333333333336" type="curve" smooth="yes"/>
      <point x="503.3333333333333" y="130.0"/>
      <point x="432.0" y="173.0"/>
      <point x="322.6666666666667" y="217.33333333333334" type="curve" smooth="yes"/>
      <point x="256.3333333333333" y="241.66666666666666" type="line" smooth="yes"/>
      <point x="214.0" y="257.6666666666667"/>
      <point x="195.33333333333331" y="273.3333333333333"/>
      <point x="195.33333333333331" y="297.3333333333333" type="curve" smooth="yes"/>
      <point x="195.33333333333331" y="327.0"/>
      <point x="218.66666666666666" y="348.3333333333333"/>
      <point x="263.6666666666667" y="353.3333333333333" type="curve"/>
      <point x="219.66666666666666" y="439.3333333333333" type="line"/>
      <point x="101.0" y="432.0"/>
      <point x="32.333333333333336" y="367.6666666666667"/>
      <point x="32.333333333333336" y="286.0" type="curve" smooth="yes"/>
      <point x="32.333333333333336" y="212.0"/>
      <point x="78.66666666666667" y="159.66666666666666"/>
      <point x="171.66666666666666" y="123.0" type="curve" smooth="yes"/>
      <point x="252.33333333333334" y="93.0" type="line" smooth="yes"/>
      <point x="298.6666666666667" y="74.33333333333333"/>
      <point x="341.3333333333333" y="56.333333333333336"/>
      <point x="341.3333333333333" y="27.0" type="curve" smooth="yes"/>
      <point x="341.3333333333333" y="-4.0"/>
      <point x="317.3333333333333" y="-20.333333333333336"/>
      <point x="269.0" y="-20.333333333333336" type="curve" smooth="yes"/>
      <point x="228.66666666666666" y="-20.333333333333336"/>
      <point x="175.0" y="-2.666666666666668"/>
      <point x="116.33333333333333" y="47.0" type="curve"/>
      <point x="31.666666666666668" y="-51.333333333333336" type="line"/>
      <point x="81.33333333333334" y="-104.33333333333333"/>
      <point x="169.66666666666666" y="-143.33333333333334"/>
    </contour>
  </outline>
</glyph>
<glyph name="copyright" format="2">
  <advance width="791.3333333333334"/>
  <unicode hex="00A9"/>
  <outline>
    <contour>
      <point x="395.0" y="-20.333333333333332" type="curve" smooth="yes"/>
      <point x="600.333" y="-20.333333333333332"/>
      <point x="765.3333333333334" y="143.333"/>
      <point x="765.3333333333334" y="350.0" type="curve" smooth="yes"/>
      <point x="765.3333333333334" y="556.667"/>
      <point x="600.333" y="720.3333333333334"/>
      <point x="395.0" y="720.3333333333334" type="curve" smooth="yes"/>
      <point x="188.333" y="720.3333333333334"/>
      <point x="24.666666666666668" y="556.667"/>
      <point x="24.666666666666668" y="350.0" type="curve" smooth="yes"/>
      <point x="24.666666666666668" y="143.333"/>
      <point x="188.333" y="-20.333333333333332"/>
    </contour>
    <contour>
      <point x="410.3333333333333" y="143.33333333333334" type="curve" smooth="yes"/>
      <point x="459.667" y="143.33333333333334"/>
      <point x="508.0" y="157.88866666666667"/>
      <point x="550.6666666666666" y="187.66666666666666" type="curve"/>
      <point x="498.3333333333333" y="299.0" type="line"/>
      <point x="472.111" y="279.0003333333333"/>
      <point x="446.111" y="271.6666666666667"/>
      <point x="424.3333333333333" y="271.6666666666667" type="curve" smooth="yes"/>
      <point x="377.667" y="271.6666666666667"/>
      <point x="343.6666666666667" y="303.9996666666667"/>
      <point x="343.6666666666667" y="349.3333333333333" type="curve" smooth="yes"/>
      <point x="343.6666666666667" y="392.44433333333336"/>
      <point x="377.667" y="426.0"/>
      <point x="424.3333333333333" y="426.0" type="curve" smooth="yes"/>
      <point x="444.7776666666667" y="426.0"/>
      <point x="467.66633333333334" y="418.3333333333333"/>
      <point x="495.6666666666667" y="398.3333333333333" type="curve"/>
      <point x="546.6666666666666" y="508.0" type="line"/>
      <point x="503.55566666666664" y="539.9996666666666"/>
      <point x="458.333" y="557.0"/>
      <point x="410.3333333333333" y="557.0" type="curve" smooth="yes"/>
      <point x="292.11133333333333" y="557.0"/>
      <point x="198.33333333333334" y="464.0003333333333"/>
      <point x="198.33333333333334" y="349.3333333333333" type="curve" smooth="yes"/>
      <point x="198.33333333333334" y="231.11133333333333"/>
      <point x="292.11133333333333" y="143.33333333333334"/>
    </contour>
    <contour>
      <point x="395.0" y="53.66666666666667" type="curve" smooth="yes"/>
      <point x="229.667" y="53.66666666666667"/>
      <point x="98.66666666666667" y="185.40966666666668"/>
      <point x="98.66666666666667" y="350.0" type="curve" smooth="yes"/>
      <point x="98.66666666666667" y="515.7776666666666"/>
      <point x="230.55566666666667" y="646.3333333333334"/>
      <point x="395.0" y="646.3333333333334" type="curve" smooth="yes"/>
      <point x="559.4443333333334" y="646.3333333333334"/>
      <point x="691.3333333333334" y="515.7776666666666"/>
      <point x="691.3333333333334" y="350.0" type="curve" smooth="yes"/>
      <point x="691.3333333333334" y="185.55566666666667"/>
      <point x="559.4443333333334" y="53.66666666666667"/>
    </contour>
  </outline>
</glyph>
<glyph name="ordfeminine" format="2">
  <advance width="395.0"/>
  <unicode hex="00AA"/>
  <outline>
    <contour>
      <point x="139.0" y="390.3333333333333" type="curve" smooth="yes"/>
      <point x="216.333" y="390.3333333333333"/>
      <point x="260.3333333333333" y="447.11133333333333"/>
      <point x="260.3333333333333" y="505.3333333333333" type="curve"/>
      <point x="238.66666666666666" y="474.0" type="line"/>
      <point x="238.66666666666666" y="401.0" type="line"/>
      <point x="358.3333333333333" y="401.0" type="line"/>
      <point x="358.3333333333333" y="715.0" type="line"/>
      <point x="238.66666666666666" y="715.0" type="line"/>
      <point x="238.66666666666666" y="648.0" type="line"/>
      <point x="260.3333333333333" y="598.6666666666666" type="line"/>
      <point x="260.3333333333333" y="677.7776666666666"/>
      <point x="226.111" y="721.6666666666666"/>
      <point x="151.0" y="721.6666666666666" type="curve" smooth="yes"/>
      <point x="72.77766666666666" y="721.6666666666666"/>
      <point x="18.333333333333332" y="654.0"/>
      <point x="18.333333333333332" y="562.0" type="curve" smooth="yes"/>
      <point x="18.333333333333332" y="459.333"/>
      <point x="64.77766666666666" y="390.3333333333333"/>
    </contour>
    <contour>
      <point x="188.0" y="484.6666666666667" type="curve" smooth="yes"/>
      <point x="155.11133333333333" y="484.6666666666667"/>
      <point x="136.66666666666666" y="513.778"/>
      <point x="136.66666666666666" y="560.0" type="curve" smooth="yes"/>
      <point x="136.66666666666666" y="597.3336666666667"/>
      <point x="158.55566666666667" y="627.3333333333334"/>
      <point x="187.0" y="627.3333333333334" type="curve" smooth="yes"/>
      <point x="222.111" y="627.3333333333334"/>
      <point x="242.66666666666666" y="600.5556666666666"/>
      <point x="242.66666666666666" y="557.0" type="curve" smooth="yes"/>
      <point x="242.66666666666666" y="513.4443333333334"/>
      <point x="220.44466666666668" y="484.6666666666667"/>
    </contour>
  </outline>
</glyph>
<glyph name="logicalnot" format="2">
  <advance width="670.0"/>
  <unicode hex="00AC"/>
  <outline>
    <contour>
      <point x="471.6666666666667" y="103.66666666666667" type="line"/>
      <point x="630.0" y="103.66666666666667" type="line"/>
      <point x="630.0" y="417.3333333333333" type="line"/>
      <point x="40.0" y="417.3333333333333" type="line"/>
      <point x="40.0" y="271.6666666666667" type="line"/>
      <point x="544.0" y="271.6666666666667" type="line"/>
      <point x="471.6666666666667" y="319.0" type="line"/>
    </contour>
  </outline>
</glyph>
<glyph name="registered" format="2">
  <advance width="507.0"/>
  <unicode hex="00AE"/>
  <outline>
    <contour>
      <point x="259.48148148148147" y="239.74074074074073" type="curve" smooth="yes"/>
      <point x="393.85218518518514" y="239.74074074074073"/>
      <point x="502.9259259259259" y="347.75325925925927"/>
      <point x="502.9259259259259" y="484.0" type="curve" smooth="yes"/>
      <point x="502.9259259259259" y="618.9137407407408"/>
      <point x="392.5181851851852" y="728.2592592592592"/>
      <point x="259.48148148148147" y="728.2592592592592" type="curve" smooth="yes"/>
      <point x="121.90122222222223" y="728.2592592592592"/>
      <point x="10.222222222222225" y="620.2467407407407"/>
      <point x="10.222222222222225" y="484.0" type="curve" smooth="yes"/>
      <point x="10.222222222222225" y="347.75325925925927"/>
      <point x="120.56774074074075" y="239.74074074074073"/>
    </contour>
    <contour>
      <point x="259.48148148148147" y="303.22222222222223" type="curve" smooth="yes"/>
      <point x="156.43314814814815" y="303.22222222222223"/>
      <point x="73.18518518518519" y="382.41974074074074"/>
      <point x="73.18518518518519" y="484.0" type="curve" smooth="yes"/>
      <point x="73.18518518518519" y="585.0592962962963"/>
      <point x="156.51885185185185" y="665.2962962962963"/>
      <point x="259.48148148148147" y="665.2962962962963" type="curve" smooth="yes"/>
      <point x="358.5433703703704" y="665.2962962962963"/>
      <point x="439.44444444444446" y="585.0592962962963"/>
      <point x="439.44444444444446" y="484.0" type="curve" smooth="yes"/>
      <point x="439.44444444444446" y="383.06155555555557"/>
      <point x="358.6127037037037" y="303.22222222222223"/>
    </contour>
    <contour>
      <point x="292.962962962963" y="367.0" type="line"/>
      <point x="374.6296296296296" y="367.0" type="line"/>
      <point x="321.48148148148147" y="473.77777777777777" type="line"/>
      <point x="255.96296296296296" y="457.3703703703704" type="line"/>
    </contour>
    <contour>
      <point x="160.92592592592592" y="367.0" type="line"/>
      <point x="237.1851851851852" y="367.0" type="line"/>
      <point x="237.1851851851852" y="465.18518518518516" type="line"/>
      <point x="222.55555555555554" y="453.77777777777777" type="line"/>
      <point x="280.55555555555554" y="453.77777777777777" type="line" smooth="yes"/>
      <point x="327.0245185185185" y="453.77777777777777"/>
      <point x="364.18518518518516" y="485.3948888888889"/>
      <point x="364.18518518518516" y="530.6296296296297" type="curve" smooth="yes"/>
      <point x="364.18518518518516" y="575.2225555555556"/>
      <point x="330.3333333333333" y="606.0"/>
      <point x="280.55555555555554" y="606.0" type="curve" smooth="yes"/>
      <point x="160.92592592592592" y="606.0" type="line"/>
    </contour>
    <contour>
      <point x="237.1851851851852" y="495.0" type="line"/>
      <point x="237.1851851851852" y="554.3703703703703" type="line"/>
      <point x="222.03703703703704" y="546.3703703703703" type="line"/>
      <point x="262.55555555555554" y="546.3703703703703" type="line" smooth="yes"/>
      <point x="280.13596296296294" y="546.3703703703703"/>
      <point x="289.9259259259259" y="538.3086296296296"/>
      <point x="289.9259259259259" y="524.1851851851852" type="curve" smooth="yes"/>
      <point x="289.9259259259259" y="510.7529259259259"/>
      <point x="277.44477777777774" y="502.0"/>
      <point x="260.55555555555554" y="502.0" type="curve" smooth="yes"/>
      <point x="223.59259259259258" y="502.0" type="line"/>
    </contour>
  </outline>
</glyph>
<glyph name="degree" format="2">
  <advance width="532.0"/>
  <unicode hex="00B0"/>
  <outline>
    <contour>
      <point x="266.0" y="392.3333333333333" type="curve" smooth="yes"/>
      <point x="361.11133333333333" y="392.3333333333333"/>
      <point x="435.3333333333333" y="463.605"/>
      <point x="435.3333333333333" y="554.0" type="curve" smooth="yes"/>
      <point x="435.3333333333333" y="644.395"/>
      <point x="363.333" y="715.6666666666666"/>
      <point x="266.0" y="715.6666666666666" type="curve" smooth="yes"/>
      <point x="168.667" y="715.6666666666666"/>
      <point x="96.66666666666667" y="644.7606666666667"/>
      <point x="96.66666666666667" y="553.0" type="curve" smooth="yes"/>
      <point x="96.66666666666667" y="463.9723333333333"/>
      <point x="170.88866666666667" y="392.3333333333333"/>
    </contour>
    <contour>
      <point x="266.0" y="492.6666666666667" type="curve" smooth="yes"/>
      <point x="234.303" y="492.6666666666667"/>
      <point x="209.0" y="519.222"/>
      <point x="209.0" y="553.0" type="curve" smooth="yes"/>
      <point x="209.0" y="587.2223333333334"/>
      <point x="232.66633333333334" y="614.3333333333334"/>
      <point x="266.0" y="614.3333333333334" type="curve" smooth="yes"/>
      <point x="297.9996666666667" y="614.3333333333334"/>
      <point x="323.0" y="587.778"/>
      <point x="323.0" y="554.0" type="curve" smooth="yes"/>
      <point x="323.0" y="520.222"/>
      <point x="297.697" y="492.6666666666667"/>
    </contour>
  </outline>
</glyph>
<glyph name="plusminus" format="2">
  <advance width="631.1111111111111"/>
  <unicode hex="00B1"/>
  <outline>
    <contour>
      <point x="64.44444444444444" y="159.8148148148148" type="line"/>
      <point x="565.2222222222222" y="159.8148148148148" type="line"/>
      <point x="565.2222222222222" y="284.55555555555554" type="line"/>
      <point x="64.44444444444444" y="284.55555555555554" type="line"/>
    </contour>
    <contour>
      <point x="65.88888888888889" y="142.96296296296296" type="line"/>
      <point x="566.6666666666666" y="142.96296296296296" type="line"/>
      <point x="566.6666666666666" y="266.6666666666667" type="line"/>
      <point x="65.88888888888889" y="266.6666666666667" type="line"/>
    </contour>
    <contour>
      <point x="243.85185185185185" y="177.1851851851852" type="line"/>
      <point x="386.85185185185185" y="177.1851851851852" type="line"/>
      <point x="386.85185185185185" y="569.1481481481482" type="line"/>
      <point x="243.85185185185185" y="569.1481481481482" type="line"/>
    </contour>
  </outline>
</glyph>
<glyph name="micro" format="2">
  <advance width="648.0"/>
  <unicode hex="00B5"/>
  <outline>
    <contour>
      <point x="73.33333333333333" y="-162.33333333333334" type="line"/>
      <point x="241.0" y="-162.33333333333334" type="line"/>
      <point x="234.33333333333331" y="66.66666666666667" type="line"/>
      <point x="218.66666666666666" y="7.666666666666671" type="line"/>
      <point x="224.88866666666667" y="-3.8889999999999976"/>
      <point x="242.22233333333332" y="-11.888666666666667"/>
      <point x="263.6666666666667" y="-11.333333333333334" type="curve" smooth="yes"/>
      <point x="341.44466666666665" y="-6.0"/>
      <point x="387.3333333333333" y="18.111333333333334"/>
      <point x="430.0" y="88.66666666666667" type="curve"/>
      <point x="413.0" y="97.33333333333334" type="line"/>
      <point x="420.3333333333333" y="0.0" type="line"/>
      <point x="576.6666666666666" y="0.0" type="line"/>
      <point x="576.6666666666666" y="531.6666666666666" type="line"/>
      <point x="409.0" y="531.6666666666666" type="line"/>
      <point x="409.0" y="218.66666666666666" type="line" smooth="yes"/>
      <point x="409.0" y="168.44433333333333"/>
      <point x="370.6666666666667" y="129.33333333333331"/>
      <point x="318.6666666666667" y="129.33333333333331" type="curve" smooth="yes"/>
      <point x="268.44433333333336" y="129.33333333333331"/>
      <point x="241.0" y="161.111"/>
      <point x="241.0" y="222.0" type="curve" smooth="yes"/>
      <point x="241.0" y="531.6666666666666" type="line"/>
      <point x="73.33333333333333" y="531.6666666666666" type="line"/>
    </contour>
  </outline>
</glyph>
<glyph name="paragraph" format="2">
  <advance width="754.8518518518518"/>
  <unicode hex="00B6"/>
  <outline>
    <contour>
      <point x="246.96296296296296" y="0.0" type="line"/>
      <point x="403.1111111111111" y="0.0" type="line"/>
      <point x="403.1111111111111" y="652.0" type="line"/>
      <point x="330.22222222222223" y="596.0" type="line"/>
      <point x="554.2592592592592" y="596.0" type="line"/>
      <point x="509.3703703703704" y="660.0" type="line"/>
      <point x="509.3703703703704" y="0.0" type="line"/>
      <point x="665.5185185185185" y="0.0" type="line"/>
      <point x="665.5185185185185" y="700.0" type="line"/>
      <point x="269.14814814814815" y="700.0" type="line" smooth="yes"/>
      <point x="133.14814814814815" y="700.0"/>
      <point x="44.148148148148145" y="614.2097037037037"/>
      <point x="44.148148148148145" y="483.5925925925926" type="curve" smooth="yes"/>
      <point x="44.148148148148145" y="362.3084814814815"/>
      <point x="124.14814814814815" y="274.18518518518516"/>
      <point x="232.14814814814815" y="274.18518518518516" type="curve" smooth="yes"/>
      <point x="290.22222222222223" y="274.18518518518516" type="line"/>
      <point x="246.96296296296296" y="314.0" type="line"/>
    </contour>
  </outline>
</glyph>
<glyph name="ordmasculine" format="2">
  <advance width="407.3333333333333"/>
  <unicode hex="00BA"/>
  <outline>
    <contour>
      <point x="202.66666666666666" y="392.6666666666667" type="curve" smooth="yes"/>
      <point x="301.33366666666666" y="392.6666666666667"/>
      <point x="374.0" y="461.667"/>
      <point x="374.0" y="553.6666666666666" type="curve" smooth="yes"/>
      <point x="374.0" y="645.2223333333334"/>
      <point x="299.111" y="717.3333333333334"/>
      <point x="202.66666666666666" y="717.3333333333334" type="curve" smooth="yes"/>
      <point x="105.33366666666666" y="717.3333333333334"/>
      <point x="33.33333333333333" y="646.5553333333334"/>
      <point x="33.33333333333333" y="553.6666666666666" type="curve" smooth="yes"/>
      <point x="33.33333333333333" y="460.333"/>
      <point x="105.33366666666666" y="392.6666666666667"/>
    </contour>
    <contour>
      <point x="202.0" y="479.6666666666667" type="curve" smooth="yes"/>
      <point x="170.0" y="479.6666666666667"/>
      <point x="149.33333333333331" y="509.44433333333336"/>
      <point x="149.33333333333331" y="555.6666666666666" type="curve" smooth="yes"/>
      <point x="149.33333333333331" y="597.4443333333334"/>
      <point x="171.33366666666666" y="629.0"/>
      <point x="202.0" y="629.0" type="curve" smooth="yes"/>
      <point x="235.333" y="629.0"/>
      <point x="255.0" y="600.9996666666666"/>
      <point x="255.0" y="555.6666666666666" type="curve" smooth="yes"/>
      <point x="255.0" y="511.2223333333334"/>
      <point x="234.44433333333333" y="479.6666666666667"/>
    </contour>
  </outline>
</glyph>
<glyph name="AE" format="2">
  <advance width="1092.3333333333333"/>
  <unicode hex="00C6"/>
  <anchor x="546.3333333333334" y="0.0" name="bottom"/>
  <anchor x="731.6666666666666" y="700.0" name="top"/>
  <outline>
    <contour>
      <point x="-11.666666666666664" y="0.0" type="line"/>
      <point x="185.33333333333331" y="0.0" type="line"/>
      <point x="561.3333333333334" y="550.0" type="line"/>
      <point x="536.3333333333334" y="558.0" type="line"/>
      <point x="536.3333333333334" y="281.0" type="line"/>
      <point x="361.3333333333333" y="281.0" type="line"/>
      <point x="265.6666666666667" y="141.0" type="line"/>
      <point x="536.3333333333334" y="141.0" type="line"/>
      <point x="536.3333333333334" y="0.0" type="line"/>
      <point x="1036.0" y="0.0" type="line"/>
      <point x="1036.0" y="147.66666666666666" type="line"/>
      <point x="708.0" y="147.66666666666666" type="line"/>
      <point x="708.0" y="284.0" type="line"/>
      <point x="991.0" y="284.0" type="line"/>
      <point x="991.0" y="424.6666666666667" type="line"/>
      <point x="708.0" y="424.6666666666667" type="line"/>
      <point x="708.0" y="552.3333333333334" type="line"/>
      <point x="1036.0" y="552.3333333333334" type="line"/>
      <point x="1036.0" y="700.0" type="line"/>
      <point x="476.3333333333333" y="700.0" type="line"/>
    </contour>
  </outline>
</glyph>
<glyph name="Eth" format="2">
  <advance width="776.0"/>
  <unicode hex="00D0"/>
  <anchor x="388.0" y="0.0" name="bottom"/>
  <anchor x="202.0" y="350.0" name="center"/>
  <anchor x="388.0" y="700.0" name="top"/>
  <outline>
    <contour>
      <point x="33.0" y="288.3333333333333" type="line"/>
      <point x="367.6666666666667" y="288.3333333333333" type="line"/>
      <point x="367.6666666666667" y="411.6666666666667" type="line"/>
      <point x="33.0" y="411.6666666666667" type="line"/>
    </contour>
    <component base="D"/>
  </outline>
</glyph>
<glyph name="multiply" format="2">
  <advance width="524.4444444444445"/>
  <unicode hex="00D7"/>
  <outline>
    <contour>
      <point x="247.25925925925924" y="53.18518518518519" type="line"/>
      <point x="251.03703703703704" y="412.85185185185185" type="line"/>
      <point x="277.7037037037037" y="503.81481481481484" type="line"/>
      <point x="274.44444444444446" y="145.14814814814815" type="line"/>
    </contour>
    <contour>
      <point x="276.6666666666667" y="56.81481481481482" type="line"/>
      <point x="252.07407407407408" y="145.66666666666666" type="line"/>
      <point x="247.77777777777777" y="503.81481481481484" type="line"/>
      <point x="272.3703703703703" y="414.9259259259259" type="line"/>
    </contour>
  </outline>
</glyph>
<glyph name="Oslash" format="2">
  <advance width="800.8148148148148"/>
  <unicode hex="00D8"/>
  <anchor x="400.4074074074074" y="0.0" name="bottom"/>
  <anchor x="400.4074074074074" y="700.0" name="top"/>
  <anchor x="403.0" y="350.0" name="center"/>
  <anchor x="653.0" y="4.814814814814815" name="ogonek"/>
  <anchor x="19.48148148148148" y="700.0" name="topleft"/>
  <anchor x="786.5185185185185" y="700.0" name="topright"/>
  <outline>
    <contour>
      <point x="136.48148148148147" y="-33.0" type="line"/>
      <point x="730.4814814814815" y="694.0" type="line"/>
      <point x="662.4814814814815" y="741.0" type="line"/>
      <point x="73.48148148148148" y="20.0" type="line"/>
    </contour>
    <component base="O" xOffset="-0.5185185185185186"/>
  </outline>
</glyph>
<glyph name="Thorn" format="2">
  <advance width="666.6666666666666"/>
  <unicode hex="00DE"/>
  <anchor x="333.6666666666667" y="0.0" name="bottom"/>
  <anchor x="333.6666666666667" y="700.0" name="top"/>
  <outline>
    <contour>
      <point x="86.0" y="0.0" type="line"/>
      <point x="266.0" y="0.0" type="line"/>
      <point x="266.0" y="119.0" type="line"/>
      <point x="391.0" y="119.0" type="line" smooth="yes"/>
      <point x="524.7776666666666" y="119.0"/>
      <point x="625.0" y="221.55533333333332"/>
      <point x="625.0" y="359.3333333333333" type="curve" smooth="yes"/>
      <point x="625.0" y="492.6666666666667"/>
      <point x="524.7776666666666" y="591.0"/>
      <point x="391.0" y="591.0" type="curve" smooth="yes"/>
      <point x="266.0" y="591.0" type="line"/>
      <point x="266.0" y="700.0" type="line"/>
      <point x="86.0" y="700.0" type="line"/>
    </contour>
    <contour>
      <point x="266.0" y="276.3333333333333" type="line"/>
      <point x="266.0" y="433.6666666666667" type="line"/>
      <point x="363.6666666666667" y="433.6666666666667" type="line" smooth="yes"/>
      <point x="407.2223333333333" y="433.6666666666667"/>
      <point x="440.3333333333333" y="404.66633333333334"/>
      <point x="440.3333333333333" y="356.6666666666667" type="curve" smooth="yes"/>
      <point x="440.3333333333333" y="308.667"/>
      <point x="407.2223333333333" y="276.3333333333333"/>
      <point x="363.6666666666667" y="276.3333333333333" type="curve" smooth="yes"/>
    </contour>
  </outline>
</glyph>
<glyph name="germandbls" format="2">
  <advance width="668.0"/>
  <unicode hex="00DF"/>
  <anchor x="334.0" y="0.0" name="bottom"/>
  <anchor x="334.0" y="531.6666666666666" name="top"/>
  <outline>
    <contour>
      <point x="427.3333333333333" y="-10.0" type="curve" smooth="yes"/>
      <point x="554.8886666666666" y="-10.0"/>
      <point x="647.3333333333334" y="81.667"/>
      <point x="647.3333333333334" y="203.0" type="curve" smooth="yes"/>
      <point x="647.3333333333334" y="320.33366666666666"/>
      <point x="571.0" y="400.55566666666664"/>
      <point x="459.0" y="435.6666666666667" type="curve"/>
      <point x="461.0" y="395.0" type="line"/>
      <point x="531.667" y="425.6666666666667"/>
      <point x="574.3333333333334" y="497.7776666666667"/>
      <point x="574.3333333333334" y="564.0" type="curve" smooth="yes"/>
      <point x="574.3333333333334" y="672.0003333333334"/>
      <point x="476.2223333333333" y="734.0"/>
      <point x="348.6666666666667" y="734.0" type="curve" smooth="yes"/>
      <point x="191.77766666666668" y="734.0"/>
      <point x="100.33333333333334" y="639.0"/>
      <point x="100.33333333333334" y="499.0" type="curve" smooth="yes"/>
      <point x="100.33333333333334" y="0.0" type="line"/>
      <point x="268.0" y="0.0" type="line"/>
      <point x="268.0" y="497.3333333333333" type="line" smooth="yes"/>
      <point x="268.0" y="547.9996666666666"/>
      <point x="292.6666666666667" y="580.6666666666666"/>
      <point x="342.0" y="580.6666666666666" type="curve" smooth="yes"/>
      <point x="387.33366666666666" y="580.6666666666666"/>
      <point x="415.6666666666667" y="558.7776666666666"/>
      <point x="415.6666666666667" y="518.3333333333334" type="curve" smooth="yes"/>
      <point x="415.6666666666667" y="479.6666666666667"/>
      <point x="395.55533333333335" y="454.889"/>
      <point x="342.6666666666667" y="431.3333333333333" type="curve"/>
      <point x="342.6666666666667" y="343.0" type="line"/>
      <point x="416.44433333333336" y="315.44433333333336"/>
      <point x="483.6666666666667" y="274.3333333333333"/>
      <point x="483.6666666666667" y="203.66666666666666" type="curve" smooth="yes"/>
      <point x="483.6666666666667" y="159.66633333333334"/>
      <point x="459.55566666666664" y="134.0"/>
      <point x="421.3333333333333" y="134.0" type="curve" smooth="yes"/>
      <point x="401.77799999999996" y="134.0"/>
      <point x="385.6666666666667" y="139.55533333333332"/>
      <point x="363.0" y="157.33333333333331" type="curve"/>
      <point x="298.3333333333333" y="38.333333333333336" type="line"/>
      <point x="330.77799999999996" y="6.333666666666667"/>
      <point x="373.11133333333333" y="-10.0"/>
    </contour>
    <contour>
      <point x="23.666666666666668" y="358.0" type="line"/>
      <point x="177.33333333333334" y="358.0" type="line"/>
      <point x="177.33333333333334" y="502.3333333333333" type="line"/>
      <point x="23.666666666666668" y="502.3333333333333" type="line"/>
    </contour>
  </outline>
</glyph>
<glyph name="ae" format="2">
  <advance width="899.9629629629629"/>
  <unicode hex="00E6"/>
  <anchor x="450.48148148148147" y="0.0" name="bottom"/>
  <anchor x="450.48148148148147" y="529.8148148148148" name="top"/>
  <outline>
    <contour>
      <point x="214.55555555555554" y="-10.0" type="curve" smooth="yes"/>
      <point x="299.88855555555557" y="-10.0"/>
      <point x="385.25892592592595" y="31.246925925925925"/>
      <point x="428.0740740740741" y="97.37037037037037" type="curve"/>
      <point x="376.85185185185185" y="176.88888888888889" type="line"/>
      <point x="353.34551851851853" y="131.8515185185185"/>
      <point x="303.39522222222223" y="102.07407407407408"/>
      <point x="247.44444444444446" y="102.07407407407408" type="curve" smooth="yes"/>
      <point x="209.0247037037037" y="102.07407407407408"/>
      <point x="181.7037037037037" y="125.93811111111111"/>
      <point x="181.7037037037037" y="159.66666666666666" type="curve" smooth="yes"/>
      <point x="181.7037037037037" y="202.1358148148148"/>
      <point x="214.494" y="227.37037037037038"/>
      <point x="274.0" y="227.37037037037038" type="curve" smooth="yes"/>
      <point x="866.6666666666666" y="227.37037037037038" type="line"/>
      <point x="867.6666666666666" y="274.74074074074076" type="line" smooth="yes"/>
      <point x="867.6666666666666" y="428.4691481481481"/>
      <point x="765.9878148148148" y="540.1236296296296"/>
      <point x="621.0" y="540.8148148148148" type="curve" smooth="yes"/>
      <point x="472.65448148148147" y="540.8148148148148"/>
      <point x="361.9259259259259" y="424.321"/>
      <point x="361.9259259259259" y="262.2962962962963" type="curve" smooth="yes"/>
      <point x="361.9259259259259" y="102.34566666666666"/>
      <point x="472.87655555555557" y="-10.0"/>
      <point x="646.4074074074074" y="-10.0" type="curve" smooth="yes"/>
      <point x="719.0985925925926" y="-10.0"/>
      <point x="794.4195925925926" y="15.271592592592592"/>
      <point x="855.2592592592592" y="67.07407407407408" type="curve"/>
      <point x="789.3703703703703" y="169.03703703703704" type="line"/>
      <point x="745.7158888888889" y="133.9754814814815"/>
      <point x="710.8148148148148" y="122.51851851851852"/>
      <point x="662.6666666666666" y="122.51851851851852" type="curve" smooth="yes"/>
      <point x="560.4938148148149" y="122.51851851851852"/>
      <point x="494.4074074074074" y="184.34585185185185"/>
      <point x="494.4074074074074" y="273.6296296296296" type="curve" smooth="yes"/>
      <point x="494.4074074074074" y="363.3084814814815"/>
      <point x="539.6174444444445" y="413.0740740740741"/>
      <point x="622.925925925926" y="413.0740740740741" type="curve" smooth="yes"/>
      <point x="679.3703703703703" y="413.0740740740741"/>
      <point x="722.6171111111111" y="375.12344444444443"/>
      <point x="726.0740740740741" y="322.6296296296296" type="curve"/>
      <point x="726.0740740740741" y="301.51851851851853" type="line"/>
      <point x="736.2592592592592" y="314.18518518518516" type="line"/>
      <point x="272.55555555555554" y="314.18518518518516" type="line" smooth="yes"/>
      <point x="115.96262962962963" y="314.8763703703704"/>
      <point x="34.148148148148145" y="257.789962962963"/>
      <point x="34.148148148148145" y="149.0" type="curve" smooth="yes"/>
      <point x="34.148148148148145" y="53.0"/>
      <point x="111.93844444444444" y="-10.0"/>
    </contour>
    <contour>
      <point x="359.51851851851853" y="249.77777777777777" type="line"/>
      <point x="492.48148148148147" y="252.88888888888889" type="line"/>
      <point x="492.48148148148147" y="370.6666666666667" type="line" smooth="yes"/>
      <point x="492.48148148148147" y="485.23474074074073"/>
      <point x="411.9137407407407" y="540.8148148148148"/>
      <point x="284.7037037037037" y="540.8148148148148" type="curve" smooth="yes"/>
      <point x="186.6292962962963" y="540.8148148148148"/>
      <point x="103.51818518518519" y="500.17266666666666"/>
      <point x="51.96296296296296" y="437.4074074074074" type="curve"/>
      <point x="142.07407407407408" y="348.25925925925924" type="line"/>
      <point x="174.9632962962963" y="393.7404074074074"/>
      <point x="211.83933333333334" y="412.5925925925926"/>
      <point x="265.3703703703704" y="412.5925925925926" type="curve" smooth="yes"/>
      <point x="322.11144444444443" y="412.5925925925926"/>
      <point x="359.51851851851853" y="387.5181851851852"/>
      <point x="359.51851851851853" y="336.25925925925924" type="curve" smooth="yes"/>
    </contour>
  </outline>
</glyph>
<glyph name="eth" format="2">
  <advance width="600.6666666666666"/>
  <unicode hex="00F0"/>
  <outline>
    <contour>
      <point x="299.0" y="-7.0" type="curve" smooth="yes"/>
      <point x="459.8086666666667" y="-7.0"/>
      <point x="567.3333333333334" y="113.49033333333334"/>
      <point x="567.3333333333334" y="289.0" type="curve" smooth="yes"/>
      <point x="567.3333333333334" y="532.126"/>
      <point x="430.8636666666667" y="695.144"/>
      <point x="217.66666666666666" y="746.6666666666666" type="curve"/>
      <point x="169.0" y="642.0" type="line"/>
      <point x="316.11133333333333" y="598.0"/>
      <point x="370.88866666666667" y="523.0003333333334"/>
      <point x="378.0" y="379.0" type="curve"/>
      <point x="481.3333333333333" y="348.0" type="line"/>
      <point x="461.7776666666667" y="450.667"/>
      <point x="388.3333333333333" y="514.6666666666666"/>
      <point x="288.3333333333333" y="514.6666666666666" type="curve" smooth="yes"/>
      <point x="153.66666666666666" y="514.6666666666666"/>
      <point x="33.333333333333336" y="395.77799999999996"/>
      <point x="33.333333333333336" y="255.33333333333334" type="curve" smooth="yes"/>
      <point x="33.333333333333336" y="108.22233333333334"/>
      <point x="142.91366666666667" y="-7.0"/>
    </contour>
    <contour>
      <point x="300.3333333333333" y="135.66666666666666" type="curve" smooth="yes"/>
      <point x="238.55533333333335" y="135.66666666666666"/>
      <point x="190.33333333333331" y="190.44433333333333"/>
      <point x="190.33333333333331" y="262.0" type="curve" smooth="yes"/>
      <point x="190.33333333333331" y="332.22200000000004"/>
      <point x="238.55533333333335" y="385.3333333333333"/>
      <point x="300.3333333333333" y="385.3333333333333" type="curve" smooth="yes"/>
      <point x="362.11133333333333" y="385.3333333333333"/>
      <point x="410.3333333333333" y="330.889"/>
      <point x="410.3333333333333" y="262.0" type="curve" smooth="yes"/>
      <point x="410.3333333333333" y="190.44433333333333"/>
      <point x="362.11133333333333" y="135.66666666666666"/>
    </contour>
    <contour>
      <point x="149.33333333333334" y="515.3333333333334" type="line"/>
      <point x="363.0" y="566.0" type="line"/>
      <point x="406.6666666666667" y="591.0" type="line"/>
      <point x="519.6666666666666" y="617.0" type="line"/>
      <point x="501.6666666666667" y="683.0" type="line"/>
      <point x="355.6666666666667" y="650.0" type="line"/>
      <point x="298.0" y="622.0" type="line"/>
      <point x="136.33333333333334" y="580.3333333333334" type="line"/>
    </contour>
  </outline>
</glyph>
<glyph name="divide" format="2">
  <advance width="597.0"/>
  <unicode hex="00F7"/>
  <outline>
    <contour>
      <point x="42.0" y="197.0" type="line"/>
      <point x="555.6666666666666" y="197.0" type="line"/>
      <point x="555.6666666666666" y="333.6666666666667" type="line"/>
      <point x="42.0" y="333.6666666666667" type="line"/>
    </contour>
    <contour>
      <point x="297.0" y="-29.666666666666664" type="curve" smooth="yes"/>
      <point x="353.78066666666666" y="-29.666666666666664"/>
      <point x="391.3333333333333" y="7.555333333333337"/>
      <point x="391.3333333333333" y="58.66666666666667" type="curve" smooth="yes"/>
      <point x="391.3333333333333" y="113.33333333333333"/>
      <point x="354.5946666666667" y="147.0"/>
      <point x="297.0" y="147.0" type="curve" smooth="yes"/>
      <point x="240.21933333333334" y="147.0"/>
      <point x="202.33333333333334" y="109.778"/>
      <point x="202.33333333333334" y="58.66666666666667" type="curve" smooth="yes"/>
      <point x="202.33333333333334" y="4.0"/>
      <point x="239.40533333333335" y="-29.666666666666664"/>
    </contour>
    <contour>
      <point x="297.0" y="382.6666666666667" type="curve" smooth="yes"/>
      <point x="353.3363333333333" y="382.6666666666667"/>
      <point x="391.3333333333333" y="419.9996666666667"/>
      <point x="391.3333333333333" y="470.6666666666667" type="curve" smooth="yes"/>
      <point x="391.3333333333333" y="525.3333333333334"/>
      <point x="354.5946666666667" y="559.3333333333334"/>
      <point x="297.0" y="559.3333333333334" type="curve" smooth="yes"/>
      <point x="240.21933333333334" y="559.3333333333334"/>
      <point x="202.33333333333334" y="521.778"/>
      <point x="202.33333333333334" y="470.6666666666667" type="curve" smooth="yes"/>
      <point x="202.33333333333334" y="416.44433333333336"/>
      <point x="239.40533333333335" y="382.6666666666667"/>
    </contour>
  </outline>
</glyph>
<glyph name="oslash" format="2">
  <advance width="645.0"/>
  <unicode hex="00F8"/>
  <anchor x="322.6666666666667" y="531.6666666666666" name="top"/>
  <anchor x="322.6666666666667" y="0.0" name="bottom"/>
  <anchor x="322.6666666666667" y="266.3333333333333" name="center"/>
  <anchor x="496.3333333333333" y="0.0" name="ogonek"/>
  <anchor x="625.0" y="531.6666666666666" name="topright"/>
  <outline>
    <contour>
      <point x="122.33333333333333" y="-35.0" type="line"/>
      <point x="587.0" y="513.3333333333334" type="line"/>
      <point x="520.0" y="562.3333333333334" type="line"/>
      <point x="56.33333333333333" y="13.0" type="line"/>
    </contour>
    <component base="o"/>
  </outline>
</glyph>
<glyph name="dcroat" format="2">
  <advance width="657.3333333333334"/>
  <unicode hex="0111"/>
  <anchor x="476.6666666666667" y="634.0" name="_center"/>
  <anchor x="329.0" y="0.0" name="bottom"/>
  <anchor x="476.6666666666667" y="634.0" name="center"/>
  <anchor x="329.0" y="740.0" name="top"/>
  <anchor x="630.6666666666666" y="740.0" name="topright"/>
  <outline>
    <contour>
      <point x="309.3333333333333" y="572.3333333333334" type="line"/>
      <point x="644.0" y="572.3333333333334" type="line"/>
      <point x="644.0" y="695.6666666666666" type="line"/>
      <point x="309.3333333333333" y="695.6666666666666" type="line"/>
    </contour>
    <component base="d"/>
  </outline>
</glyph>
<glyph name="eogonek" format="2">
  <advance width="586.0"/>
  <unicode hex="0119"/>
  <anchor x="293.0" y="531.6666666666666" name="top"/>
  <anchor x="325.0" y="0.0" name="bottom"/>
  <anchor x="517.6666666666666" y="6.666666666666666" name="ogonek"/>
  <outline>
    <contour>
      <point x="381.3333333333333" y="-206.0" type="curve" smooth="yes"/>
      <point x="448.0" y="-206.0"/>
      <point x="491.6666666666667" y="-165.0"/>
      <point x="513.6666666666666" y="-127.33333333333333" type="curve"/>
      <point x="441.6666666666667" y="-74.66666666666667" type="line"/>
      <point x="430.3333333333333" y="-90.66666666666667"/>
      <point x="421.0" y="-98.33333333333334"/>
      <point x="407.0" y="-98.33333333333334" type="curve" smooth="yes"/>
      <point x="392.0" y="-98.33333333333334"/>
      <point x="380.0" y="-86.66666666666667"/>
      <point x="380.0" y="-67.0" type="curve" smooth="yes"/>
      <point x="380.0" y="-30.666666666666668"/>
      <point x="422.6666666666667" y="-0.33333333333333337"/>
      <point x="499.0" y="41.0" type="curve"/>
      <point x="471.0" y="92.0" type="line"/>
      <point x="347.6666666666667" y="33.666666666666664"/>
      <point x="266.3333333333333" y="-16.333333333333332"/>
      <point x="266.3333333333333" y="-98.33333333333333" type="curve" smooth="yes"/>
      <point x="266.3333333333333" y="-157.66666666666666"/>
      <point x="310.0" y="-206.0"/>
    </contour>
    <component base="e"/>
  </outline>
</glyph>
<glyph name="Hbar" format="2">
  <advance width="814.3333333333334"/>
  <unicode hex="0126"/>
  <anchor x="409.0" y="0.0" name="bottom"/>
  <anchor x="409.0" y="350.0" name="center"/>
  <anchor x="409.0" y="700.0" name="top"/>
  <anchor x="37.333333333333336" y="700.0" name="topleft"/>
  <outline>
    <contour>
      <point x="30.333333333333336" y="481.3333333333333" type="line"/>
      <point x="114.33333333333334" y="481.3333333333333" type="line"/>
      <point x="189.0" y="491.3333333333333" type="line"/>
      <point x="605.0" y="491.3333333333333" type="line"/>
      <point x="687.3333333333334" y="481.3333333333333" type="line"/>
      <point x="786.6666666666666" y="481.3333333333333" type="line"/>
      <point x="786.6666666666666" y="625.3333333333334" type="line"/>
      <point x="685.0" y="625.3333333333334" type="line"/>
      <point x="593.0" y="615.3333333333334" type="line"/>
      <point x="199.0" y="615.3333333333334" type="line"/>
      <point x="117.66666666666667" y="625.3333333333334" type="line"/>
      <point x="30.333333333333336" y="625.3333333333334" type="line"/>
    </contour>
    <component base="H" xOffset="17.333333333333336"/>
  </outline>
</glyph>
<glyph name="hbar" format="2">
  <advance width="641.6666666666666"/>
  <unicode hex="0127"/>
  <anchor x="321.3333333333333" y="0.0" name="bottom"/>
  <anchor x="180.66666666666666" y="637.3333333333334" name="center"/>
  <anchor x="321.3333333333333" y="740.0" name="top"/>
  <outline>
    <contour>
      <point x="13.333333333333334" y="575.6666666666666" type="line"/>
      <point x="348.0" y="575.6666666666666" type="line"/>
      <point x="348.0" y="699.0" type="line"/>
      <point x="13.333333333333334" y="699.0" type="line"/>
    </contour>
    <component base="h"/>
  </outline>
</glyph>
<glyph name="idotless" format="2">
  <advance width="296.3333333333333"/>
  <unicode hex="0131"/>
  <anchor x="148.66666666666666" y="0.0" name="bottom"/>
  <anchor x="221.0" y="0.0" name="ogonek"/>
  <anchor x="148.66666666666666" y="531.6666666666666" name="top"/>
  <outline>
    <contour>
      <point x="64.0" y="0.0" type="line"/>
      <point x="233.66666666666666" y="0.0" type="line"/>
      <point x="233.66666666666666" y="531.6666666666666" type="line"/>
      <point x="64.0" y="531.6666666666666" type="line"/>
    </contour>
  </outline>
</glyph>
<glyph name="kgreenlandic" format="2">
  <advance width="641.3333333333334"/>
  <unicode hex="0138"/>
  <anchor x="320.6666666666667" y="0.0" name="bottom"/>
  <anchor x="320.6666666666667" y="531.6666666666666" name="top"/>
  <outline>
    <contour>
      <point x="232.66666666666666" y="131.33333333333334" type="line"/>
      <point x="629.0" y="531.6666666666666" type="line"/>
      <point x="412.6666666666667" y="531.6666666666666" type="line"/>
      <point x="164.33333333333334" y="249.33333333333334" type="line"/>
    </contour>
    <contour>
      <point x="70.66666666666667" y="0.0" type="line"/>
      <point x="238.33333333333331" y="0.0" type="line"/>
      <point x="238.33333333333331" y="531.6666666666666" type="line"/>
      <point x="70.66666666666667" y="531.6666666666666" type="line"/>
    </contour>
    <contour>
      <point x="425.6666666666667" y="0.0" type="line"/>
      <point x="621.3333333333334" y="-0.33333333333333337" type="line"/>
      <point x="367.0" y="341.6666666666667" type="line"/>
      <point x="249.33333333333331" y="258.0" type="line"/>
    </contour>
  </outline>
</glyph>
<glyph name="Lslash" format="2">
  <advance width="623.3333333333334"/>
  <unicode hex="0141"/>
  <anchor x="318.3333333333333" y="0.0" name="bottom"/>
  <anchor x="191.33333333333334" y="350.0" name="center"/>
  <anchor x="190.66666666666666" y="700.0" name="top"/>
  <anchor x="356.6666666666667" y="700.0" name="topright"/>
  <outline>
    <contour>
      <point x="35.0" y="234.66666666666666" type="line"/>
      <point x="404.3333333333333" y="394.6666666666667" type="line"/>
      <point x="352.3333333333333" y="529.0" type="line"/>
      <point x="-16.0" y="367.3333333333333" type="line"/>
    </contour>
    <component base="L" xOffset="13.0"/>
  </outline>
</glyph>
<glyph name="lslash" format="2">
  <advance width="357.0"/>
  <unicode hex="0142"/>
  <anchor x="177.92592592592592" y="0.0" name="bottom"/>
  <anchor x="177.92592592592592" y="370.0" name="center"/>
  <anchor x="177.92592592592592" y="740.0" name="top"/>
  <anchor x="285.22222222222223" y="740.0" name="topright"/>
  <outline>
    <contour>
      <point x="45.925925925925924" y="259.25925925925924" type="line"/>
      <point x="358.55555555555554" y="397.3703703703704" type="line"/>
      <point x="310.03703703703707" y="514.2222222222222" type="line"/>
      <point x="-1.5555555555555556" y="377.6666666666667" type="line"/>
    </contour>
    <component base="l" xOffset="29.777777777777775"/>
  </outline>
</glyph>
